<?xml version="1.0" encoding="UTF-8" standalone="no"?>
<!-- Created with Inkscape (http://www.inkscape.org/) -->

<svg
   xmlns:dc="http://purl.org/dc/elements/1.1/"
   xmlns:cc="http://creativecommons.org/ns#"
   xmlns:rdf="http://www.w3.org/1999/02/22-rdf-syntax-ns#"
   xmlns:svg="http://www.w3.org/2000/svg"
   xmlns="http://www.w3.org/2000/svg"
   xmlns:sodipodi="http://sodipodi.sourceforge.net/DTD/sodipodi-0.dtd"
   xmlns:inkscape="http://www.inkscape.org/namespaces/inkscape"
   width="744.09448819"
   height="1052.3622047"
   id="svg4138"
   version="1.1"
   inkscape:version="0.48.4 r9939"
   sodipodi:docname="New document 4">
  <defs
     id="defs4140" />
  <sodipodi:namedview
     id="base"
     pagecolor="#ffffff"
     bordercolor="#666666"
     borderopacity="1.0"
     inkscape:pageopacity="0.0"
     inkscape:pageshadow="2"
     inkscape:zoom="0.5123762"
     inkscape:cx="438.99762"
     inkscape:cy="558.52642"
     inkscape:document-units="px"
     inkscape:current-layer="layer1"
     showgrid="false"
     inkscape:window-width="1280"
     inkscape:window-height="697"
     inkscape:window-x="-8"
     inkscape:window-y="-8"
     inkscape:window-maximized="1" />
  <metadata
     id="metadata4143">
    <rdf:RDF>
      <cc:Work
         rdf:about="">
        <dc:format>image/svg+xml</dc:format>
        <dc:type
           rdf:resource="http://purl.org/dc/dcmitype/StillImage" />
        <dc:title></dc:title>
      </cc:Work>
    </rdf:RDF>
  </metadata>
  <g
     inkscape:label="Layer 1"
     inkscape:groupmode="layer"
     id="layer1">
    <g
       id="g4687"
       inkscape:export-filename="C:\Users\spear\Desktop\Teddy\pictures\Bunny.png"
       inkscape:export-xdpi="90"
       inkscape:export-ydpi="90">
      <path
         transform="translate(0,62)"
         d="m 182.16712,389.24628 a 20.010782,120.75471 0 1 1 -40.02156,0 20.010782,120.75471 0 1 1 40.02156,0 z"
         sodipodi:ry="120.75471"
         sodipodi:rx="20.010782"
         sodipodi:cy="389.24628"
         sodipodi:cx="162.15634"
         id="path4146"
         style="fill:#ffffff;fill-opacity:1;fill-rule:nonzero;stroke:#000000;stroke-width:4.5;stroke-miterlimit:4;stroke-opacity:1;stroke-dasharray:none"
         sodipodi:type="arc" />
      <path
         transform="matrix(1,0,0,1.0481928,3.8598383,23.162683)"
         d="m 273.25068,407.87701 a 22.080864,114.54447 0 1 1 -44.16173,0 22.080864,114.54447 0 1 1 44.16173,0 z"
         sodipodi:ry="114.54447"
         sodipodi:rx="22.080864"
         sodipodi:cy="407.87701"
         sodipodi:cx="251.16982"
         id="path4656"
         style="fill:#ffffff;fill-opacity:1;fill-rule:nonzero;stroke:#000000;stroke-width:4.39533472;stroke-miterlimit:4;stroke-opacity:1;stroke-dasharray:none"
         sodipodi:type="arc" />
      <path
         d="m 335.3531,645.24628 a 117.99461,114.54447 0 1 1 -235.989224,0 117.99461,114.54447 0 1 1 235.989224,0 z"
         sodipodi:ry="114.54447"
         sodipodi:rx="117.99461"
         sodipodi:cy="645.24628"
         sodipodi:cx="217.35849"
         id="path4658"
         style="fill:#ffffff;fill-opacity:1;fill-rule:nonzero;stroke:#000000;stroke-width:4.50000000000000000;stroke-miterlimit:4;stroke-opacity:1;stroke-dasharray:none"
         sodipodi:type="arc" />
      <path
         transform="translate(80,0)"
         d="m 197.34772,605.22473 a 15.87062,19.320755 0 1 1 -31.74124,0 15.87062,19.320755 0 1 1 31.74124,0 z"
         sodipodi:ry="19.320755"
         sodipodi:rx="15.87062"
         sodipodi:cy="605.22473"
         sodipodi:cx="181.4771"
         id="path4660"
         style="fill:#000000;fill-opacity:1;fill-rule:nonzero;stroke:#000000;stroke-width:4.5;stroke-miterlimit:4;stroke-opacity:1;stroke-dasharray:none"
         sodipodi:type="arc" />
      <path
         transform="translate(-14,0)"
         sodipodi:type="arc"
         style="fill:#000000;fill-opacity:1;fill-rule:nonzero;stroke:#000000;stroke-width:4.5;stroke-miterlimit:4;stroke-opacity:1;stroke-dasharray:none"
         id="path4662"
         sodipodi:cx="181.4771"
         sodipodi:cy="605.22473"
         sodipodi:rx="15.87062"
         sodipodi:ry="19.320755"
         d="m 197.34772,605.22473 a 15.87062,19.320755 0 1 1 -31.74124,0 15.87062,19.320755 0 1 1 31.74124,0 z" />
      <path
         transform="matrix(3.2500001,0,0,0.86666667,-599.97845,72.002286)"
         d="m 269.11051,607.2948 a 2.7601078,10.350405 0 1 1 -5.52021,0 2.7601078,10.350405 0 1 1 5.52021,0 z"
         sodipodi:ry="10.350405"
         sodipodi:rx="2.7601078"
         sodipodi:cy="607.2948"
         sodipodi:cx="266.3504"
         id="path4668"
         style="fill:#ffffff;fill-opacity:1;fill-rule:nonzero;stroke:none"
         sodipodi:type="arc" />
      <path
         sodipodi:type="arc"
         style="fill:#ffffff;fill-opacity:1;fill-rule:nonzero;stroke:none"
         id="path4670"
         sodipodi:cx="266.3504"
         sodipodi:cy="607.2948"
         sodipodi:rx="2.7601078"
         sodipodi:ry="10.350405"
         d="m 269.11051,607.2948 a 2.7601078,10.350405 0 1 1 -5.52021,0 2.7601078,10.350405 0 1 1 5.52021,0 z"
         transform="matrix(3.2500001,0,0,0.86666667,-695.97845,72.002286)" />
      <path
         sodipodi:type="arc"
         style="fill:#ffffff;fill-opacity:1;fill-rule:nonzero;stroke:none"
         id="path4672"
         sodipodi:cx="266.3504"
         sodipodi:cy="607.2948"
         sodipodi:rx="2.7601078"
         sodipodi:ry="10.350405"
         d="m 269.11051,607.2948 a 2.7601078,10.350405 0 1 1 -5.52021,0 2.7601078,10.350405 0 1 1 5.52021,0 z"
         transform="matrix(1.7500001,0,0,0.46666669,-212.593,323.06036)" />
      <path
         transform="matrix(1.7500001,0,0,0.46666669,-308.593,323.06036)"
         d="m 269.11051,607.2948 a 2.7601078,10.350405 0 1 1 -5.52021,0 2.7601078,10.350405 0 1 1 5.52021,0 z"
         sodipodi:ry="10.350405"
         sodipodi:rx="2.7601078"
         sodipodi:cy="607.2948"
         sodipodi:cx="266.3504"
         id="path4674"
         style="fill:#ffffff;fill-opacity:1;fill-rule:nonzero;stroke:none"
         sodipodi:type="arc" />
      <path
         sodipodi:nodetypes="sssss"
         inkscape:connector-curvature="0"
         id="path4676"
         d="m 227.70889,666.63708 c -8.92337,2.70997 -13.73422,17.04479 -17.9407,15.1806 -7.23658,-3.20703 -9.65604,-11.75085 -15.87062,-15.1806 -5.33842,-2.94622 11.08106,-11.04043 17.9407,-11.04043 6.85965,0 21.70497,9.26858 15.87062,11.04043 z"
         style="fill:#ff55dd;fill-opacity:1;fill-rule:nonzero;stroke:none"
         transform="translate(4,-8)" />
      <path
         transform="matrix(0.37499997,0,0,0.74999999,128.60379,163.89917)"
         d="m 213.21834,661.11688 a 2.0700808,5.5202155 0 1 1 -4.14017,0 2.0700808,5.5202155 0 1 1 4.14017,0 z"
         sodipodi:ry="5.5202155"
         sodipodi:rx="2.0700808"
         sodipodi:cy="661.11688"
         sodipodi:cx="211.14825"
         id="path4679"
         style="fill:#000000;fill-opacity:1;fill-rule:nonzero;stroke:none"
         sodipodi:type="arc" />
      <path
         sodipodi:type="arc"
         style="fill:#000000;fill-opacity:1;fill-rule:nonzero;stroke:none"
         id="path4681"
         sodipodi:cx="211.14825"
         sodipodi:cy="661.11688"
         sodipodi:rx="2.0700808"
         sodipodi:ry="5.5202155"
         d="m 213.21834,661.11688 a 2.0700808,5.5202155 0 1 1 -4.14017,0 2.0700808,5.5202155 0 1 1 4.14017,0 z"
         transform="matrix(0.37499997,0,0,0.74999999,140.60379,163.89917)" />
      <path
         sodipodi:nodetypes="ccc"
         inkscape:connector-curvature="0"
         id="path4683"
         d="m 213.90836,672.84736 -1.38006,31.74124 c 0,0 -52.44204,28.2911 -53.8221,-11.73046"
         style="fill:none;stroke:#000000;stroke-width:1px;stroke-linecap:butt;stroke-linejoin:miter;stroke-opacity:1" />
      <path
         sodipodi:nodetypes="cc"
         inkscape:connector-curvature="0"
         id="path4685"
         d="m 211.83828,703.89857 c 0,0 49.68193,31.05122 54.51213,-6.21024"
         style="fill:none;stroke:#000000;stroke-width:1px;stroke-linecap:butt;stroke-linejoin:miter;stroke-opacity:1" />
    </g>
  </g>
</svg>
