<?xml version="1.0" encoding="UTF-8" standalone="no"?>
<!-- Created with Inkscape (http://www.inkscape.org/) -->

<svg
   xmlns:dc="http://purl.org/dc/elements/1.1/"
   xmlns:cc="http://creativecommons.org/ns#"
   xmlns:rdf="http://www.w3.org/1999/02/22-rdf-syntax-ns#"
   xmlns:svg="http://www.w3.org/2000/svg"
   xmlns="http://www.w3.org/2000/svg"
   xmlns:sodipodi="http://sodipodi.sourceforge.net/DTD/sodipodi-0.dtd"
   xmlns:inkscape="http://www.inkscape.org/namespaces/inkscape"
   width="744.09448819"
   height="1052.3622047"
   id="svg2"
   version="1.1"
   inkscape:version="0.48.4 r9939"
   sodipodi:docname="Bunnybear.svg">
  <defs
     id="defs4" />
  <sodipodi:namedview
     id="base"
     pagecolor="#ffffff"
     bordercolor="#666666"
     borderopacity="1.0"
     inkscape:pageopacity="0.0"
     inkscape:pageshadow="2"
     inkscape:zoom="1.4492187"
     inkscape:cx="212.47927"
     inkscape:cy="628.9273"
     inkscape:document-units="px"
     inkscape:current-layer="layer1"
     showgrid="false"
     inkscape:window-width="1280"
     inkscape:window-height="697"
     inkscape:window-x="-8"
     inkscape:window-y="-8"
     inkscape:window-maximized="1" />
  <metadata
     id="metadata7">
    <rdf:RDF>
      <cc:Work
         rdf:about="">
        <dc:format>image/svg+xml</dc:format>
        <dc:type
           rdf:resource="http://purl.org/dc/dcmitype/StillImage" />
        <dc:title></dc:title>
      </cc:Work>
    </rdf:RDF>
  </metadata>
  <g
     inkscape:label="Layer 1"
     inkscape:groupmode="layer"
     id="layer1">
    <g
       id="g4079"
       inkscape:export-filename="C:\Users\spear\Desktop\Teddy\pictures\Bunnybear.png"
       inkscape:export-xdpi="90"
       inkscape:export-ydpi="90">
      <path
         id="path2989"
         d="m 211.14824,332.66406 c 0,17.14911 -4.63403,31.05121 -10.3504,31.05121 -5.71637,0 -10.35041,-13.9021 -10.35041,-31.05121 0,-17.14911 4.63404,-31.05121 10.35041,-31.05121 5.71637,0 10.3504,13.9021 10.3504,31.05121 z"
         style="fill:#ffd26c;fill-opacity:1;fill-rule:nonzero;stroke:#adf8a1;stroke-opacity:0"
         inkscape:connector-curvature="0" />
      <path
         inkscape:connector-curvature="0"
         style="fill:#ffd26c;fill-opacity:1;fill-rule:nonzero;stroke:#adf8a1;stroke-opacity:0"
         d="m 241.50943,332.66406 c 0,17.14911 -4.63403,31.05121 -10.3504,31.05121 -5.71637,0 -10.35041,-13.9021 -10.35041,-31.05121 0,-17.14911 4.63404,-31.05121 10.35041,-31.05121 5.71637,0 10.3504,13.9021 10.3504,31.05121 z"
         id="path3760" />
      <path
         inkscape:connector-curvature="0"
         id="rect3870"
         d="m 211.75848,399.52156 10.24638,0 0,15.12561 -10.24638,0 z"
         style="fill:#803300;fill-opacity:1;fill-rule:nonzero;stroke:#adf8a1;stroke-width:0.99999994;stroke-opacity:0" />
      <path
         inkscape:connector-curvature="0"
         id="path3762"
         d="m 216.36229,401.66402 c 19.05262,-0.27177 34.32597,-12.53935 34.11399,-27.4004 -0.21199,-14.86105 -15.82904,-26.68799 -34.88168,-26.41622 -19.05263,0.27178 -34.32598,12.53936 -34.114,27.40041 0.21199,14.86105 15.82905,26.68799 34.88169,26.41621 z"
         style="fill:#ffd26c;fill-opacity:1;fill-rule:nonzero;stroke:#adf8a1;stroke-opacity:0" />
      <path
         inkscape:connector-curvature="0"
         id="path3765"
         d="m 236.33423,326.45383 c 0,12.00438 -2.08532,21.73585 -4.65768,21.73585 -2.57236,0 -4.65768,-9.73147 -4.65768,-21.73585 0,-12.00438 2.08532,-21.73585 4.65768,-21.73585 2.57236,0 4.65768,9.73147 4.65768,21.73585 z"
         style="fill:#ffffff;fill-opacity:1;fill-rule:nonzero;stroke:#adf8a1;stroke-width:1;stroke-opacity:0" />
      <path
         style="fill:#ffffff;fill-opacity:1;fill-rule:nonzero;stroke:#adf8a1;stroke-width:1;stroke-opacity:0"
         d="m 205.62803,326.79884 c 0,12.00438 -2.08532,21.73585 -4.65768,21.73585 -2.57236,0 -4.65768,-9.73147 -4.65768,-21.73585 0,-12.00438 2.08532,-21.73585 4.65768,-21.73585 2.57236,0 4.65768,9.73147 4.65768,21.73585 z"
         id="path3770"
         inkscape:connector-curvature="0" />
      <g
         transform="matrix(1.391499,0,0,1.3680323,-80.428771,-131.8973)"
         id="g3796">
        <g
           id="g3782">
          <path
             transform="matrix(1,0,0,1.1428571,-5.5202156,-51.269296)"
             d="m 210.45823,362.50772 c 0,2.00073 -2.00808,3.62264 -4.48518,3.62264 -2.47709,0 -4.48517,-1.62191 -4.48517,-3.62264 0,-2.00073 2.00808,-3.62264 4.48517,-3.62264 2.4771,0 4.48518,1.62191 4.48518,3.62264 z"
             sodipodi:ry="3.6226416"
             sodipodi:rx="4.4851751"
             sodipodi:cy="362.50772"
             sodipodi:cx="205.97305"
             id="path3772"
             style="fill:#ffffff;fill-opacity:1;fill-rule:nonzero;stroke:#adf8a1;stroke-width:0.67797613;stroke-opacity:0"
             sodipodi:type="arc" />
          <path
             transform="matrix(4.5,0,0,1.4166666,-699.6011,-152.15181)"
             d="m 200.79785,363.71527 c 0,1.14328 -0.30894,2.07008 -0.69003,2.07008 -0.38109,0 -0.69003,-0.9268 -0.69003,-2.07008 0,-1.14327 0.30894,-2.07008 0.69003,-2.07008 0.38109,0 0.69003,0.92681 0.69003,2.07008 z"
             sodipodi:ry="2.0700808"
             sodipodi:rx="0.69002694"
             sodipodi:cy="363.71527"
             sodipodi:cx="200.10782"
             id="path3778"
             style="fill:#000000;fill-opacity:1;fill-rule:nonzero;stroke:#adf8a1;stroke-width:0.28705841;stroke-opacity:0"
             sodipodi:type="arc" />
        </g>
        <path
           sodipodi:type="arc"
           style="fill:#ffffff;fill-opacity:1;fill-rule:nonzero;stroke:#adf8a1;stroke-width:0.72478694;stroke-opacity:0"
           id="path3792"
           sodipodi:cx="202.39352"
           sodipodi:cy="363.32715"
           sodipodi:rx="0.90566039"
           sodipodi:ry="1.4231806"
           d="m 203.29918,363.32715 c 0,0.786 -0.40547,1.42318 -0.90566,1.42318 -0.50018,0 -0.90566,-0.63718 -0.90566,-1.42318 0,-0.786 0.40548,-1.42318 0.90566,-1.42318 0.50019,0 0.90566,0.63718 0.90566,1.42318 z"
           transform="translate(-0.08625337,-0.69002696)" />
      </g>
      <g
         transform="matrix(1.3670303,0,0,1.4206084,-42.933927,-150.06454)"
         id="g3802">
        <g
           id="g3804">
          <path
             sodipodi:type="arc"
             style="fill:#ffffff;fill-opacity:1;fill-rule:nonzero;stroke:#adf8a1;stroke-width:0.67123991;stroke-opacity:0"
             id="path3806"
             sodipodi:cx="205.97305"
             sodipodi:cy="362.50772"
             sodipodi:rx="4.4851751"
             sodipodi:ry="3.6226416"
             d="m 210.45823,362.50772 c 0,2.00073 -2.00808,3.62264 -4.48518,3.62264 -2.47709,0 -4.48517,-1.62191 -4.48517,-3.62264 0,-2.00073 2.00808,-3.62264 4.48517,-3.62264 2.4771,0 4.48518,1.62191 4.48518,3.62264 z"
             transform="matrix(1,0,0,1.1428571,-5.5202156,-51.269296)" />
          <path
             sodipodi:type="arc"
             style="fill:#000000;fill-opacity:1;fill-rule:nonzero;stroke:#adf8a1;stroke-width:0.28420627;stroke-opacity:0"
             id="path3808"
             sodipodi:cx="200.10782"
             sodipodi:cy="363.71527"
             sodipodi:rx="0.69002694"
             sodipodi:ry="2.0700808"
             d="m 200.79785,363.71527 c 0,1.14328 -0.30894,2.07008 -0.69003,2.07008 -0.38109,0 -0.69003,-0.9268 -0.69003,-2.07008 0,-1.14327 0.30894,-2.07008 0.69003,-2.07008 0.38109,0 0.69003,0.92681 0.69003,2.07008 z"
             transform="matrix(4.5,0,0,1.4166666,-699.6011,-152.15181)" />
        </g>
        <path
           transform="translate(-0.08625337,-0.69002696)"
           d="m 203.29918,363.32715 c 0,0.786 -0.40547,1.42318 -0.90566,1.42318 -0.50018,0 -0.90566,-0.63718 -0.90566,-1.42318 0,-0.786 0.40548,-1.42318 0.90566,-1.42318 0.50019,0 0.90566,0.63718 0.90566,1.42318 z"
           sodipodi:ry="1.4231806"
           sodipodi:rx="0.90566039"
           sodipodi:cy="363.32715"
           sodipodi:cx="202.39352"
           id="path3810"
           style="fill:#ffffff;fill-opacity:1;fill-rule:nonzero;stroke:#adf8a1;stroke-width:0.71758562;stroke-opacity:0"
           sodipodi:type="arc" />
      </g>
      <path
         sodipodi:nodetypes="sssss"
         inkscape:connector-curvature="0"
         id="path3812"
         d="m 241.76572,378.29693 c 0,3.90734 -13.18752,13.9058 -24.64009,13.9058 -11.45258,0 -25.61595,-10.24242 -25.61595,-14.14976 0,-3.90735 14.65129,5.85508 26.10387,5.85508 11.45257,0 24.15217,-9.51847 24.15217,-5.61112 z"
         style="fill:#ff0000;fill-opacity:1;fill-rule:nonzero;stroke:#adf8a1;stroke-opacity:0" />
      <path
         sodipodi:nodetypes="sssss"
         inkscape:connector-curvature="0"
         id="path3815"
         d="m 235.17875,380.00465 c 0.80217,1.40382 -9.51733,7.56281 -19.15096,7.56281 -9.63364,0 -16.32453,-6.31805 -16.95532,-7.80677 -1.00417,-2.36996 5.72883,2.95535 16.95532,3.90339 8.78351,0.74174 18.00967,-5.65668 19.15096,-3.65943 z"
         style="fill:#ffffff;fill-opacity:1;fill-rule:nonzero;stroke:#adf8a1;stroke-opacity:0" />
      <path
         sodipodi:nodetypes="sssss"
         inkscape:connector-curvature="0"
         id="path3818"
         d="m 220.78504,374.27155 c -2.60453,1.10431 -3.49827,3.64533 -4.3913,3.53744 -1.60967,-0.19446 -2.71532,-3.05341 -4.39131,-3.53744 -2.0046,-0.57893 1.96606,-3.53744 4.39131,-3.53744 2.42525,0 6.50651,2.6406 4.3913,3.53744 z"
         style="fill:#ff55dd;fill-opacity:1;fill-rule:nonzero;stroke:#adf8a1;stroke-opacity:0" />
      <path
         d="m 214.85714,373.76379 a 0.3018868,1.2506739 0 1 1 -0.60377,0 0.3018868,1.2506739 0 1 1 0.60377,0 z"
         sodipodi:ry="1.2506739"
         sodipodi:rx="0.3018868"
         sodipodi:cy="373.76379"
         sodipodi:cx="214.55525"
         id="path3821"
         style="fill:#000000;fill-opacity:1;fill-rule:nonzero;stroke:#adf8a1;stroke-opacity:0"
         sodipodi:type="arc" />
      <path
         transform="translate(3.277628,-0.08625337)"
         sodipodi:type="arc"
         style="fill:#000000;fill-opacity:1;fill-rule:nonzero;stroke:#adf8a1;stroke-opacity:0"
         id="path3823"
         sodipodi:cx="214.55525"
         sodipodi:cy="373.76379"
         sodipodi:rx="0.3018868"
         sodipodi:ry="1.2506739"
         d="m 214.85714,373.76379 a 0.3018868,1.2506739 0 1 1 -0.60377,0 0.3018868,1.2506739 0 1 1 0.60377,0 z" />
      <path
         inkscape:connector-curvature="0"
         id="path3843"
         d="m 216.41031,377.51138 0.21442,6.2191 0,0 z"
         style="fill:none;stroke:#000000;stroke-width:1px;stroke-linecap:butt;stroke-linejoin:miter;stroke-opacity:1" />
      <path
         sodipodi:nodetypes="cc"
         inkscape:connector-curvature="0"
         id="path3845"
         d="m 216.748,383.34998 c -2.89215,0.84999 -16.05961,-3.07247 -24.39931,-6.07682"
         style="fill:none;stroke:#000000;stroke-width:1px;stroke-linecap:butt;stroke-linejoin:miter;stroke-opacity:1" />
      <path
         style="fill:none;stroke:#000000;stroke-width:1px;stroke-linecap:butt;stroke-linejoin:miter;stroke-opacity:1"
         d="m 216.71526,382.93834 c -0.21869,2.46604 19.4216,-4.50108 24.74433,-5.27703"
         id="path3847"
         inkscape:connector-curvature="0"
         sodipodi:nodetypes="cc" />
      <g
         id="g3855">
        <path
           style="fill:none;stroke:#000000;stroke-width:1px;stroke-linecap:butt;stroke-linejoin:miter;stroke-opacity:1"
           d="m 242.88949,371.9956 c 0,0 28.63612,1.38006 29.32614,1.38006"
           id="path3849"
           inkscape:connector-curvature="0" />
        <path
           style="fill:none;stroke:#000000;stroke-width:1px;stroke-linecap:butt;stroke-linejoin:miter;stroke-opacity:1"
           d="m 245.6496,376.13577 26.04851,1.72506"
           id="path3851"
           inkscape:connector-curvature="0" />
        <path
           style="fill:none;stroke:#000000;stroke-width:1px;stroke-linecap:butt;stroke-linejoin:miter;stroke-opacity:1"
           d="m 244.44205,382.51852 25.7035,0.86253"
           id="path3853"
           inkscape:connector-curvature="0" />
      </g>
      <g
         transform="matrix(-1,0,0,1,431.10512,0)"
         id="g3860">
        <path
           inkscape:connector-curvature="0"
           id="path3862"
           d="m 242.88949,371.9956 c 0,0 28.63612,1.38006 29.32614,1.38006"
           style="fill:none;stroke:#000000;stroke-width:1px;stroke-linecap:butt;stroke-linejoin:miter;stroke-opacity:1" />
        <path
           inkscape:connector-curvature="0"
           id="path3864"
           d="m 245.6496,376.13577 26.04851,1.72506"
           style="fill:none;stroke:#000000;stroke-width:1px;stroke-linecap:butt;stroke-linejoin:miter;stroke-opacity:1" />
        <path
           inkscape:connector-curvature="0"
           id="path3866"
           d="m 244.44205,382.51852 25.7035,0.86253"
           style="fill:none;stroke:#000000;stroke-width:1px;stroke-linecap:butt;stroke-linejoin:miter;stroke-opacity:1" />
      </g>
      <path
         transform="matrix(0.76073621,0,0,1,22.908416,-5.3671501)"
         d="m 297.63286,452.9491 a 39.765705,39.277779 0 1 1 -79.53141,0 39.765705,39.277779 0 1 1 79.53141,0 z"
         sodipodi:ry="39.277779"
         sodipodi:rx="39.765705"
         sodipodi:cy="452.9491"
         sodipodi:cx="257.86716"
         id="path3873"
         style="fill:#502d16;fill-opacity:1;fill-rule:nonzero;stroke:#adf8a1;stroke-width:1.14652348;stroke-opacity:0"
         sodipodi:type="arc" />
      <g
         id="g3904">
        <path
           style="fill:#502d16;fill-opacity:1;fill-rule:nonzero;stroke:#adf8a1;stroke-opacity:0"
           d="m 199.07248,438.79935 c 0,4.98523 -13.98083,5.61111 -31.22705,5.61111 -17.24623,0 -38.11935,-20.60238 -35.61836,-21.22464 10.93193,-2.71993 15.44459,7.56281 29.27536,9.5145 17.07704,2.40977 37.57005,1.11379 37.57005,6.09903 z"
           id="path3875"
           inkscape:connector-curvature="0"
           sodipodi:nodetypes="sssss" />
        <path
           sodipodi:type="arc"
           style="fill:#502d16;fill-opacity:1;fill-rule:nonzero;stroke:#adf8a1;stroke-opacity:0"
           id="path3878"
           sodipodi:cx="132.71498"
           sodipodi:cy="420.99017"
           sodipodi:rx="10.246378"
           sodipodi:ry="10.246378"
           d="m 142.96136,420.99017 a 10.246378,10.246378 0 1 1 -20.49276,0 10.246378,10.246378 0 1 1 20.49276,0 z" />
        <path
           sodipodi:type="arc"
           style="fill:#ffb380;fill-opacity:1;fill-rule:nonzero;stroke:#adf8a1;stroke-width:0.83205026;stroke-opacity:0"
           id="path3880"
           sodipodi:cx="136.61836"
           sodipodi:cy="422.69788"
           sodipodi:rx="5.855073"
           sodipodi:ry="5.123189"
           d="m 142.47344,422.69788 a 5.855073,5.123189 0 1 1 -11.71015,0 5.855073,5.123189 0 1 1 11.71015,0 z"
           transform="matrix(1.1666666,0,0,1.2380953,-26.673108,-102.35007)" />
        <path
           sodipodi:type="arc"
           style="fill:#502d16;fill-opacity:1;fill-rule:nonzero;stroke:#adf8a1;stroke-width:0.89973539;stroke-opacity:0"
           id="path3882"
           sodipodi:cx="134.66667"
           sodipodi:cy="407.5723"
           sodipodi:rx="2.9275365"
           sodipodi:ry="4.1473432"
           d="m 137.59421,407.5723 a 2.9275365,4.1473432 0 1 1 -5.85507,0 2.9275365,4.1473432 0 1 1 5.85507,0 z"
           transform="matrix(1,0,0,1.2352941,0,-94.923521)" />
        <path
           transform="matrix(0.90781695,-0.41936664,0.51804114,1.1214209,-207.00556,10.550342)"
           d="m 137.59421,407.5723 a 2.9275365,4.1473432 0 1 1 -5.85507,0 2.9275365,4.1473432 0 1 1 5.85507,0 z"
           sodipodi:ry="4.1473432"
           sodipodi:rx="2.9275365"
           sodipodi:cy="407.5723"
           sodipodi:cx="134.66667"
           id="path3884"
           style="fill:#502d16;fill-opacity:1;fill-rule:nonzero;stroke:#adf8a1;stroke-width:0.89973539;stroke-opacity:0"
           sodipodi:type="arc" />
        <path
           sodipodi:type="arc"
           style="fill:#502d16;fill-opacity:1;fill-rule:nonzero;stroke:#adf8a1;stroke-width:0.89973539;stroke-opacity:0"
           id="path3886"
           sodipodi:cx="134.66667"
           sodipodi:cy="407.5723"
           sodipodi:rx="2.9275365"
           sodipodi:ry="4.1473432"
           d="m 137.59421,407.5723 a 2.9275365,4.1473432 0 1 1 -5.85507,0 2.9275365,4.1473432 0 1 1 5.85507,0 z"
           transform="matrix(0.5023954,-0.86463799,1.0680822,0.62060605,-381.938,282.73963)" />
        <path
           transform="matrix(-0.52692768,-0.84991012,1.0498889,-0.65091066,-213.30903,795.0236)"
           d="m 137.59421,407.5723 a 2.9275365,4.1473432 0 1 1 -5.85507,0 2.9275365,4.1473432 0 1 1 5.85507,0 z"
           sodipodi:ry="4.1473432"
           sodipodi:rx="2.9275365"
           sodipodi:cy="407.5723"
           sodipodi:cx="134.66667"
           id="path3888"
           style="fill:#502d16;fill-opacity:1;fill-rule:nonzero;stroke:#adf8a1;stroke-width:0.89973539;stroke-opacity:0"
           sodipodi:type="arc" />
      </g>
      <g
         inkscape:transform-center-y="24.550641"
         inkscape:transform-center-x="-16.326736"
         transform="matrix(-0.84883926,-0.52865102,0.52865102,-0.84883926,167.76838,900.48078)"
         id="g3913">
        <path
           sodipodi:nodetypes="sssss"
           inkscape:connector-curvature="0"
           id="path3915"
           d="m 199.07248,438.79935 c 0,4.98523 -13.98083,5.61111 -31.22705,5.61111 -17.24623,0 -38.11935,-20.60238 -35.61836,-21.22464 10.93193,-2.71993 15.44459,7.56281 29.27536,9.5145 17.07704,2.40977 37.57005,1.11379 37.57005,6.09903 z"
           style="fill:#502d16;fill-opacity:1;fill-rule:nonzero;stroke:#adf8a1;stroke-width:1;stroke-opacity:0" />
        <path
           d="m 142.96136,420.99017 c 0,5.65892 -4.58746,10.24638 -10.24638,10.24638 -5.65892,0 -10.24638,-4.58746 -10.24638,-10.24638 0,-5.65891 4.58746,-10.24637 10.24638,-10.24637 5.65892,0 10.24638,4.58746 10.24638,10.24637 z"
           sodipodi:ry="10.246378"
           sodipodi:rx="10.246378"
           sodipodi:cy="420.99017"
           sodipodi:cx="132.71498"
           id="path3917"
           style="fill:#502d16;fill-opacity:1;fill-rule:nonzero;stroke:#adf8a1;stroke-width:1;stroke-opacity:0"
           sodipodi:type="arc" />
        <path
           transform="matrix(1.1666666,0,0,1.2380953,-26.673108,-102.35007)"
           d="m 142.47344,422.69788 c 0,2.82946 -2.62141,5.12318 -5.85508,5.12318 -3.23367,0 -5.85507,-2.29372 -5.85507,-5.12318 0,-2.82946 2.6214,-5.12319 5.85507,-5.12319 3.23367,0 5.85508,2.29373 5.85508,5.12319 z"
           sodipodi:ry="5.123189"
           sodipodi:rx="5.855073"
           sodipodi:cy="422.69788"
           sodipodi:cx="136.61836"
           id="path3919"
           style="fill:#ffb380;fill-opacity:1;fill-rule:nonzero;stroke:#adf8a1;stroke-width:0.83205026;stroke-opacity:0"
           sodipodi:type="arc" />
        <path
           transform="matrix(1,0,0,1.2352941,0,-94.923521)"
           d="m 137.59421,407.5723 c 0,2.29051 -1.3107,4.14734 -2.92754,4.14734 -1.61683,0 -2.92753,-1.85683 -2.92753,-4.14734 0,-2.29052 1.3107,-4.14735 2.92753,-4.14735 1.61684,0 2.92754,1.85683 2.92754,4.14735 z"
           sodipodi:ry="4.1473432"
           sodipodi:rx="2.9275365"
           sodipodi:cy="407.5723"
           sodipodi:cx="134.66667"
           id="path3921"
           style="fill:#502d16;fill-opacity:1;fill-rule:nonzero;stroke:#adf8a1;stroke-width:0.89973539;stroke-opacity:0"
           sodipodi:type="arc" />
        <path
           sodipodi:type="arc"
           style="fill:#502d16;fill-opacity:1;fill-rule:nonzero;stroke:#adf8a1;stroke-width:0.89973539;stroke-opacity:0"
           id="path3923"
           sodipodi:cx="134.66667"
           sodipodi:cy="407.5723"
           sodipodi:rx="2.9275365"
           sodipodi:ry="4.1473432"
           d="m 137.59421,407.5723 c 0,2.29051 -1.3107,4.14734 -2.92754,4.14734 -1.61683,0 -2.92753,-1.85683 -2.92753,-4.14734 0,-2.29052 1.3107,-4.14735 2.92753,-4.14735 1.61684,0 2.92754,1.85683 2.92754,4.14735 z"
           transform="matrix(0.90781695,-0.41936664,0.51804114,1.1214209,-207.00556,10.550342)" />
        <path
           transform="matrix(0.5023954,-0.86463799,1.0680822,0.62060605,-381.938,282.73963)"
           d="m 137.59421,407.5723 c 0,2.29051 -1.3107,4.14734 -2.92754,4.14734 -1.61683,0 -2.92753,-1.85683 -2.92753,-4.14734 0,-2.29052 1.3107,-4.14735 2.92753,-4.14735 1.61684,0 2.92754,1.85683 2.92754,4.14735 z"
           sodipodi:ry="4.1473432"
           sodipodi:rx="2.9275365"
           sodipodi:cy="407.5723"
           sodipodi:cx="134.66667"
           id="path3925"
           style="fill:#502d16;fill-opacity:1;fill-rule:nonzero;stroke:#adf8a1;stroke-width:0.89973539;stroke-opacity:0"
           sodipodi:type="arc" />
        <path
           sodipodi:type="arc"
           style="fill:#502d16;fill-opacity:1;fill-rule:nonzero;stroke:#adf8a1;stroke-width:0.89973539;stroke-opacity:0"
           id="path3927"
           sodipodi:cx="134.66667"
           sodipodi:cy="407.5723"
           sodipodi:rx="2.9275365"
           sodipodi:ry="4.1473432"
           d="m 137.59421,407.5723 c 0,2.29051 -1.3107,4.14734 -2.92754,4.14734 -1.61683,0 -2.92753,-1.85683 -2.92753,-4.14734 0,-2.29052 1.3107,-4.14735 2.92753,-4.14735 1.61684,0 2.92754,1.85683 2.92754,4.14735 z"
           transform="matrix(-0.52692768,-0.84991012,1.0498889,-0.65091066,-213.30903,795.0236)" />
      </g>
      <path
         transform="translate(3.5202156,-7.4501348)"
         d="m 208.04313,507.06839 a 6.7277627,25.703505 0 1 1 -13.45552,0 6.7277627,25.703505 0 1 1 13.45552,0 z"
         sodipodi:ry="25.703505"
         sodipodi:rx="6.7277627"
         sodipodi:cy="507.06839"
         sodipodi:cx="201.31537"
         id="path3929"
         style="fill:#502d16;fill-opacity:1;fill-rule:nonzero;stroke:#adf8a1;stroke-opacity:0"
         sodipodi:type="arc" />
      <path
         sodipodi:type="arc"
         style="fill:#502d16;fill-opacity:1;fill-rule:nonzero;stroke:#adf8a1;stroke-opacity:0"
         id="path3931"
         sodipodi:cx="201.31537"
         sodipodi:cy="507.06839"
         sodipodi:rx="6.7277627"
         sodipodi:ry="25.703505"
         d="m 208.04313,507.06839 a 6.7277627,25.703505 0 1 1 -13.45552,0 6.7277627,25.703505 0 1 1 13.45552,0 z"
         transform="translate(29.520216,-7.4501348)" />
      <path
         transform="matrix(1.2068965,0,0,1,-36.615111,-4)"
         d="m 205.97304,524.66406 a 10.005391,7.4177899 0 1 1 -20.01078,0 10.005391,7.4177899 0 1 1 20.01078,0 z"
         sodipodi:ry="7.4177899"
         sodipodi:rx="10.005391"
         sodipodi:cy="524.66406"
         sodipodi:cx="195.96765"
         id="path3933"
         style="fill:#502d16;fill-opacity:1;fill-rule:nonzero;stroke:#adf8a1;stroke-width:0.91025901;stroke-opacity:0"
         sodipodi:type="arc" />
      <path
         sodipodi:type="arc"
         style="fill:#502d16;fill-opacity:1;fill-rule:nonzero;stroke:#adf8a1;stroke-width:0.91025901;stroke-opacity:0"
         id="path3935"
         sodipodi:cx="195.96765"
         sodipodi:cy="524.66406"
         sodipodi:rx="10.005391"
         sodipodi:ry="7.4177899"
         d="m 205.97304,524.66406 a 10.005391,7.4177899 0 1 1 -20.01078,0 10.005391,7.4177899 0 1 1 20.01078,0 z"
         transform="matrix(1.2068965,0,0,1,-10.615111,-4)" />
      <path
         inkscape:connector-curvature="0"
         id="path3937"
         d="m 188.37736,519.66137 c 1.48291,-0.74146 0.86573,-0.69002 1.72506,-0.69002 0.0837,0 1.02395,0.0111 1.03504,0 0.0813,-0.0813 -0.0813,-0.2637 0,-0.34502 0.0813,-0.0813 0.23001,0 0.34502,0 0.80503,0 1.61006,0 2.41509,0 0.0837,0 1.02395,-0.0111 1.03504,0 0.0813,0.0813 -0.0813,0.2637 0,0.34502 0.0813,0.0813 0.34502,-0.11501 0.34502,0 0,0.115 -0.23001,0 -0.34502,0"
         style="fill:none;stroke:#000000;stroke-width:1px;stroke-linecap:butt;stroke-linejoin:miter;stroke-opacity:1" />
      <path
         style="fill:none;stroke:#000000;stroke-width:1px;stroke-linecap:butt;stroke-linejoin:miter;stroke-opacity:1"
         d="m 189.06739,523.66137 c 1.48291,-0.74146 0.86573,-0.69002 1.72506,-0.69002 0.0837,0 1.02395,0.0111 1.03504,0 0.0813,-0.0813 -0.0813,-0.2637 0,-0.34502 0.0813,-0.0813 0.23001,0 0.34502,0 0.80503,0 1.61006,0 2.41509,0 0.0837,0 1.02395,-0.0111 1.03504,0 0.0813,0.0813 -0.0813,0.2637 0,0.34502 0.0813,0.0813 0.34502,-0.11501 0.34502,0 0,0.115 -0.23001,0 -0.34502,0"
         id="path3939"
         inkscape:connector-curvature="0" />
      <path
         inkscape:connector-curvature="0"
         id="path3952"
         d="m 215.08356,523.7045 c 1.48291,-0.74146 0.86573,-0.69002 1.72506,-0.69002 0.0837,0 1.02395,0.0111 1.03504,0 0.0813,-0.0813 -0.0813,-0.2637 0,-0.34502 0.0813,-0.0813 0.23001,0 0.34502,0 0.80503,0 1.61006,0 2.41509,0 0.0837,0 1.02395,-0.0111 1.03504,0 0.0813,0.0813 -0.0813,0.2637 0,0.34502 0.0813,0.0813 0.34502,-0.11501 0.34502,0 0,0.115 -0.23001,0 -0.34502,0"
         style="fill:none;stroke:#000000;stroke-width:1px;stroke-linecap:butt;stroke-linejoin:miter;stroke-opacity:1" />
      <path
         style="fill:none;stroke:#000000;stroke-width:1px;stroke-linecap:butt;stroke-linejoin:miter;stroke-opacity:1"
         d="m 215.06739,518.13576 c 1.48291,-0.74146 0.86573,-0.69002 1.72506,-0.69002 0.0837,0 1.02395,0.0111 1.03504,0 0.0813,-0.0813 -0.0813,-0.2637 0,-0.34502 0.0813,-0.0813 0.23001,0 0.34502,0 0.80503,0 1.61006,0 2.41509,0 0.0837,0 1.02395,-0.0111 1.03504,0 0.0813,0.0813 -0.0813,0.2637 0,0.34502 0.0813,0.0813 0.34502,-0.11501 0.34502,0 0,0.115 -0.23001,0 -0.34502,0"
         id="path3954"
         inkscape:connector-curvature="0" />
    </g>
  </g>
</svg>
