<?xml version="1.0" encoding="UTF-8" standalone="no"?>
<!-- Created with Inkscape (http://www.inkscape.org/) -->

<svg
   xmlns:dc="http://purl.org/dc/elements/1.1/"
   xmlns:cc="http://creativecommons.org/ns#"
   xmlns:rdf="http://www.w3.org/1999/02/22-rdf-syntax-ns#"
   xmlns:svg="http://www.w3.org/2000/svg"
   xmlns="http://www.w3.org/2000/svg"
   xmlns:xlink="http://www.w3.org/1999/xlink"
   xmlns:sodipodi="http://sodipodi.sourceforge.net/DTD/sodipodi-0.dtd"
   xmlns:inkscape="http://www.inkscape.org/namespaces/inkscape"
   width="744.09448819"
   height="1052.3622047"
   id="svg4616"
   version="1.1"
   inkscape:version="0.48.4 r9939"
   sodipodi:docname="Cute Little Elf.svg">
  <defs
     id="defs4618">
    <linearGradient
       id="linearGradient5174">
      <stop
         style="stop-color:#ffcb99;stop-opacity:1;"
         offset="0"
         id="stop5176" />
      <stop
         style="stop-color:#ff3b19;stop-opacity:1;"
         offset="1"
         id="stop5178" />
    </linearGradient>
    <linearGradient
       inkscape:collect="always"
       xlink:href="#linearGradient5174"
       id="linearGradient5560"
       gradientUnits="userSpaceOnUse"
       gradientTransform="matrix(0.86260971,0,0,0.99999999,47.967616,15.466824)"
       x1="396.23233"
       y1="376.37427"
       x2="492.03214"
       y2="371.83374" />
    <linearGradient
       inkscape:collect="always"
       xlink:href="#linearGradient5174"
       id="linearGradient5632"
       gradientUnits="userSpaceOnUse"
       gradientTransform="matrix(0.86260971,0,0,0.99999999,47.967616,15.466824)"
       x1="396.23233"
       y1="376.37427"
       x2="492.03214"
       y2="371.83374" />
    <linearGradient
       inkscape:collect="always"
       xlink:href="#linearGradient5174"
       id="linearGradient5649"
       gradientUnits="userSpaceOnUse"
       gradientTransform="matrix(0.86260971,0,0,0.99999999,49.60067,15.79343)"
       x1="396.23233"
       y1="376.37427"
       x2="492.03214"
       y2="371.83374" />
    <linearGradient
       inkscape:collect="always"
       xlink:href="#linearGradient5174"
       id="linearGradient5759"
       gradientUnits="userSpaceOnUse"
       gradientTransform="matrix(0.86260971,0,0,0.99999999,49.60067,15.79343)"
       x1="396.23233"
       y1="376.37427"
       x2="492.03214"
       y2="371.83374" />
    <linearGradient
       inkscape:collect="always"
       xlink:href="#linearGradient5174"
       id="linearGradient5781"
       gradientUnits="userSpaceOnUse"
       gradientTransform="matrix(0.86260971,0,0,0.99999999,49.60067,15.79343)"
       x1="396.23233"
       y1="376.37427"
       x2="492.03214"
       y2="371.83374" />
    <linearGradient
       inkscape:collect="always"
       xlink:href="#linearGradient5174"
       id="linearGradient5968"
       gradientUnits="userSpaceOnUse"
       gradientTransform="matrix(0.86260971,0,0,0.99999999,49.60067,15.79343)"
       x1="396.23233"
       y1="376.37427"
       x2="492.03214"
       y2="371.83374" />
    <linearGradient
       inkscape:collect="always"
       xlink:href="#linearGradient5174"
       id="linearGradient5989"
       gradientUnits="userSpaceOnUse"
       gradientTransform="matrix(0.86260971,0,0,0.99999999,49.60067,15.79343)"
       x1="396.23233"
       y1="376.37427"
       x2="492.03214"
       y2="371.83374" />
  </defs>
  <sodipodi:namedview
     id="base"
     pagecolor="#ffffff"
     bordercolor="#666666"
     borderopacity="1.0"
     inkscape:pageopacity="0.0"
     inkscape:pageshadow="2"
     inkscape:zoom="0.51735184"
     inkscape:cx="266.70458"
     inkscape:cy="789.56014"
     inkscape:document-units="px"
     inkscape:current-layer="g5708"
     showgrid="false"
     inkscape:window-width="638"
     inkscape:window-height="688"
     inkscape:window-x="-7"
     inkscape:window-y="0"
     inkscape:window-maximized="0" />
  <metadata
     id="metadata4621">
    <rdf:RDF>
      <cc:Work
         rdf:about="">
        <dc:format>image/svg+xml</dc:format>
        <dc:type
           rdf:resource="http://purl.org/dc/dcmitype/StillImage" />
        <dc:title></dc:title>
      </cc:Work>
    </rdf:RDF>
  </metadata>
  <g
     inkscape:label="Layer 1"
     inkscape:groupmode="layer"
     id="layer1">
    <g
       id="g5708">
      <g
         id="g5993">
        <g
           id="g5462"
           transform="translate(7.1758247,-0.59718868)">
          <path
             sodipodi:nodetypes="csssc"
             inkscape:connector-curvature="0"
             id="path5266"
             d="m 243.13099,497.55502 c -37.0817,0 -66.54815,0.15132 -66.54815,-7.72437 0,-7.87572 19.95955,-13.66613 57.04123,-13.66613 37.08167,0 76.64918,11.13803 76.64918,19.01377 0,17.92873 -29.11409,2.30854 -65.96804,2.37619"
             style="fill:#abc837;fill-opacity:1" />
          <g
             transform="translate(0,-2.7713851)"
             id="g5449">
            <path
               style="fill:#ffcb99;fill-opacity:1"
               d="m 184.28669,502.34691 c 0.74929,3.35166 -38.87861,6.80397 -38.87861,-1.34064 0,-8.14456 28.23242,-24.13152 41.5599,-24.13152 13.32748,0 10.05485,6.60248 10.05485,14.74703 0,8.09487 -10.67741,22.05016 -23.92305,22.1201"
               id="path5270"
               inkscape:connector-curvature="0"
               sodipodi:nodetypes="csssc" />
            <rect
               style="fill:#6c6753;fill-opacity:1"
               id="rect5268"
               width="36.197334"
               height="21.450272"
               x="474.19339"
               y="-209.08852"
               ry="1.1999999"
               rx="1.1999999"
               transform="matrix(0,1,-1,0,0,0)" />
          </g>
        </g>
        <g
           id="g5457"
           transform="translate(4.4044396,2.1741965)">
          <path
             style="fill:#89a02c;fill-opacity:1"
             d="m 417.72282,492.67335 c 34.7683,0 62.39648,-0.13285 62.39648,6.78097 0,6.91386 -18.71435,11.99707 -53.48265,11.99707 -34.7683,0 -71.86734,-9.77773 -71.86734,-16.69158 0,-15.7391 27.29778,-2.02661 61.85255,-2.086"
             id="path5274"
             inkscape:connector-curvature="0"
             sodipodi:nodetypes="csssc" />
          <path
             style="fill:#e6b484;fill-opacity:1"
             d="m 462.7145,486.19794 c -0.70442,-3.18484 36.55,-6.46535 36.55,1.27393 0,7.73922 -26.54144,22.93053 -39.07071,22.93053 -12.52923,0 -9.45262,-6.27389 -9.45262,-14.01309 0,-7.692 10.03792,-20.95275 22.49023,-21.01924"
             id="path5276"
             inkscape:connector-curvature="0"
             sodipodi:nodetypes="csssc" />
          <rect
             transform="matrix(0,-1,1,0,0,0)"
             style="fill:#6c6747;fill-opacity:1"
             id="rect5278"
             width="34.395863"
             height="20.165525"
             x="-516.77209"
             y="441.9187"
             ry="1.1872122"
             rx="1.2129253" />
        </g>
        <path
           sodipodi:nodetypes="csssc"
           inkscape:connector-curvature="0"
           id="path5289"
           d="m 253.50722,597.39048 c -24.2546,0 -43.5282,-0.1285 -43.5282,6.5588 0,7.65109 13.24959,16.65993 37.30987,12.3608 24.02805,-4.29337 50.13512,-13.99809 50.13512,-20.68542 0,-15.22345 -19.04312,1.82371 -43.14875,1.76626"
           style="fill:#abc837;fill-opacity:1" />
        <g
           id="g5426"
           transform="matrix(1.6970445,0,0,1.8207892,-151.79242,-489.73483)">
          <path
             style="fill:#c87137;fill-opacity:1"
             d="m 200.37878,640.9557 c -2.51207,-7.58696 -1.55122,-38.54179 2.72048,-31.53262 6.97235,11.44096 8.43309,-12.29136 10.88206,-12.36078 2.77776,-0.0786 -10.72624,4.70617 -2e-5,13.36984 7.7911,6.29298 -15.1299,29.89729 -13.55886,30.52264"
             id="path5283"
             inkscape:connector-curvature="0"
             sodipodi:nodetypes="csssc" />
          <path
             sodipodi:nodetypes="csssc"
             inkscape:connector-curvature="0"
             id="path5280"
             d="m 201.15608,640.45119 c -2.79039,0 -0.38866,-11.91155 -0.38866,-25.98286 0,-14.07135 14.11566,-16.14917 16.90604,-16.1447 2.77843,0.003 -6.14394,-1.05412 4.58243,7.60957 7.79111,6.29298 -19.12923,34.90077 -21.05599,35.02158"
             style="fill:#552200;fill-opacity:1" />
          <path
             transform="matrix(0,4.3691281,-3.3656324,0,2250.0433,-480.34523)"
             sodipodi:open="true"
             sodipodi:end="6.2745459"
             sodipodi:start="0"
             d="m 253.00437,605.70728 c 0,0.38264 -0.33605,0.69284 -0.75059,0.69284 -0.41453,0 -0.75058,-0.3102 -0.75058,-0.69284 0,-0.38265 0.33605,-0.69285 0.75058,-0.69285 0.41201,0 0.747,0.30656 0.75056,0.68686"
             sodipodi:ry="0.6928463"
             sodipodi:rx="0.75058347"
             sodipodi:cy="605.70728"
             sodipodi:cx="252.25378"
             id="path5285"
             style="fill:#000000;fill-opacity:1"
             sodipodi:type="arc" />
          <path
             transform="matrix(0,4.3691281,-3.3656324,0,2244.0193,-470.25478)"
             sodipodi:type="arc"
             style="fill:#000000;fill-opacity:1"
             id="path5287"
             sodipodi:cx="252.25378"
             sodipodi:cy="605.70728"
             sodipodi:rx="0.75058347"
             sodipodi:ry="0.6928463"
             d="m 253.00437,605.70728 c 0,0.38264 -0.33605,0.69284 -0.75059,0.69284 -0.41453,0 -0.75058,-0.3102 -0.75058,-0.69284 0,-0.38265 0.33605,-0.69285 0.75058,-0.69285 0.41201,0 0.747,0.30656 0.75056,0.68686"
             sodipodi:start="0"
             sodipodi:end="6.2745459"
             sodipodi:open="true" />
        </g>
        <path
           style="fill:#abc837;fill-opacity:1"
           d="m 342.22926,622.79695 c 0,23.59979 -0.12204,42.35304 6.22913,42.35304 7.26651,0 15.82252,-12.89188 11.73948,-36.30258 -4.07755,-23.37936 -13.29447,-48.78161 -19.64567,-48.78161 -14.45826,0 1.73205,18.529 1.67748,41.98385"
           id="path5293"
           inkscape:connector-curvature="0"
           sodipodi:nodetypes="csssc" />
        <g
           id="g5437"
           transform="matrix(1.6869513,0,0,1.6869513,-232.33832,-449.16389)">
          <g
             id="g5856">
            <path
               style="fill:#c87137;fill-opacity:1"
               d="m 382.28184,672.57548 c -7.20559,2.44426 -36.6045,1.50934 -29.94764,-2.64702 10.86589,-6.78411 -11.67355,-8.20543 -11.73948,-10.58828 -0.0748,-2.70276 4.46962,10.43665 12.69782,3e-5 5.97666,-7.58076 28.39452,14.72143 28.98844,13.1928"
               id="path5291"
               inkscape:connector-curvature="0"
               sodipodi:nodetypes="csssc" />
            <path
               sodipodi:nodetypes="csssc"
               inkscape:connector-curvature="0"
               id="path5295"
               d="m 381.8027,671.81918 c 0,2.71504 -11.31282,0.37817 -24.67685,0.37817 -13.36406,0 -15.33744,-13.73458 -15.33322,-16.44962 0.005,-2.70343 -1.45145,4.05439 6.77676,-6.38239 5.97667,-7.58077 33.59686,20.53646 33.71159,22.4112"
               style="fill:#552200;fill-opacity:1" />
            <path
               transform="matrix(4.1495172,0,0,3.274769,-682.65771,-1321.7533)"
               sodipodi:open="true"
               sodipodi:end="6.2745459"
               sodipodi:start="0"
               d="m 253.00437,605.70728 c 0,0.38264 -0.33605,0.69284 -0.75059,0.69284 -0.41453,0 -0.75058,-0.3102 -0.75058,-0.69284 0,-0.38265 0.33605,-0.69285 0.75058,-0.69285 0.41201,0 0.747,0.30656 0.75056,0.68686"
               sodipodi:ry="0.6928463"
               sodipodi:rx="0.75058347"
               sodipodi:cy="605.70728"
               sodipodi:cx="252.25378"
               id="path5297"
               style="fill:#000000;fill-opacity:1"
               sodipodi:type="arc" />
            <path
               transform="matrix(4.1495172,0,0,3.274769,-673.07445,-1315.892)"
               sodipodi:type="arc"
               style="fill:#000000;fill-opacity:1"
               id="path5299"
               sodipodi:cx="252.25378"
               sodipodi:cy="605.70728"
               sodipodi:rx="0.75058347"
               sodipodi:ry="0.6928463"
               d="m 253.00437,605.70728 c 0,0.38264 -0.33605,0.69284 -0.75059,0.69284 -0.41453,0 -0.75058,-0.3102 -0.75058,-0.69284 0,-0.38265 0.33605,-0.69285 0.75058,-0.69285 0.41201,0 0.747,0.30656 0.75056,0.68686"
               sodipodi:start="0"
               sodipodi:end="6.2745459"
               sodipodi:open="true" />
          </g>
        </g>
        <g
           id="g5848">
          <path
             id="path5239"
             d="m 324.46235,440.03482 c -29.42086,0 -23.43663,41.31473 -48.24997,73.35246 -5.1297,6.62323 -9.11304,13.26307 -12.19934,19.62843 19.08413,12.34904 44.56692,19.94123 72.64865,19.94123 13.42376,0 26.24586,-1.77672 38.08385,-4.92666 2.53674,-9.61781 3.5768,-21.06369 2.97164,-34.643 l 0,-0.62561 c -0.25263,-40.27422 -24.01354,-72.72685 -53.25483,-72.72685 z m -60.44931,92.98089 c -1.52771,3.15081 -2.84987,6.19471 -3.91005,9.22771 1.06028,-3.02634 2.38519,-6.08278 3.91005,-9.22771 z m -3.91005,9.22771 c -1.06245,3.03952 -1.88743,6.03005 -2.50243,8.9149 0.6173,-2.87206 1.44215,-5.88857 2.50243,-8.9149 z m -3.51904,15.01457 c -0.18167,1.6431 -0.27894,3.28041 -0.3128,4.84846 0.0365,-1.58589 0.12487,-3.18547 0.3128,-4.84846 z m 113.07853,4.22285 c -0.43099,0.83449 -0.86637,1.62766 -1.32942,2.42423 0.4598,-0.79172 0.90125,-1.59512 1.32942,-2.42423 z m -1.32942,2.42423 c -0.53937,0.92788 -1.1381,1.85951 -1.72042,2.73703 0.59368,-0.89326 1.17132,-1.79154 1.72042,-2.73703 z m -111.98371,1.56402 c 0.0268,0.57258 0.031,1.16023 0.0781,1.72042 -0.0468,-0.56232 -0.052,-1.14556 -0.0781,-1.72042 z m 0.391,4.61385 c 0.18694,1.22079 0.49463,2.3697 0.78201,3.51904 -0.28607,-1.14949 -0.59663,-2.2978 -0.78201,-3.51904 z m 106.11865,1.56402 c -0.55702,0.65223 -1.13465,1.25742 -1.72042,1.87682 0.58359,-0.61627 1.16536,-1.22804 1.72042,-1.87682 z m -8.9149,8.2111 c -1.65466,1.19949 -3.43109,2.32981 -5.23947,3.36264 1.82175,-1.04076 3.57377,-2.15274 5.23947,-3.36264 z m -13.84157,7.50729 c -1.904,0.75052 -3.91445,1.40919 -5.94327,2.03322 2.05437,-0.63111 4.01675,-1.27254 5.94327,-2.03322 z m -6.56887,2.26782 c -3.16295,0.94687 -6.48212,1.75563 -9.93152,2.42423 3.45528,-0.66847 6.76329,-1.47688 9.93152,-2.42423 z m -66.00158,0.0781 c 0.51976,0.3917 1.09058,0.74507 1.64222,1.09481 -0.5624,-0.35522 -1.11308,-0.696 -1.64222,-1.09481 z m 55.99186,2.34615 c -2.19708,0.42439 -4.41704,0.77368 -6.72528,1.09481 2.29,-0.31881 4.54464,-0.67438 6.72528,-1.09481 z m -50.8306,0.62561 c 0.63154,0.26766 1.29226,0.48457 1.95502,0.70381 -0.65728,-0.21646 -1.32856,-0.43975 -1.95502,-0.70381 z m 1.95502,0.70381 c 1.30822,0.43272 2.71954,0.7804 4.14465,1.01661 -1.43316,-0.23473 -2.83004,-0.58359 -4.14465,-1.01661 z m 33.861,0.70381 c -2.60463,0.22521 -5.25402,0.34388 -7.97649,0.4692 2.69839,-0.12512 5.39393,-0.24574 7.97649,-0.4692 z m -8.2893,0.4692 c -2.67704,0.11937 -5.42506,0.20245 -8.21109,0.23448 2.80837,-0.0325 5.5134,-0.11336 8.21109,-0.23448 z"
             style="fill:#cccccc;fill-opacity:1"
             inkscape:connector-curvature="0" />
          <path
             id="path5245"
             d="m 264.01304,533.01571 c -16.26507,33.54586 -5.48765,61.36157 19.23743,61.77872 47.61805,0.80341 81.39206,-8.45956 91.49507,-46.76415 -11.83799,3.14994 -24.66009,4.92666 -38.08385,4.92666 -28.08173,0 -53.56452,-7.59219 -72.64865,-19.94123 z"
             style="fill:#008000;fill-opacity:1"
             inkscape:connector-curvature="0" />
          <path
             sodipodi:nodetypes="ccccc"
             inkscape:connector-curvature="0"
             id="rect5255"
             d="m 268.80309,525.91304 c 35.29932,14.34655 72.73081,11.06929 108.03013,2.84291 l -2.13217,23.45389 C 333.4009,569.18149 294.96551,563.235 257.4315,550.07767 z"
             style="fill:#786721;fill-opacity:1" />
          <path
             sodipodi:nodetypes="cccc"
             inkscape:connector-curvature="0"
             id="path5262"
             d="m 336.666,470.81315 c 12.37811,11.4077 19.88525,-0.68374 19.90027,-0.71074 l -5.10786,37.18402 z"
             style="fill:#ffffff;stroke:#000000;stroke-width:0.99999994px;stroke-linecap:butt;stroke-linejoin:miter;stroke-opacity:1" />
          <path
             transform="matrix(3.6242082,0,0,4.0217614,-719.54537,-1775.347)"
             sodipodi:open="true"
             sodipodi:end="6.2745459"
             sodipodi:start="0"
             d="m 301.33872,576.35492 c 0,2.19599 -1.84378,3.97619 -4.1182,3.97619 -2.27442,0 -4.1182,-1.7802 -4.1182,-3.97619 0,-2.19599 1.84378,-3.97619 4.1182,-3.97619 2.26054,0 4.09852,1.75933 4.11805,3.94184"
             sodipodi:ry="3.9761941"
             sodipodi:rx="4.1182008"
             sodipodi:cy="576.35492"
             sodipodi:cx="297.22052"
             id="path5253"
             style="fill:#ffcc00;fill-opacity:1"
             sodipodi:type="arc" />
          <path
             sodipodi:nodetypes="csssc"
             inkscape:connector-curvature="0"
             id="path5236"
             d="m 392.49359,479.21664 c 0,4.485 0.81869,-3.22485 -0.68354,0.35307 -4.35228,10.36592 -39.10956,7.12941 -37.93678,-9.88621 0.30834,-4.47368 17.75657,-2.47156 21.53169,-2.47156 3.75207,0 16.71419,8.18323 16.7466,12.64069"
             style="fill:#000000;fill-opacity:0" />
        </g>
        <path
           style="fill:#e4a792;fill-opacity:1"
           d="m 328.03594,451.07077 c 0.4431,10.62571 11.16487,30.21007 20.70812,27.39747 16.21132,-4.77782 25.68306,-35.20525 25.23996,-45.83095 -0.44309,-10.6257 4.51851,-4.88967 -5.39629,-4.44841 -9.85428,0.43857 -34.95534,-11.85058 -34.6001,-1.28633"
           id="path5233"
           inkscape:connector-curvature="0"
           sodipodi:nodetypes="csssc" />
        <path
           style="fill:#ffcb99;fill-opacity:1"
           d="m 291.9219,370.12262 c 0,31.88767 43.92284,71.05518 77.78725,71.05518 33.86444,0 44.84671,-39.16751 44.84671,-71.05518 0,-31.88765 -27.45255,-57.73773 -61.31699,-57.73773 -33.86441,0 -61.31697,25.85008 -61.31697,57.73773 z"
           id="path4633"
           inkscape:connector-curvature="0"
           sodipodi:nodetypes="sssss" />
        <path
           style="fill:url(#linearGradient5989);fill-opacity:1"
           d="m 378.1923,392.72145 c 2.95446,3.24376 -1.47468,7.30456 13.07984,9.03592 15.19199,1.80718 45.83531,-1.30794 47.35377,-11.7467 1.64536,-11.31095 -27.23119,-5.42154 -41.85732,-5.42154 -14.62614,0 -21.53073,4.88856 -18.57629,8.13232 z"
           id="path5166"
           inkscape:connector-curvature="0"
           sodipodi:nodetypes="sssss" />
        <g
           id="g5659"
           transform="matrix(2.9298699,0,0,1.5476923,-777.19747,-182.77522)">
          <path
             transform="matrix(-0.85090853,0,0,0.87905789,674.55538,109.30658)"
             d="m 327.903,285.02802 c 0,3.97388 -1.38063,7.19536 -3.08373,7.19536 -1.70309,0 -3.08372,-3.22148 -3.08372,-7.19536 0,-3.97389 1.38063,-7.19537 3.08372,-7.19537 1.7031,0 3.08373,3.22148 3.08373,7.19537 z"
             sodipodi:ry="7.195364"
             sodipodi:rx="3.0837274"
             sodipodi:cy="285.02802"
             sodipodi:cx="324.81927"
             id="path5162"
             style="fill:#000000;fill-opacity:1"
             sodipodi:type="arc" />
          <path
             transform="matrix(-0.85090853,0,0,0.87905789,663.62217,95.752698)"
             d="m 315.05415,299.41873 c 0,1.98695 -0.46021,3.59768 -1.0279,3.59768 -0.5677,0 -1.02791,-1.61073 -1.02791,-3.59768 0,-1.98694 0.46021,-3.59768 1.02791,-3.59768 0.56769,0 1.0279,1.61074 1.0279,3.59768 z"
             sodipodi:ry="3.597682"
             sodipodi:rx="1.0279092"
             sodipodi:cy="299.41873"
             sodipodi:cx="314.02625"
             id="path5169"
             style="fill:#ffffff;fill-opacity:1"
             sodipodi:type="arc" />
        </g>
        <g
           id="g5655"
           transform="matrix(1.5645101,0,0,1.3035128,-176.47536,-100.69129)">
          <path
             transform="matrix(-0.85090853,0,0,0.87905789,665.80881,106.5958)"
             d="m 397.28687,291.70941 c 0,4.54159 -3.33652,8.22327 -7.45234,8.22327 -4.11581,0 -7.45234,-3.68168 -7.45234,-8.22327 0,-4.54159 3.33653,-8.22327 7.45234,-8.22327 4.11582,0 7.45234,3.68168 7.45234,8.22327 z"
             sodipodi:ry="8.2232733"
             sodipodi:rx="7.4523411"
             sodipodi:cy="291.70941"
             sodipodi:cx="389.83453"
             id="path5164"
             style="fill:#000000;fill-opacity:1"
             sodipodi:type="arc" />
          <path
             inkscape:connector-curvature="0"
             id="path5171"
             d="m 328.19134,361.44398 c 0,1.8714 0.93005,3.38847 2.07731,3.38847 1.14726,0 2.07731,-1.51707 2.07731,-3.38847 0,-1.8714 -0.93005,-3.38847 -2.07731,-3.38847 -1.14726,0 -2.07731,1.51707 -2.07731,3.38847 z"
             style="fill:#ffffff;fill-opacity:1" />
        </g>
        <path
           style="fill:#803300;fill-opacity:1"
           d="m 379.26833,361.18762 c 0,0.6519 4.01192,-4.82878 7.16705,-4.82878 3.15512,0 11.5296,3.33456 11.5296,2.68266 0,-0.6519 -8.58222,-4.8288 -11.73734,-4.8288 -3.15513,0 -6.95931,6.32302 -6.95931,6.97492 z"
           id="path5184"
           inkscape:connector-curvature="0"
           sodipodi:nodetypes="sssss" />
        <path
           style="fill:#803300;fill-opacity:1"
           d="m 333.20311,361.10596 c 0,1.24453 7.75431,-3.75574 11.42573,-3.75574 3.67142,0 9.34834,3.28337 9.34834,2.03883 0,-1.24454 -4.84595,-3.97034 -8.51738,-3.97034 -3.67141,0 -12.25669,4.4427 -12.25669,5.68725 z"
           id="path5187"
           inkscape:connector-curvature="0"
           sodipodi:nodetypes="sssss" />
        <path
           sodipodi:type="arc"
           style="opacity:0.66420001;fill:#ff8080;fill-opacity:1"
           id="path5192"
           sodipodi:cx="386.59528"
           sodipodi:cy="343.99072"
           sodipodi:rx="8.9111004"
           sodipodi:ry="8.6669607"
           d="m 395.50638,343.99072 c 0,4.78663 -3.98964,8.66696 -8.9111,8.66696 -4.92147,0 -8.9111,-3.88033 -8.9111,-8.66696 0,-4.78663 3.98963,-8.66696 8.9111,-8.66696 4.89142,0 8.86851,3.83485 8.91076,8.59209"
           sodipodi:start="0"
           sodipodi:end="6.2745459"
           sodipodi:open="true"
           transform="matrix(-0.85090853,0,0,0.87905789,661.54476,93.391955)" />
        <path
           style="fill:#aa0000;fill-opacity:1"
           d="m 344.55648,406.59453 c 0,4.73696 15.13211,23.61974 25.29023,23.61974 10.15811,0 27.8448,-17.29934 27.8448,-22.0363 0,-4.73694 -17.94215,10.42436 -28.10026,10.42436 -10.09611,0 -24.69141,-15.99804 -24.77863,-11.29018"
           id="path5194"
           inkscape:connector-curvature="0"
           sodipodi:nodetypes="csssc" />
        <path
           style="fill:#ffffff;fill-opacity:1"
           d="m 345.19045,407.02248 c 0,0.92645 19.58577,15.91169 24.80592,15.91169 5.22014,0 26.81325,-14.54689 26.81325,-15.47335 0,-0.92646 -21.59311,9.77727 -26.81325,9.77727 -5.18829,0 -24.94137,-11.69836 -24.98619,-10.77759"
           id="path5199"
           inkscape:connector-curvature="0"
           sodipodi:nodetypes="csssc" />
        <path
           style="fill:#8a916f;fill-opacity:1"
           d="m 327.878,324.21031 c 0,13.39812 12.9397,24.25944 28.90165,24.25944 15.96194,0 41.5461,-4.2825 41.5461,-17.68061 0,-13.39811 -25.58416,-30.83826 -41.5461,-30.83826 -15.86452,0 -43.57561,15.66812 -43.71267,28.98396"
           id="path5204"
           inkscape:connector-curvature="0"
           sodipodi:nodetypes="csssc" />
        <path
           style="fill:#ffcc00;fill-opacity:1"
           d="m 315.04217,290.82114 c 1.03295,0 3.43425,2.47775 6.30204,6.01605 l 0.13295,5.35676 c 0.0744,-0.0155 0.43438,-0.39014 1.70182,-3.04923 6.72678,8.74321 14.8909,21.51507 14.8909,23.65215 0,1.23675 0.25335,2.01672 0.42546,2.38994 -0.19743,-0.25467 -0.5885,-0.67863 -1.35614,-1.31859 -1.20211,-1.00217 -7.81782,-8.54279 -13.88045,-14.3671 l 1.96773,-0.76917 c 0,0 0.16412,-0.2191 -3.51,-0.68677 -3.3361,-3.07798 -6.33208,-5.39756 -7.92408,-5.43917 l 3.85568,-1.48341 c -0.0524,-0.0921 -0.78081,-0.5022 -7.49864,-1.15376 l -3.90886,-3.24153 c 0.0304,-3.27774 5.28165,-5.90617 8.80159,-5.90617 z"
           id="path5210"
           inkscape:connector-curvature="0" />
        <path
           style="fill:#803300;fill-opacity:1"
           d="m 281.73004,372.37517 c 0,15.04094 34.76939,52.25993 41.91789,52.25993 7.14849,0 -10.33104,-25.68746 -10.33104,-40.72841 0,-15.04095 -0.5701,-45.63544 -7.71859,-45.63544 -7.10486,0 -23.80639,19.16538 -23.86777,34.11397"
           id="path5227"
           inkscape:connector-curvature="0"
           sodipodi:nodetypes="csssc" />
        <path
           style="fill:#803300;fill-opacity:1"
           d="m 406.17749,342.6876 c 0,6.23319 3.71457,31.89572 7.12486,31.89572 3.41028,0 6.17487,-18.30198 6.17487,-24.53517 0,-6.23319 -10.36443,-11.77689 -13.77472,-11.77689 -3.38948,0 -1.39546,5.97518 -1.42474,12.17009"
           id="path5224"
           inkscape:connector-curvature="0"
           sodipodi:nodetypes="csssc" />
        <path
           sodipodi:type="arc"
           style="fill:#8a916f;fill-opacity:1"
           id="path5202"
           sodipodi:cx="373.62201"
           sodipodi:cy="244.61687"
           sodipodi:rx="71.752411"
           sodipodi:ry="10.401977"
           d="m 445.37442,244.61687 c 0,5.74485 -32.12465,10.40197 -71.75241,10.40197 -39.62776,0 -71.75241,-4.65712 -71.75241,-10.40197 0,-5.74486 32.12465,-10.40198 71.75241,-10.40198 39.38589,0 71.40947,4.60254 71.74973,10.31211"
           sodipodi:start="0"
           sodipodi:end="6.2745459"
           sodipodi:open="true"
           transform="matrix(-1.0724469,0,0,1.1649443,756.02429,51.36299)" />
        <path
           style="fill:#445500;fill-opacity:1"
           d="m 394.53241,320.25149 c -26.25233,4.11399 -52.14339,5.66478 -78.39573,0.04 l -5.0005,10.0638 c 25.71873,4.47334 62.45624,3.87239 88.17498,0.37323 z"
           id="rect5207"
           inkscape:connector-curvature="0"
           sodipodi:nodetypes="ccccc" />
        <path
           style="fill:#ffcb99;fill-opacity:1"
           d="m 295.26728,362.43843 c 0,3.72636 1.05943,9.44605 6.17486,9.44605 5.11543,0 16.38716,4.83045 16.38716,1.10408 0,-3.72636 -7.94679,-15.57985 -13.06223,-15.57985 -5.08421,0 -9.45553,1.5133 -9.49945,5.21677"
           id="path5230"
           inkscape:connector-curvature="0"
           sodipodi:nodetypes="csssc" />
      </g>
    </g>
  </g>
</svg>
