<?xml version="1.0" encoding="UTF-8" standalone="no"?>
<!-- Created with Inkscape (http://www.inkscape.org/) -->

<svg
   xmlns:dc="http://purl.org/dc/elements/1.1/"
   xmlns:cc="http://creativecommons.org/ns#"
   xmlns:rdf="http://www.w3.org/1999/02/22-rdf-syntax-ns#"
   xmlns:svg="http://www.w3.org/2000/svg"
   xmlns="http://www.w3.org/2000/svg"
   xmlns:xlink="http://www.w3.org/1999/xlink"
   xmlns:sodipodi="http://sodipodi.sourceforge.net/DTD/sodipodi-0.dtd"
   xmlns:inkscape="http://www.inkscape.org/namespaces/inkscape"
   width="744.09448819"
   height="1052.3622047"
   id="svg2"
   version="1.1"
   inkscape:version="0.48.4 r9939"
   sodipodi:docname="New document 1">
  <defs
     id="defs4">
    <linearGradient
       id="linearGradient5826">
      <stop
         id="stop5828"
         offset="0"
         style="stop-color:#d22e3f;stop-opacity:1" />
      <stop
         id="stop5830"
         offset="1"
         style="stop-color:#2ec9ab;stop-opacity:1" />
    </linearGradient>
    <linearGradient
       id="linearGradient5802">
      <stop
         style="stop-color:#ff0000;stop-opacity:1;"
         offset="0"
         id="stop5804" />
      <stop
         style="stop-color:#00ffd8;stop-opacity:1;"
         offset="1"
         id="stop5806" />
    </linearGradient>
    <inkscape:perspective
       sodipodi:type="inkscape:persp3d"
       inkscape:vp_x="-372.04724 : 175.3937 : 0"
       inkscape:vp_y="0 : 1000 : 0"
       inkscape:vp_z="372.04724 : 175.3937 : 0"
       inkscape:persp3d-origin="376.18741 : 336.98685 : 1"
       id="perspective5659" />
    <inkscape:perspective
       sodipodi:type="inkscape:persp3d"
       inkscape:vp_x="-372.04724 : 175.3937 : 0"
       inkscape:vp_y="0 : 1000 : 0"
       inkscape:vp_z="372.04724 : 175.3937 : 0"
       inkscape:persp3d-origin="372.04724 : 350.78739 : 1"
       id="perspective3001" />
    <radialGradient
       inkscape:collect="always"
       xlink:href="#linearGradient5826"
       id="radialGradient5808"
       cx="33.121292"
       cy="89.765877"
       fx="33.121292"
       fy="89.765877"
       r="465.77918"
       gradientTransform="matrix(2.8653473,1.7910791,-0.24880671,0.39809471,-39.448359,227.2555)"
       gradientUnits="userSpaceOnUse" />
    <linearGradient
       inkscape:collect="always"
       xlink:href="#linearGradient5802"
       id="linearGradient5824"
       x1="13.838422"
       y1="529.96796"
       x2="945.39679"
       y2="529.96796"
       gradientUnits="userSpaceOnUse"
       spreadMethod="pad" />
  </defs>
  <sodipodi:namedview
     id="base"
     pagecolor="#ffffff"
     bordercolor="#666666"
     borderopacity="1.0"
     inkscape:pageopacity="0.0"
     inkscape:pageshadow="2"
     inkscape:zoom="0.72460937"
     inkscape:cx="576.45725"
     inkscape:cy="640.0907"
     inkscape:document-units="px"
     inkscape:current-layer="layer1"
     showgrid="false"
     inkscape:window-width="1280"
     inkscape:window-height="697"
     inkscape:window-x="-8"
     inkscape:window-y="-8"
     inkscape:window-maximized="1" />
  <metadata
     id="metadata7">
    <rdf:RDF>
      <cc:Work
         rdf:about="">
        <dc:format>image/svg+xml</dc:format>
        <dc:type
           rdf:resource="http://purl.org/dc/dcmitype/StillImage" />
        <dc:title></dc:title>
      </cc:Work>
    </rdf:RDF>
  </metadata>
  <g
     inkscape:label="Layer 1"
     inkscape:groupmode="layer"
     id="layer1">
    <g
       sodipodi:type="inkscape:box3d"
       style="fill:#6c5353;fill-opacity:1;fill-rule:nonzero;stroke:#c83737"
       id="g3003"
       inkscape:perspectiveID="#perspective3001"
       inkscape:corner0="0.39683377 : 0.20763314 : 0 : 1"
       inkscape:corner7="0.017316672 : -0.048221785 : 0.25 : 1">
      <path
         sodipodi:type="inkscape:box3dside"
         id="path3015"
         style="fill:#e9e9ff;fill-rule:evenodd;stroke:none"
         inkscape:box3dsidetype="11"
         d="m 317.41814,380.49108 141.19829,66.56491 0,255.85493 -141.19829,-66.56491 z" />
      <path
         sodipodi:type="inkscape:box3dside"
         id="path3005"
         style="fill:#353564;fill-rule:evenodd;stroke:none"
         inkscape:box3dsidetype="6"
         d="m 224.40633,424.33951 0,255.85492 93.01181,-43.84842 0,-255.85493 z" />
      <path
         sodipodi:type="inkscape:box3dside"
         id="path3013"
         style="fill:#afafde;fill-rule:evenodd;stroke:none"
         inkscape:box3dsidetype="13"
         d="m 224.40633,680.19443 141.19829,66.56491 93.01181,-43.84842 -141.19829,-66.56491 z" />
      <path
         sodipodi:type="inkscape:box3dside"
         id="path3007"
         style="fill:#4d4d9f;fill-rule:evenodd;stroke:none"
         inkscape:box3dsidetype="5"
         d="m 224.40633,424.33951 141.19829,66.56491 93.01181,-43.84843 -141.19829,-66.56491 z" />
      <path
         sodipodi:type="inkscape:box3dside"
         id="path3011"
         style="fill:#d7d7ff;fill-rule:evenodd;stroke:none"
         inkscape:box3dsidetype="14"
         d="m 365.60462,490.90442 0,255.85492 93.01181,-43.84842 0,-255.85493 z" />
      <path
         sodipodi:type="inkscape:box3dside"
         id="path3009"
         style="fill:#ffffff"
         inkscape:box3dsidetype="3"
         d="m 224.40633,424.33951 141.19829,66.56491 0,255.85492 -141.19829,-66.56491 z" />
    </g>
    <path
       style="fill:#6c5353;stroke:#000000;stroke-width:1px;stroke-linecap:butt;stroke-linejoin:miter;stroke-opacity:1"
       d="m 298.09164,579.00366 c 0.48436,-1.72984 2.57076,-0.20054 2.87512,0.80504 0.82478,2.72504 -2.05908,4.85985 -4.48518,4.94519 -4.33974,0.15264 -7.27285,-4.14009 -7.01527,-8.16533 0.37801,-5.9072 6.2408,-9.73375 11.84547,-9.08534 7.47014,0.86422 12.21365,8.34738 11.15542,15.52561 -1.33166,9.03307 -10.4565,14.70308 -19.20576,13.2255 -10.59653,-1.78954 -17.19798,-12.56698 -15.29558,-22.88591 2.24192,-12.16049 14.67831,-19.6963 26.56606,-17.36565 13.72487,2.69083 22.19691,16.7902 19.43573,30.2462 -3.13744,15.28956 -18.90249,24.69913 -33.92634,21.50581 -16.8545,-3.58243 -27.20252,-21.01507 -23.57589,-37.60649 4.02624,-18.41962 23.12787,-29.70676 41.28663,-25.64597"
       id="path4871" />
    <path
       style="fill:#6c5353;fill-opacity:1;fill-rule:nonzero;stroke:#6c5353;stroke-opacity:1"
       inkscape:transform-center-x="-0.6473769"
       inkscape:transform-center-y="-5.9704416"
       d="M 11.04042,585.90395 242.2421,262.20366 795.11475,499.40835 435.04955,246.39479 -13.253792,601.82968 176.6469,260.21123 275.92548,376.29108 190.34558,222.03586 97.318666,853.66622 230.88565,223.26724 z"
       id="path4874"
       inkscape:connector-curvature="0"
       sodipodi:nodetypes="ccccccccccc" />
    <g
       sodipodi:type="inkscape:box3d"
       style="fill:#ff00ff;fill-opacity:1;fill-rule:nonzero;stroke:#ff00ff;stroke-opacity:1"
       id="g5645"
       inkscape:perspectiveID="#perspective5659"
       inkscape:corner0="0.031859314 : 0.2480883 : 0 : 1"
       inkscape:corner7="-0.057165117 : 0.19055977 : 0.12067129 : 1">
      <path
         sodipodi:type="inkscape:box3dside"
         id="path5657"
         style="fill:#ff00ff;fill-rule:evenodd;stroke:#ff00ff;stroke-opacity:1"
         inkscape:box3dsidetype="11"
         d="m 409.22966,440.53413 33.12129,15.61432 0,57.52853 -33.12129,-15.61432 z" />
      <path
         sodipodi:type="inkscape:box3dside"
         id="path5647"
         style="fill:#ff00ff;fill-rule:evenodd;stroke:#ff00ff;stroke-opacity:1"
         inkscape:box3dsidetype="6"
         d="m 364.33424,461.69911 0,57.52853 44.89542,-21.16498 0,-57.52853 z" />
      <path
         sodipodi:type="inkscape:box3dside"
         id="path5655"
         style="fill:#ff00ff;fill-rule:evenodd;stroke:#ff00ff;stroke-opacity:1"
         inkscape:box3dsidetype="13"
         d="m 364.33424,519.22764 33.12129,15.61432 44.89542,-21.16498 -33.12129,-15.61432 z" />
      <path
         sodipodi:type="inkscape:box3dside"
         id="path5649"
         style="fill:#ff00ff;fill-rule:evenodd;stroke:#ff00ff;stroke-opacity:1"
         inkscape:box3dsidetype="5"
         d="m 364.33424,461.69911 33.12129,15.61432 44.89542,-21.16498 -33.12129,-15.61432 z" />
      <path
         sodipodi:type="inkscape:box3dside"
         id="path5653"
         style="fill:#ff00ff;fill-rule:evenodd;stroke:#ff00ff;stroke-opacity:1"
         inkscape:box3dsidetype="14"
         d="m 397.45553,477.31343 0,57.52853 44.89542,-21.16498 0,-57.52853 z" />
      <path
         sodipodi:type="inkscape:box3dside"
         id="path5651"
         style="fill:#ff00ff;stroke:#ff00ff;stroke-opacity:1"
         inkscape:box3dsidetype="3"
         d="m 364.33424,461.69911 33.12129,15.61432 0,57.52853 -33.12129,-15.61432 z" />
    </g>
    <path
       style="fill:none;stroke:#000000;stroke-width:1px;stroke-linecap:butt;stroke-linejoin:miter;stroke-opacity:1"
       d="m 397.45553,536.22202 -1.38006,-62.10242 -33.12129,-9.66038 34.50135,12.42048 45.54177,-22.08086"
       id="path5665"
       inkscape:connector-curvature="0" />
    <g
       id="g5717"
       style="fill-opacity:1;fill:url(#radialGradient5808);stroke:url(#linearGradient5824);stroke-opacity:1"
       inkscape:export-filename="C:\Users\spear\thing.png"
       inkscape:export-xdpi="90"
       inkscape:export-ydpi="90">
      <path
         inkscape:connector-curvature="0"
         d="m 31.024983,314.29396 c 11.082932,3.31716 22.289875,6.19289 33.391514,9.4462 11.288858,3.19375 22.332464,7.07721 33.241225,11.37353 6.545958,2.40799 12.900758,5.33083 19.576378,7.38479 4.48864,1.38107 5.96961,1.58182 10.73521,2.60641 13.98739,3.08982 28.24956,4.25814 42.48083,5.53778 11.83286,1.12928 23.71235,1.51322 35.59066,1.73244 11.73083,0.11653 23.45296,0.75095 35.1537,1.575 12.23118,0.8495 24.49125,1.05305 36.74642,1.21797 10.34878,0.11287 20.69781,0.0113 31.04668,-0.007 7.57052,-0.14812 15.15456,0.19385 22.71454,-0.28376 5.2242,-0.58871 10.58028,-0.40898 15.66798,-1.83678 4.89173,-1.73359 9.99203,-2.57547 15.12931,-3.14854 3.88533,-0.6297 7.70827,-1.46205 11.47777,-2.58859 4.3101,-1.08632 8.37677,-2.81115 12.72005,-3.80061 3.49775,-1.04449 6.88018,-2.52351 10.09753,-4.24516 -31.3411,17.17956 -15.89323,10.55723 -10.62209,4.8233 1.65389,-1.83234 2.70517,-3.82198 3.22115,-6.22117 0.30295,-2.86309 -0.65257,-5.55656 -1.7706,-8.13557 -1.01365,-2.11157 -2.47672,-3.39923 -4.52993,-4.43566 -2.64022,-0.62516 -5.17407,-1.58071 -7.8476,-2.0787 -2.61472,-0.39545 -5.26569,-0.40987 -7.904,-0.43338 -2.78634,-0.2847 -5.42875,0.30045 -8.14776,0.76832 -2.87168,0.23831 -5.58377,1.17122 -8.43922,1.53282 -3.15996,0.68893 -6.13444,1.92485 -9.29498,2.61508 -2.32591,1.17812 -4.83783,1.62512 -7.40485,1.85946 -2.88177,0.86591 -5.77829,1.62896 -8.66823,2.48312 -5.32292,1.35043 -10.75815,2.13645 -16.17187,3.0551 -5.52495,1.25678 -11.10994,2.20862 -16.64156,3.42683 -5.83606,1.40941 -11.6097,3.04152 -17.43126,4.50396 -4.36703,1.40393 -8.87236,2.53545 -12.8972,4.77793 -0.6898,0.40003 -1.37957,0.80013 -2.0694,1.2001 -9.13993,5.29935 9.95882,-5.78455 12.79357,-7.3279 1.14381,-0.62274 -2.1668,1.44609 -3.22933,2.19917 -1.25631,0.89044 -2.49079,1.81138 -3.72615,2.73065 -1.47635,1.09861 -2.9392,2.21523 -4.4088,3.32285 -8.78689,6.94451 -17.86858,13.44747 -27.35707,19.39222 -7.19929,4.50385 -14.29303,9.16082 -21.19594,14.10713 -6.17146,4.44145 -12.16805,9.13845 -17.78819,14.26164 -5.01546,4.61505 -9.50991,9.74018 -13.71657,15.09115 -3.28555,4.4759 -6.33687,9.12159 -9.27811,13.82942 -2.67696,4.28957 -4.90968,8.82932 -7.04509,13.40576 -1.77562,4.00333 -3.5398,8.00502 -5.41406,11.96418 -1.79995,4.10064 -3.52189,8.23628 -5.03568,12.45183 -1.65311,5.47387 -3.57849,10.84601 -5.49193,16.2343 -2.08068,6.43111 -4.11282,12.83821 -6.85792,19.02429 -2.12177,4.47668 -4.92064,8.66626 -6.14565,13.50291 -0.43901,4.14667 -1.09958,8.20326 -2.30373,12.19626 -0.88723,3.41125 -1.87392,6.79243 -2.83798,10.18275 -1.09946,3.55098 -2.3622,7.04919 -3.4823,10.59221 -1.05468,3.69659 -2.47911,7.2201 -3.23922,11.0007 -0.68969,4.39412 -0.71443,8.84314 -1.22358,13.25739 -0.61307,5.12649 -0.83276,10.28767 -0.93494,15.44611 -0.05,3.44334 -0.0308,6.88713 -0.0182,10.33065 0.0242,2.90813 0.005,5.81613 -0.004,8.72422 0.003,3.4783 0.0682,6.95488 -0.1713,10.42628 -0.34418,3.98233 -0.81655,7.93855 -1.74931,11.82828 -0.40382,1.71047 -1.02605,3.35398 -1.63826,4.99695 0,0 -18.4545,8.57553 -18.4545,8.57553 l 0,0 c 0.61778,-1.6018 1.34957,-3.16346 1.76399,-4.83591 1.13901,-3.74576 1.54208,-7.62631 1.95022,-11.50924 0.31102,-3.40274 0.0949,-6.82099 0.15505,-10.23562 -0.0122,-2.90424 -0.0389,-5.80841 -0.021,-8.71275 0.0123,-3.48736 0.0431,-6.97491 0.15532,-10.46072 0.17197,-5.20505 0.37944,-10.40952 0.86286,-15.59687 0.46203,-4.45419 0.64706,-8.91578 1.14556,-13.36678 0.3257,-2.12651 0.67037,-4.20384 1.36715,-6.24759 0.38031,-1.11548 0.95155,-2.16177 1.30349,-3.28652 0.16589,-0.53018 0.24141,-1.0845 0.36211,-1.62675 1.00798,-3.58 2.45111,-7.01065 3.50649,-10.58118 0.99123,-3.40876 1.97326,-6.8038 2.88512,-10.23269 1.18558,-3.94968 2.26383,-7.87223 2.36271,-12.03962 0.91,-5.12207 3.76907,-9.47277 6.18582,-14.01504 2.90367,-6.0768 5.00961,-12.41337 6.96219,-18.84804 1.77493,-5.38842 3.856,-10.66835 5.29711,-16.16251 1.47605,-4.27644 3.20828,-8.43651 4.88322,-12.63586 1.96001,-3.92507 3.75957,-7.90448 5.47068,-11.94528 2.12878,-4.66054 4.43837,-9.24205 7.03379,-13.66213 2.90272,-4.80982 6.05266,-9.46295 9.27466,-14.06392 4.16716,-5.47389 8.68001,-10.69939 13.69894,-15.41425 5.43742,-5.38542 11.64335,-9.94349 17.75096,-14.53812 6.94122,-5.02357 14.05359,-9.78197 21.33167,-14.30553 9.55562,-5.88138 18.80915,-12.17387 27.52938,-19.25588 6.39548,-4.95787 1.97692,-1.55792 7.79468,-5.97882 0.98139,-0.74576 1.88598,-1.60368 2.93979,-2.24302 7.8189,-4.74367 15.79756,-9.41451 23.87196,-13.78086 4.20191,-1.86214 8.62541,-3.15874 13.05649,-4.3598 5.81577,-1.50915 11.61831,-3.07249 17.47073,-4.43507 5.54355,-1.15219 11.09783,-2.25128 16.65583,-3.33099 5.46003,-0.93021 10.92631,-1.84662 16.25345,-3.39701 2.96881,-0.82287 5.88704,-1.8857 8.94845,-2.31368 2.48696,-0.42508 4.81593,-1.28808 7.22472,-2.00903 3.12106,-0.85689 6.16832,-2.0046 9.386,-2.47866 2.81453,-0.55871 5.60054,-1.23951 8.45739,-1.56653 2.78113,-0.46815 5.55685,-0.62094 8.37813,-0.46869 2.72738,0.0658 5.47096,0.16057 8.14446,0.75653 2.77715,0.68479 5.54956,1.52114 8.20451,2.57207 2.30373,1.40891 4.0386,3.10804 5.18405,5.60109 1.24089,2.92665 2.26994,5.93593 2.34599,9.1527 -0.33663,2.63272 -0.92612,5.15974 -2.8375,7.13283 -5.13556,8.0323 -18.38583,10.16849 -24.01736,15.94842 -3.32436,1.54101 -6.69962,3.01631 -10.28971,3.82749 -4.28492,1.14371 -8.38919,2.84872 -12.70948,3.87556 -3.81182,1.01182 -7.66638,1.80749 -11.58656,2.27764 -5.12142,0.66195 -10.11548,1.82293 -15.04791,3.35519 -5.17382,0.93361 -10.44838,0.98788 -15.68039,1.4036 -7.52537,0.27085 -15.06201,0.009 -22.59106,0.0725 -10.26183,-0.0135 -20.52352,-0.11466 -30.78478,-0.21522 -12.28101,-0.15873 -24.56192,-0.49995 -36.82036,-1.291 -11.70287,-0.72143 -23.40939,-1.43638 -35.14063,-1.47232 -11.84293,-0.23606 -23.68692,-0.71016 -35.46959,-1.99284 -14.31445,-1.35277 -28.64147,-2.73868 -42.74958,-5.61992 -2.03615,-0.41677 -4.0892,-0.75814 -6.10845,-1.25032 -8.478237,-2.06651 -16.339482,-5.96821 -24.513608,-8.91733 -10.823779,-4.16704 -21.679615,-8.23127 -32.838957,-11.43685 -11.326992,-3.24299 -22.729071,-6.21836 -34.230913,-8.78095 0,0 16.686471,-11.50967 16.686471,-11.50967 z"
         id="path5711"
         style="fill:url(#radialGradient5808);fill-opacity:1;fill-rule:nonzero;stroke:url(#linearGradient5824);stroke-opacity:1" />
      <path
         inkscape:connector-curvature="0"
         d="m 165.12413,640.30352 c 4.62392,-0.76902 9.24202,-1.75858 13.78432,-2.92901 6.88001,-1.49409 13.41333,-4.0498 19.89782,-6.72951 0.93557,-0.44021 1.88305,-0.85599 2.80673,-1.32064 0.94081,-0.47326 1.86026,-0.98791 2.78484,-1.49213 0.93927,-0.51222 3.73787,-2.08366 2.80656,-1.55711 -4.63656,2.62149 -9.18977,5.39815 -13.9224,7.84194 -1.20435,0.62189 2.22189,-1.55373 3.30997,-2.362 1.29426,-0.96143 2.5573,-1.96419 3.83595,-2.94629 7.76686,-6.19098 15.00909,-13.0219 21.70771,-20.3492 6.28316,-6.6076 9.82639,-13.50451 12.74419,-22.01437 2.48255,-7.13939 3.84915,-14.5998 4.89742,-22.06616 0.79198,-5.99372 0.93912,-12.03916 1.0599,-18.07497 0.29022,-5.09939 0.018,-9.95399 -2.23135,-14.59062 -2.456,-3.69876 -6.27852,-5.87197 -10.38216,-7.28482 -5.99527,-1.58706 -12.27898,0.47684 -17.99296,2.35741 -1.08782,0.48412 -2.19963,0.91757 -3.26345,1.45236 -1.09062,0.54826 -4.26094,2.38429 -3.19289,1.79327 4.62373,-2.55859 9.12888,-5.34184 13.85996,-7.69601 1.09818,-0.54645 -1.99309,1.43714 -2.9128,2.24875 -2.52263,2.22614 -3.61052,3.67466 -5.7914,6.2191 -4.37216,5.16101 -7.80132,10.98538 -9.85592,17.42705 -0.91877,3.30422 -1.14721,6.735 -0.94474,10.14453 0.40646,4.54626 1.69653,8.95104 2.78439,13.36753 1.67189,5.25277 2.58574,10.68643 3.90453,16.02727 0.57166,4.58581 1.96723,8.78293 4.08499,12.8717 2.2441,3.9652 5.19576,7.43478 8.093,10.92572 2.62292,2.61218 5.39373,5.11547 8.28517,7.43063 3.66156,3.01783 8.25312,4.14757 12.71529,5.47929 4.47529,1.31482 9.03291,3.07344 13.78998,2.80095 0.91572,-0.0525 1.8149,-0.26715 2.72235,-0.40073 7.32726,-1.40342 13.97772,-4.82773 20.65129,-7.9935 10.09396,-5.84897 -7.00305,4.0725 -11.20604,6.28892 -1.00722,0.53115 1.87156,-1.2995 2.77077,-1.9981 2.28228,-1.7731 4.37951,-3.78306 6.44553,-5.79741 3.3236,-3.45745 4.67478,-8.00201 5.91323,-12.50937 1.62686,-6.75111 5.07888,-11.41898 9.47153,-16.62618 4.66998,-5.24934 10.08794,-9.65873 15.85833,-13.62339 8.5089,-4.03693 16.6189,-11.1208 25.99017,-14.1095 3.11481,-0.99338 6.37996,-1.5349 9.57608,-2.18965 5.8224,-1.25351 11.77691,-1.54029 17.71042,-1.71935 4.60832,0.0954 9.28788,-0.5207 13.8701,0.0869 13.93927,2.36721 -1.74737,7.56414 -12.37739,14.22349 -3.11427,0.24368 -6.18741,-0.31703 -9.27714,-0.65345 -3.00825,-0.32545 -6.03456,-0.37701 -9.05656,-0.44278 -4.45069,-0.30482 -8.79946,0.37202 -12.94625,1.98263 -6.3993,3.1045 -17.16912,9.1785 11.23672,-6.66596 0.60893,-0.33965 -1.17519,0.75088 -1.75537,1.1376 -1.59951,1.06615 -1.6837,1.1572 -3.21543,2.29056 -3.20305,2.53562 -5.62944,5.85866 -7.80435,9.27802 -2.67644,4.48087 -5.46459,8.89217 -8.23349,13.31608 -2.84111,4.54322 -4.94883,9.48478 -6.63209,14.55819 -1.03975,3.19016 -1.40675,6.51188 -1.55584,9.84522 -0.0421,3.22148 0.86492,6.12959 2.78837,8.695 2.87711,2.96963 6.67348,4.37427 10.58326,5.42037 2.57036,0.41185 5.23472,1.16955 7.86398,1.09778 3.94243,-0.10761 7.79116,-1.3134 11.52557,-2.43418 1.38059,-0.43178 2.78005,-0.8073 4.14176,-1.29534 2.26386,-0.81136 6.0471,-2.44315 8.19129,-3.57524 1.30358,-0.68827 5.10804,-2.94453 3.81433,-2.23789 -13.89615,7.59015 -17.9067,10.8501 -10.56437,5.2861 4.23003,-3.51348 7.82527,-7.57805 9.82576,-12.72521 1.55481,-6.47207 1.55214,-13.18473 2.50463,-19.76191 1.283,-8.27505 3.83146,-16.1875 6.80669,-23.98216 3.11033,-7.45988 7.13019,-14.48999 10.97075,-21.58759 4.23324,-8.46543 9.14922,-16.56075 14.06617,-24.64009 6.67057,-10.67169 13.73719,-21.05847 19.96905,-31.99691 8.06906,-14.50498 13.47453,-30.20723 17.31369,-46.29813 1.83471,-8.40708 2.67506,-16.98393 3.58802,-25.52825 0.0572,-3.81959 1.22826,-7.9252 0.15482,-11.68145 -0.12077,-0.16782 -0.19373,-0.38377 -0.36231,-0.50347 -0.37788,-0.26831 -3.24375,0.43846 -3.63989,0.60818 -3.29441,0.54325 -6.27445,1.97109 -9.31875,3.26142 -1.84317,0.54925 -3.52871,1.48045 -5.27591,2.25862 -0.59484,0.26493 -2.36435,1.08263 -1.80202,0.75427 18.01977,-10.52218 19.72485,-11.91236 13.2942,-7.15062 -5.57014,4.75764 -9.94167,10.71351 -14.20049,16.62379 -3.90648,5.0224 -7.2472,10.42523 -10.43254,15.92111 -2.46273,3.99848 -4.26779,8.31601 -6.1931,12.58218 -2.52152,5.19006 -4.11554,10.72077 -5.64177,16.26214 -1.58045,5.43267 -2.23401,11.03939 -2.6177,16.66288 -0.5922,6.00388 -0.0957,11.88014 1.05188,17.77456 1.75857,6.51541 3.85702,12.91519 5.58888,19.44168 1.86655,6.78662 3.64841,13.59335 5.57901,20.36317 1.91832,6.68537 3.62032,13.43204 5.51202,20.12367 1.86856,5.55305 4.13276,11.02374 6.73527,16.27653 1.87429,3.85844 3.40046,7.89941 6.03368,11.31654 1.93858,2.50205 4.75549,3.97778 7.31445,5.73483 3.31699,1.6194 6.47885,3.51296 9.57165,5.5214 3.07723,2.09485 5.7824,4.66421 8.45939,7.23481 3.03481,2.67179 5.93553,5.50166 9.15522,7.95534 2.78491,2.03187 5.34487,4.347 7.91852,6.63724 2.28535,2.28586 4.32552,4.69987 6.0046,7.46542 1.05405,1.51365 0.57024,0.76513 1.46134,2.2391 0,0 -17.72316,10.21472 -17.72316,10.21472 l 0,0 c -0.74069,-1.40843 -0.303,-0.65632 -1.35359,-2.23224 -1.56715,-2.58406 -3.54811,-4.8117 -5.68766,-6.93904 -2.55687,-2.24302 -5.03528,-4.57899 -7.79075,-6.58163 -3.18831,-2.5907 -6.20033,-5.38281 -9.26923,-8.1105 -2.60846,-2.47082 -5.25622,-4.92721 -8.2772,-6.89493 -3.1268,-1.99834 -6.33966,-3.8105 -9.62098,-5.54138 -2.77211,-1.83842 -5.63797,-3.60144 -7.65381,-6.32324 -2.62698,-3.59118 -4.16234,-7.75807 -6.01685,-11.77734 -2.55612,-5.41234 -5.04444,-10.91381 -6.88788,-16.60868 -1.80573,-6.72073 -3.43208,-13.4898 -5.32568,-20.18818 -2.03379,-6.75046 -3.88556,-13.54633 -5.71299,-20.35409 -1.71152,-6.57143 -3.78668,-13.00572 -5.67675,-19.52366 -1.26862,-6.01477 -1.91273,-12.03415 -1.38651,-18.18742 0.28873,-5.76832 1.01134,-11.50068 2.51318,-17.09111 1.58359,-5.55092 2.90072,-11.19533 5.34525,-16.45728 1.94746,-4.32772 3.71747,-8.72645 6.18296,-12.79788 3.21701,-5.61285 6.61573,-11.13002 10.62227,-16.2235 4.23688,-5.91263 8.45468,-11.91768 13.70687,-16.99102 8.14754,-7.26579 18.34833,-11.90494 28.411,-15.9544 3.14864,-1.3246 6.35018,-2.46289 9.72081,-3.08329 2.34014,-0.0998 4.56951,0.0331 5.61077,2.48691 1.23748,4.06763 0.11775,8.40458 -0.0771,12.56162 -1.08412,8.76432 -2.33611,17.53883 -4.30689,26.1502 -4.03084,16.18434 -9.34456,32.10321 -17.27189,46.83664 -1.27256,2.38 -2.48453,4.79342 -3.81769,7.14001 -4.79587,8.44158 -10.54016,16.32215 -15.51114,24.65786 -4.86856,8.05521 -9.81608,16.07839 -14.02492,24.5073 -3.7446,7.05034 -7.63635,14.0244 -10.92138,21.30512 -3.06833,7.66036 -5.78734,15.40371 -7.06414,23.59825 -0.94339,6.63042 -0.93811,13.34075 -2.03844,19.94026 -1.7101,5.92804 -5.10278,9.79252 -9.62051,13.90793 -8.97517,7.26396 -2.80976,2.50992 -23.28218,14.52617 -5.13225,3.01236 -10.72334,5.16112 -16.44668,6.74602 -6.99157,1.84218 -13.28981,2.85872 -20.3373,0.65657 -4.2621,-1.30842 -8.49415,-2.9741 -11.48082,-6.44061 -2.0986,-2.97802 -3.29627,-6.19814 -3.4752,-9.86535 0.11535,-3.52281 0.4261,-7.04362 1.47694,-10.4301 1.66461,-5.21262 3.7565,-10.32102 6.53587,-15.04476 2.70675,-4.42565 5.472,-8.8103 8.17213,-13.23971 1.98168,-3.64628 4.42056,-7.05214 7.40516,-9.95207 8.60929,-6.8695 18.33906,-12.48522 28.51932,-16.66915 4.40737,-1.25002 8.88783,-1.7973 13.47592,-1.51938 3.0714,0.0402 6.13946,0.20632 9.1902,0.5793 2.88372,0.32374 6.02018,0.95404 8.73303,-0.38693 -5.56203,3.54036 -11.31457,6.79785 -16.68609,10.62109 -0.2821,0.20079 0.62694,0.40108 0.741,0.72802 0.0697,0.19983 -0.37723,-0.19611 -0.57839,-0.2619 -1.21033,-0.39588 -2.49599,-0.49028 -3.74517,-0.68886 -4.48812,-0.3039 -9.00089,-0.05 -13.49422,-0.0168 -5.85769,0.23794 -11.71743,0.67382 -17.45396,1.95874 -3.15892,0.68298 -6.31491,1.31852 -9.3532,2.45229 -6.57049,2.45183 -18.95173,10.62929 8.37848,-5.56286 -5.82088,3.86659 -11.39058,8.03269 -16.17595,13.1681 -4.19791,4.88539 -8.00224,9.28091 -9.58887,15.69845 -1.20903,4.73495 -2.38838,9.59762 -5.5126,13.48939 -9.12665,9.40149 -20.27996,15.99671 -32.19636,21.62594 -6.78895,3.21755 -13.70908,6.45112 -21.21231,7.55889 -6.19443,0.35104 -11.09118,-1.13053 -16.92306,-3.07213 -4.74452,-1.43383 -9.57151,-2.66555 -13.40146,-5.99551 -2.90495,-2.48469 -5.8557,-4.95964 -8.40654,-7.81194 -2.94694,-3.62763 -5.99424,-7.20459 -8.26579,-11.31447 -2.18977,-4.21929 -3.87202,-8.52876 -4.35537,-13.29771 -1.17833,-5.3646 -2.02714,-10.80989 -3.80589,-16.02539 -1.21331,-4.47637 -2.49784,-8.9645 -3.09978,-13.57175 -0.43593,-3.64282 -0.20107,-7.3352 0.69017,-10.90168 2.01808,-6.72865 5.50171,-12.8488 9.90569,-18.31819 1.16898,-1.43473 4.1969,-5.23346 5.52963,-6.5415 0.89126,-0.87476 1.82886,-1.72452 2.88713,-2.38755 8.64508,-5.41634 17.26568,-11.42214 26.90097,-15.0429 6.15572,-1.78684 12.62637,-3.57818 18.9253,-1.4028 4.48568,1.80132 8.66932,4.32407 11.23688,8.56313 2.3816,4.91366 2.96995,10.04582 2.56726,15.47568 -0.0527,6.13732 -0.28554,12.2844 -1.10566,18.37336 -1.03221,7.57219 -2.28541,15.18652 -4.80822,22.42343 -2.718,8.55476 -6.30664,16.23436 -12.58604,22.82964 -6.54266,7.5119 -13.88321,14.29072 -21.53877,20.65594 -0.68848,0.55235 -5.87986,4.7701 -6.8853,5.38818 -9.26998,5.69865 -18.67081,11.76597 -28.73529,16.13477 -6.54519,2.60408 -13.16676,4.98271 -20.06118,6.50493 -4.73068,1.16239 -9.47991,2.27733 -14.28313,3.10083 0,0 16.37514,-12.31547 16.37514,-12.31547 z"
         id="path5713"
         style="fill:url(#radialGradient5808);fill-opacity:1;fill-rule:nonzero;stroke:url(#linearGradient5824);stroke-opacity:1" />
      <path
         inkscape:connector-curvature="0"
         d="m 461.95791,624.73589 c 1.15319,3.43299 2.97597,6.3809 5.35819,9.0755 2.37404,2.39612 4.92976,4.65002 7.58489,6.734 1.49478,1.57052 3.41088,2.60072 5.18282,3.82148 2.38772,1.99735 4.72307,3.95031 7.48026,5.42236 3.25985,1.39115 6.58962,2.43489 10.09397,2.96181 3.74425,0.38285 7.51565,0.36624 11.27521,0.36383 3.29654,0.22442 6.38025,-0.31899 9.21673,-2.03605 2.43061,-1.16394 4.80992,-2.44357 7.27875,-3.52929 1.29616,-0.7332 2.64903,-1.32054 3.95736,-2.03171 0.49982,-0.27168 1.99494,-1.09431 1.50185,-0.81061 -17.14337,9.86316 -21.03365,12.44323 -14.59458,8.23651 2.57336,-1.66234 4.67928,-3.91216 6.65889,-6.22364 2.00585,-2.22707 3.41415,-4.91333 4.90656,-7.49435 1.81523,-3.03349 2.2733,-6.45021 2.54709,-9.90458 0.28331,-3.91074 0.28629,-7.81458 -0.15159,-11.70914 -0.30486,-3.06035 -1.37529,-5.95823 -1.95279,-8.96985 -0.6482,-2.8938 -0.28049,-5.68916 0.53393,-8.49449 1.04891,-2.40694 1.97823,-4.87164 3.04344,-7.27326 1.4641,-2.93246 3.45898,-5.59139 5.71111,-7.96349 7.61458,-6.6294 16.70306,-12.26923 26.69836,-13.99752 4.43849,-0.55994 8.92033,-0.59797 13.3872,-0.65493 4.10009,-0.11289 8.14362,0.83329 12.03775,2.03705 4.45156,1.33888 7.78059,4.24338 11.09853,7.33415 2.12034,2.33147 4.97507,4.21596 5.55682,7.48643 -21.14053,13.26514 -13.20861,13.46437 -26.23581,6.18105 -3.21912,-2.05389 -6.51201,-3.94901 -9.99722,-5.51471 -2.86996,-1.18824 -5.98617,-1.30166 -9.04689,-1.41131 -3.19594,-0.0635 -6.39279,-0.0435 -9.58908,-0.0254 -1.453,0.26835 -2.90738,0.34798 -4.23411,1.05959 -0.3926,0.21058 -1.50498,0.95288 -1.11702,0.73387 16.00249,-9.03361 21.43041,-12.95988 15.03855,-8.40967 -3.18429,2.77409 -5.56374,6.38191 -7.46636,10.12161 -1.76675,3.90002 -2.11518,8.15716 -2.30792,12.37515 -0.25048,4.37645 1.21716,8.30102 2.94367,12.22153 1.56346,3.04134 3.4095,6.02354 5.65067,8.6164 2.52387,2.75003 5.24254,5.19366 8.37547,7.21864 3.85173,2.32025 8.12902,3.63984 12.40642,4.91421 2.58309,0.90155 4.90485,0.5607 7.36727,-0.47447 0.74909,-0.31491 2.92528,-1.4095 2.22264,-1.00132 -4.8376,2.81025 -9.75806,5.47539 -14.63709,8.21309 5.70281,-3.70607 10.77226,-8.18119 15.61477,-12.92726 6.08624,-5.89484 11.06634,-12.70667 15.54265,-19.86432 5.16534,-9.83927 8.38269,-20.55319 12.45646,-30.86848 4.80681,-12.62589 10.17555,-25.01852 16.18412,-37.11641 5.69494,-11.21598 11.13915,-22.55632 16.75941,-33.80915 3.05909,-5.80927 5.72179,-11.74484 7.83435,-17.95618 1.94643,-6.16833 3.73824,-12.38014 5.70673,-18.54279 1.81433,-5.57487 3.66869,-11.13117 5.67439,-16.63979 1.5065,-4.55936 2.84632,-9.17717 4.01338,-13.83508 0.45325,-3.51173 1.86984,-6.73901 2.958,-10.07051 1.19942,-3.27674 1.80371,-6.69913 2.17676,-10.15454 0.62768,-3.72482 1.17101,-7.45018 1.44591,-11.21888 -0.0182,-2.26768 1.04115,-5.6923 -1.37104,-7.04441 -0.28529,-0.076 -0.56098,-0.21363 -0.85587,-0.22803 -0.91417,-0.0446 -2.0629,0.61758 -2.80881,1.08288 -0.39844,0.24855 -1.53213,1.08107 -1.12264,0.85118 5.19368,-2.91586 10.3239,-5.94335 15.48584,-8.91503 -49.4763,28.5966 -6.78406,3.91804 -4.67344,2.70813 0.86113,-0.49364 -1.70374,1.01894 -2.55586,1.52798 -3.07313,1.83581 -6.16232,3.64074 -9.22169,5.49954 -5.70752,3.3418 -10.66959,7.50931 -14.79132,12.66195 -3.12383,4.61677 -5.22122,9.7812 -7.00595,15.0297 -1.87121,6.13392 -4.78699,11.88905 -7.52952,17.66666 -4.062,7.95105 -6.70929,16.49826 -9.76568,24.85975 -2.99472,8.53659 -6.84896,16.72743 -10.39037,25.04069 -2.70372,5.74525 -5.1587,11.53975 -7.27894,17.52607 -1.85097,4.97602 -2.61881,10.24581 -3.85753,15.38627 -0.92162,3.87136 -1.99333,7.69589 -3.17048,11.49622 -1.31042,3.98963 -1.54409,8.18991 -1.7491,12.35039 -0.0282,3.41278 -0.0317,6.7896 -0.59106,10.16138 -0.48555,2.51806 -0.6578,5.07488 -0.7573,7.63229 -0.0782,2.72349 -0.0711,5.44849 -0.0707,8.17283 0.0179,2.58231 -0.14851,5.15585 0.32722,7.70382 0.52326,2.29967 0.65999,4.64688 1.26346,6.92682 0.67296,2.19368 1.55362,4.11593 2.95115,5.915 1.67487,1.48028 2.89565,3.35545 4.40993,4.98714 1.86885,2.00029 3.48169,4.24689 5.08834,6.46597 1.68515,2.65631 3.67063,5.12401 5.60258,7.60862 2.26669,2.39608 4.24757,5.06495 6.14505,7.76347 2.22447,3.25298 3.97607,6.84053 6.44942,9.91848 2.43316,1.91701 5.22051,3.33572 7.68915,5.23764 3.43909,2.31028 6.41327,5.23179 9.06785,8.39517 1.84814,1.99412 3.86841,3.89208 6.2017,5.30937 2.39776,0.64377 4.38741,2.12255 6.64971,3.07846 2.04859,1.24529 4.25158,2.27821 6.54224,2.99279 2.60264,0.67458 5.30394,0.71905 7.97505,0.78311 1.37654,-0.1466 2.58673,-0.47415 3.82867,-1.05037 0.35988,-0.16697 1.43285,-0.67827 1.08878,-0.48074 -18.28507,10.49746 -21.52227,12.76304 -15.08825,8.37097 3.11818,-2.44299 5.93226,-5.23822 8.71296,-8.05096 2.95805,-3.25924 5.51604,-6.81913 7.71491,-10.62504 1.84001,-3.2995 2.95335,-6.8821 3.97696,-10.4957 0.94032,-4.39527 1.71971,-8.83823 2.30282,-13.29716 0.32144,-4.27162 0.65431,-8.52365 1.19242,-12.77432 0.65682,-3.27171 1.41765,-6.50594 1.82988,-9.82177 0.34601,-3.68314 0.36226,-7.3866 0.36592,-11.08275 -0.008,-3.63627 -0.004,-7.27254 -0.0114,-10.90882 -0.17623,-2.73906 0.2271,-5.53715 -0.1305,-8.26447 20.07619,-10.33604 18.38162,-14.76824 18.25429,-5.64991 -0.0261,1.87074 -0.0365,3.72279 -0.15616,5.5905 -0.52221,3.94978 -0.85888,7.91558 -1.08418,11.89212 -0.0746,4.94983 -0.66646,9.87282 -1.26259,14.7821 -1.1325,8.65336 -2.59247,17.24828 -3.52348,25.92932 -0.89823,6.35139 -0.59848,12.55733 1.86592,18.49429 1.54276,4.12136 4.21582,7.11049 7.77795,9.58183 3.82933,2.84841 8.05437,4.44137 12.59873,5.73612 6.29216,2.08727 12.87889,2.82984 19.45589,3.3028 4.65366,-0.12607 9.50937,0.94281 14.14391,0.14653 3.35014,-0.57561 5.48651,-1.73688 8.61146,-3.08406 -3.85129,2.17174 -7.59536,4.54568 -11.55386,6.51522 -1.87291,0.93185 3.56189,-2.19883 5.27925,-3.39331 6.94647,-4.83153 13.49788,-10.3227 19.88274,-15.86168 7.6883,-6.68879 14.49654,-14.30875 20.11769,-22.80145 4.58761,-6.44367 6.52867,-13.91319 8.42175,-21.44698 2.04452,-7.29095 4.30768,-14.50954 6.69531,-21.69381 1.36362,-4.68732 2.61169,-9.40554 3.97199,-14.09498 0.16759,-0.39185 1.26646,-5.37156 1.33426,-5.40278 19.3944,-8.92808 22.78659,-13.35907 17.16592,-6.74757 -3.47439,5.37469 -6.09078,11.22179 -8.82953,16.98566 -1.83871,4.14955 -3.6299,8.32383 -5.3951,12.50695 -1.29972,3.19289 -1.99009,6.58008 -2.96826,9.87733 -1.56345,5.54181 -2.05925,11.32013 -2.90872,17.00111 -1.0952,6.21876 -2.44843,12.40543 -4.12507,18.49355 -1.75862,6.69166 -4.00766,13.23946 -6.14075,19.81715 -2.42621,7.70272 -4.70606,15.44964 -7.33665,23.08581 -2.51191,7.54608 -5.33294,14.98539 -8.83103,22.1314 -1.9759,3.64476 -4.35363,7.03955 -6.78607,10.38768 -2.89853,4.04178 -6.56882,7.38621 -10.46028,10.44116 -9.43096,7.62804 -20.07304,13.59798 -30.97777,18.88015 -5.98984,3.33736 -12.52646,5.41417 -19.0894,7.28062 -5.76283,1.52432 -11.7276,1.86306 -17.63067,2.50082 -5.60889,0.64308 -11.25647,0.81154 -16.89644,0.92355 -4.72078,0.0936 -9.44267,0.0832 -14.16409,0.0691 -5.58935,-0.15889 -9.48795,-2.26033 -13.53038,-5.95791 -3.3564,-3.40182 -5.57092,-7.56314 -6.91021,-12.10884 -1.20527,-3.97815 -0.45837,-6.84294 1.03105,-10.58195 1.7996,-4.78034 4.67663,-8.8185 8.07023,-12.5735 4.17933,-4.45026 8.93855,-8.19831 14.07124,-11.47144 10.74274,-7.04954 21.80411,-12.89623 33.64483,-17.6026 6.08306,-2.70887 12.31276,-5.07127 18.44682,-7.65907 3.84542,-1.71405 7.96295,-2.5923 11.96278,-3.82267 4.30539,-0.82285 8.50919,-2.02224 12.84222,-2.70097 4.88196,-1.22008 9.76619,-2.56915 14.48946,-4.31897 5.42858,-2.20471 10.62708,-4.8899 16.06725,-7.08623 4.58492,-2.0622 9.35437,-3.71769 13.80815,-6.06336 3.90957,-1.95081 7.79026,-3.93333 11.72671,-5.83737 3.7771,-1.93163 7.74568,-3.42551 11.83512,-4.53541 6.59719,-2.17367 13.37125,-3.6213 20.12804,-5.19516 6.21778,-1.3775 11.88525,-4.33521 17.78758,-6.59687 3.69973,-1.47065 7.51541,-2.61156 11.20416,-4.11046 1.18546,-0.4304 2.41321,-0.8256 3.52816,-1.43017 0.51025,-0.27669 1.96352,-1.23753 1.45894,-0.95063 -5.36053,3.04799 -21.45187,12.17158 -16.02933,9.23532 1.62743,-0.88125 44.71156,-25.58953 2.43017,-1.35301 3.05349,-1.73427 5.77857,-3.93861 8.45664,-6.19295 4.30673,-3.62617 8.41978,-7.48964 12.40531,-11.46476 4.13744,-4.09045 8.29681,-8.15314 12.27719,-12.39773 2.16954,-2.141 4.21111,-4.38582 6.21389,-6.68235 2.25274,-2.27675 4.2141,-4.68342 5.70502,-7.51698 1.07796,-2.04529 2.40722,-3.8876 3.09584,-6.10819 0.75426,-2.55479 1.30279,-5.16224 2.0193,-7.72668 0.41742,-1.67458 1.37739,-3.10958 2.23953,-4.57677 0,0 18.79077,-8.15859 18.79077,-8.15859 l 0,0 c -1.02166,1.20318 -1.83807,2.58783 -2.59847,3.96758 -0.70882,2.53993 -1.2139,5.11905 -2.05498,7.62198 -0.39873,2.68688 -1.43319,4.41507 -2.85399,6.66149 -1.69006,2.79061 -2.96531,5.77114 -5.57581,7.91883 -2.0393,2.30963 -3.89602,4.78006 -6.27944,6.75816 -3.96503,4.41728 -8.38784,8.39738 -12.58023,12.59606 -3.8413,4.01392 -7.86321,7.87666 -12.03633,11.53832 -2.67653,2.18502 -5.15652,4.66937 -8.18868,6.37044 -6.19798,3.59576 -12.41243,7.1633 -18.59395,10.78729 -5.36244,3.14379 21.55139,-12.39953 16.13666,-9.34668 -8.12391,4.58032 -15.28882,9.91506 -23.93477,12.97855 -3.68684,1.35996 -7.40944,2.62038 -11.07788,4.03365 -5.77305,2.37664 -11.53291,4.84732 -17.67638,6.13572 -6.86164,1.60894 -13.66338,3.37828 -20.37532,5.53645 -4.03612,1.3136 -7.95318,2.93148 -11.74058,4.85342 -3.93006,1.82092 -7.67257,3.99572 -11.61492,5.79228 -4.54897,2.10959 -9.21758,3.93519 -13.82961,5.89991 -5.41817,2.25557 -10.60282,5.03984 -16.13729,7.01011 -4.86478,1.61713 -9.79096,3.16641 -14.82636,4.14739 -4.26684,0.78869 -8.48642,1.85012 -12.69709,2.88749 -3.95599,1.10649 -7.90741,2.26707 -11.69293,3.87904 -6.16174,2.46084 -12.28649,5.00112 -18.3892,7.60397 -2.87507,1.19309 -5.75332,2.38056 -8.55669,3.73714 -6.3468,3.07127 -18.12342,10.31041 9.32776,-5.75551 -5.17565,3.10798 -9.97763,6.62648 -14.22815,10.94525 -3.33835,3.55726 -6.46167,7.22701 -8.22426,11.85642 -1.31803,3.14259 -2.56171,5.91365 -1.5578,9.36214 1.0591,4.24611 3.01131,8.07872 6.16664,11.17931 3.87574,3.27607 7.63218,4.78958 12.76567,4.71842 4.69602,-0.008 9.39231,9e-5 14.08794,-0.0693 5.58957,-0.13159 11.17976,-0.36396 16.73576,-1.02806 5.82428,-0.6684 11.71661,-1.04505 17.3662,-2.73315 6.53677,-1.94501 12.94321,-4.27496 18.92341,-7.60007 7.16375,-3.62318 6.87123,-3.54719 -11.95487,7.26156 -0.71545,0.41076 1.36328,-0.92946 2.0481,-1.38947 2.02534,-1.36049 2.33477,-1.49495 4.29131,-2.99496 0.76406,-0.58578 1.5027,-1.20401 2.25405,-1.80601 3.90854,-2.80089 7.53819,-5.93045 10.43793,-9.79992 2.52042,-3.32714 4.94417,-6.70333 7.21099,-10.21267 3.76735,-7.01486 6.74314,-14.43615 9.20038,-22.00587 2.72306,-7.53679 4.74181,-15.28822 7.13294,-22.93231 2.11166,-6.54584 4.51764,-13.0137 6.11037,-19.71463 1.72013,-6.03778 3.12994,-12.1762 4.3806,-18.32691 0.78005,-5.69207 1.18042,-11.47163 2.43026,-17.07738 0.94161,-3.38454 1.75087,-6.80739 2.92277,-10.11844 1.77322,-4.25149 3.66028,-8.44753 5.45969,-12.68551 2.9764,-5.648 5.48821,-11.54077 8.56973,-17.14006 3.95019,-7.8995 0.6511,-2.18866 19.87759,-10.5742 0.18423,-0.0803 -0.0325,0.40167 -0.0729,0.59856 -0.3706,1.80622 -1.17365,3.45614 -1.4356,5.29165 -1.27921,4.79534 -2.87167,9.50739 -4.14714,14.30511 -2.4922,7.12744 -4.80776,14.30078 -6.82777,21.57898 -1.96634,7.68969 -3.64084,15.43985 -8.25917,22.09362 -5.61485,8.71852 -12.46059,16.54896 -20.22671,23.43387 -6.38971,5.60335 -12.97451,11.13577 -19.85282,16.13646 -7.57913,5.51021 -22.27244,13.2417 -27.22432,16.07479 -3.94893,1.47869 -5.13364,2.20068 -9.25898,2.71489 -4.71819,0.58812 -9.58145,-0.31017 -14.30353,-0.3091 -6.69657,-0.55102 -13.35354,-1.54523 -19.78224,-3.56826 -4.75016,-1.3675 -9.14498,-3.25966 -13.13046,-6.23689 -3.69759,-2.83435 -6.69824,-6.10332 -8.27116,-10.58427 -2.54712,-6.30133 -3.03813,-12.83927 -1.97252,-19.56716 1.00893,-8.62261 2.30083,-17.20429 3.30731,-25.82604 0.51282,-4.83128 0.95796,-9.67902 1.05899,-14.53603 0.16846,-3.9989 0.54701,-7.98557 1.03507,-11.95781 1.65138,-14.13598 -5.80825,-5.45059 18.42868,-18.35007 -0.31856,2.77663 0.0221,5.60434 -0.11984,8.39038 0.002,3.64049 0.0237,7.28102 0.008,10.92149 -0.0233,3.74772 0.008,7.50073 -0.23706,11.24228 -0.27465,3.35823 -0.90401,6.66798 -1.86707,9.89992 -0.56186,4.25788 -1.06012,8.49707 -1.26662,12.79037 -0.49748,4.54298 -1.41488,9.01424 -2.09573,13.53097 -0.9979,3.74994 -2.00732,7.49213 -3.80859,10.95271 -2.12489,3.96723 -4.64973,7.62522 -7.51761,11.09455 -2.6742,2.93773 -5.59043,5.61597 -8.47326,8.34264 -7.35808,5.83268 -15.64729,12.41919 -25.27671,12.59205 -2.82923,-0.10719 -5.67879,-0.31709 -8.37256,-1.26307 -2.29761,-0.87998 -4.52206,-1.92804 -6.65818,-3.15046 -2.26988,-1.1237 -4.52022,-2.26498 -6.81172,-3.33406 -2.3897,-1.6649 -4.53966,-3.64989 -6.40539,-5.88922 -2.55495,-3.06164 -5.46789,-5.78363 -8.8068,-7.98181 -2.69548,-1.87495 -5.78654,-3.26249 -8.04347,-5.68847 -2.37131,-3.18345 -4.10202,-6.78129 -6.41356,-10.00702 -1.97349,-2.61934 -3.96825,-5.23713 -6.16971,-7.66907 -1.95711,-2.49787 -3.92539,-4.99926 -5.69488,-7.63248 -1.57432,-2.14659 -3.10039,-4.36091 -4.97965,-6.24987 -1.55403,-1.67721 -2.88198,-3.54264 -4.53748,-5.13045 -1.54308,-2.02673 -2.48442,-4.2206 -3.33826,-6.61615 -0.64253,-2.32734 -0.85267,-4.68921 -1.32067,-7.05515 -0.55882,-2.67663 -0.52935,-5.34778 -0.47373,-8.07696 -0.003,-2.7424 -0.0129,-5.48507 0.0327,-8.22721 0.0641,-2.63927 0.15798,-5.2874 0.6246,-7.89233 0.62071,-3.32439 1.01147,-6.59895 0.86931,-10.00058 0.15646,-4.28258 0.33295,-8.64623 1.47743,-12.79513 1.16411,-3.80059 2.35707,-7.58541 3.27733,-11.45344 1.47487,-5.16497 2.09006,-10.54952 3.93637,-15.60971 1.03832,-2.9258 1.933,-5.95604 3.13255,-8.82023 1.098,-2.62172 1.60345,-3.1198 2.83825,-5.70682 0.49798,-1.04333 0.93165,-2.11617 1.39748,-3.17425 3.53347,-8.35063 7.69402,-16.44469 10.64798,-25.04037 2.98905,-8.37818 5.53003,-16.97141 9.52895,-24.94105 2.58322,-5.70693 5.44681,-11.33961 7.31914,-17.3299 1.81901,-5.42814 3.9148,-10.73669 6.86267,-15.67188 3.91164,-5.49966 8.81594,-9.91303 14.61932,-13.39245 10.29743,-6.47896 54.00024,-31.48985 16.15431,-9.6349 6.41545,-3.73545 12.79988,-7.52469 19.24634,-11.20636 2.06603,-1.17993 4.29566,-1.11381 6.263,0.20809 2.76823,2.58671 2.44416,5.31787 2.17601,8.86805 -0.23866,3.7755 -0.59298,7.53945 -1.35987,11.25036 -0.33458,3.54476 -0.82341,7.10648 -1.96626,10.49276 -0.95963,3.38975 -2.74519,6.49793 -3.13718,10.04173 -1.17517,4.73043 -2.56711,9.41006 -4.01348,14.06349 -1.98055,5.52302 -4.05285,11.00962 -5.80066,16.61711 -1.97496,6.15554 -3.86553,12.32732 -5.6907,18.52724 -1.90471,6.50765 -4.79471,12.51919 -8.09716,18.4376 -5.83821,11.24803 -11.44529,22.6103 -17.11682,33.94233 -5.90362,12.08744 -11.51327,24.31597 -16.19932,36.93652 -3.93242,10.36028 -7.13761,21.04456 -11.9762,31.02638 -4.27037,7.26706 -9.11352,14.20308 -15.09561,20.18427 -4.7385,4.89401 -9.7864,9.3901 -15.36204,13.31831 -6.63532,3.83864 -13.20381,7.79518 -19.90594,11.51593 -3.26176,1.8108 -7.08341,1.54026 -10.48067,0.40736 -4.38034,-1.42854 -8.76542,-2.89306 -12.66908,-5.41181 -3.27107,-2.163 -6.21826,-4.70944 -8.82521,-7.64823 -2.27383,-2.81961 -4.27524,-5.91149 -5.87829,-9.15835 -1.77896,-4.19488 -3.40911,-8.40045 -3.33212,-13.04619 0.16524,-4.4286 0.35452,-8.91744 1.98273,-13.10038 1.6916,-4.00257 4.1559,-7.60313 6.9555,-10.91898 7.12929,-6.419 15.93577,-12.52485 25.6909,-12.95008 3.22033,-0.004 6.44384,-0.0507 9.66108,0.1164 3.25531,0.2302 6.52233,0.58474 9.48465,2.07019 3.44234,1.709 6.71785,3.68038 9.98644,5.69741 1.74401,0.99534 3.48209,2.17202 5.33885,2.95252 0.45014,0.18922 0.90705,0.41793 1.39435,0.44901 0.27979,0.0178 1.01821,-0.46085 0.78178,-0.31018 -5.59558,3.566 -11.24762,7.04262 -16.87143,10.56394 2.2452,0.36279 -3.98161,-5.34392 -4.13865,-5.64246 -3.14926,-2.8811 -6.37279,-5.44315 -10.61311,-6.5242 -3.82667,-1.0107 -7.71243,-1.76247 -11.69546,-1.5545 -4.39824,0.0544 -8.83221,0.11873 -13.15983,0.9898 -1.56402,0.40588 -2.16853,0.50691 -3.65233,1.10518 -0.56492,0.22778 -2.18426,1.07385 -1.66042,0.76303 5.29702,-3.1429 10.69833,-6.10814 15.9877,-9.26389 0.41729,-0.24896 -0.943,0.27879 -1.35622,0.53446 -0.37548,0.23232 -0.64558,0.60255 -0.96838,0.90382 -2.52752,1.84212 -4.42906,4.5748 -6.01891,7.23274 -1.25,2.2569 -1.73217,4.81576 -3.18847,6.97541 -0.81582,2.5238 -1.57138,4.94163 -0.95342,7.62239 0.5071,3.07612 1.57355,6.02249 1.89784,9.12773 0.52198,4.00749 0.53676,8.01141 0.34136,12.04965 -0.23145,3.65435 -0.42937,7.37178 -2.14418,10.69132 -1.43086,2.69663 -2.94208,5.3959 -4.67361,7.90298 -2.1498,2.24838 -3.98573,4.81874 -6.4877,6.7305 -8.34725,5.32285 -16.86356,10.42484 -25.79642,14.69889 -2.41246,1.20297 -4.85206,2.34972 -7.27254,3.53631 -3.15782,1.13092 -6.32841,1.49622 -9.68406,1.24646 -3.8482,-0.0409 -7.72236,-0.0166 -11.53419,-0.61284 -3.61354,-0.75845 -7.10314,-1.95692 -10.44106,-3.54322 -2.73815,-1.60434 -5.14377,-3.59498 -7.68471,-5.48021 -1.85341,-1.20085 -3.71303,-2.42399 -5.25904,-4.0168 -2.62432,-2.2676 -5.23293,-4.57537 -7.61536,-7.0975 -2.54443,-2.91266 -4.47457,-6.08941 -5.955,-9.66977 0,0 17.94015,-9.88042 17.94015,-9.88042 z"
         id="path5715"
         style="fill:url(#radialGradient5808);fill-opacity:1;fill-rule:nonzero;stroke:url(#linearGradient5824);stroke-opacity:1" />
    </g>
  </g>
</svg>
