<?xml version="1.0" encoding="UTF-8" standalone="no"?>
<!-- Created with Inkscape (http://www.inkscape.org/) -->

<svg
   xmlns:dc="http://purl.org/dc/elements/1.1/"
   xmlns:cc="http://creativecommons.org/ns#"
   xmlns:rdf="http://www.w3.org/1999/02/22-rdf-syntax-ns#"
   xmlns:svg="http://www.w3.org/2000/svg"
   xmlns="http://www.w3.org/2000/svg"
   xmlns:sodipodi="http://sodipodi.sourceforge.net/DTD/sodipodi-0.dtd"
   xmlns:inkscape="http://www.inkscape.org/namespaces/inkscape"
   width="744.09448819"
   height="1052.3622047"
   id="svg3053"
   version="1.1"
   inkscape:version="0.48.4 r9939"
   sodipodi:docname="Ground and Worm.svg">
  <defs
     id="defs3055">
    <inkscape:perspective
       sodipodi:type="inkscape:persp3d"
       inkscape:vp_x="0 : 526.18109 : 1"
       inkscape:vp_y="0 : 1000 : 0"
       inkscape:vp_z="744.09448 : 526.18109 : 1"
       inkscape:persp3d-origin="372.04724 : 350.78739 : 1"
       id="perspective3087" />
  </defs>
  <sodipodi:namedview
     id="base"
     pagecolor="#ffffff"
     bordercolor="#666666"
     borderopacity="1.0"
     inkscape:pageopacity="0.0"
     inkscape:pageshadow="2"
     inkscape:zoom="0.5000989"
     inkscape:cx="28.476064"
     inkscape:cy="559.51119"
     inkscape:document-units="px"
     inkscape:current-layer="layer1"
     showgrid="false"
     inkscape:window-width="708"
     inkscape:window-height="423"
     inkscape:window-x="26"
     inkscape:window-y="26"
     inkscape:window-maximized="0" />
  <metadata
     id="metadata3058">
    <rdf:RDF>
      <cc:Work
         rdf:about="">
        <dc:format>image/svg+xml</dc:format>
        <dc:type
           rdf:resource="http://purl.org/dc/dcmitype/StillImage" />
      </cc:Work>
    </rdf:RDF>
  </metadata>
  <g
     inkscape:label="Layer 1"
     inkscape:groupmode="layer"
     id="layer1">
    <rect
       style="fill:#552200"
       id="rect3061"
       width="428.57147"
       height="407.14285"
       x="127.14285"
       y="269.50504"
       ry="0" />
    <rect
       ry="0"
       y="270.5152"
       x="126.72443"
       height="55.152283"
       width="428.57147"
       id="rect3063"
       style="fill:#008000" />
    <path
       style="fill:#c87137"
       d="m 168.8041,342.22494 35.13808,9.09137 c 4.93432,1.27667 56.87353,30.50856 53.64671,34.45381 l -17.17259,20.99596 c -3.22682,3.94525 -53.84256,33.15196 -55.66702,28.39289 L 165.77364,385.6615 c -1.82446,-4.75907 -9.2,-4.1032 -9.2,-9.2 l 0,-15.94519 c 0,-5.0968 7.29614,-19.56804 12.23046,-18.29137 z"
       id="rect3065"
       inkscape:connector-curvature="0"
       sodipodi:nodetypes="sssssssss" />
    <rect
       ry="12.988235"
       y="-351.53305"
       x="385.6615"
       height="48.487324"
       width="106.06602"
       id="rect3067"
       style="fill:#445500"
       transform="matrix(0,1,-1,0,0,0)" />
    <path
       transform="matrix(0,1,-1,0,0,0)"
       style="fill:#445500"
       d="m 398.64973,-351.53305 83.12001,-14.14214 c 7.09354,-1.2069 9.95778,19.93489 9.95778,27.13037 l 0,22.51086 c 0,7.19548 -11.4306,48.15985 -18.039,45.31311 l -75.03879,-32.32488 c -6.6084,-2.84674 -9.02586,-6.98202 -12.98823,-12.98823 l -18.18275,-27.56162 c -3.96237,-6.00621 24.07744,-6.73057 31.17098,-7.93747 z"
       id="rect3069"
       inkscape:connector-curvature="0"
       sodipodi:nodetypes="sssssssss" />
    <path
       style="fill:#decd87"
       d="m 247.84866,532.63867 4.32811,0 c 7.19548,0 58.56824,36.35719 51.37403,36.22175 l -38.3858,-0.72266 c -7.19421,-0.13544 50.53501,-5.02003 43.58031,-3.1742 L 247.84866,581.126 c -6.9547,1.84583 -11.07644,-6.05138 -12.98823,-12.98824 L 224.7589,531.48477 c -1.91179,-6.93686 15.89428,1.1539 23.08976,1.1539 z"
       id="rect3073"
       inkscape:connector-curvature="0"
       sodipodi:nodetypes="sssssssss" />
    <path
       style="fill:#88aa00"
       d="m 421.70287,404.34931 36.43704,10.10153 c 3.75589,1.04125 7.03529,3.13774 7.03529,7.03529 l 0,12.19338 c 0,3.89755 -3.13774,7.03529 -7.03529,7.03529 l -58.6604,0 c -3.89755,0 -33.33356,1.43357 -30.26881,-0.97437 l 23.23351,-18.2543 c 17.14585,-13.47129 25.50277,-18.17807 29.25866,-17.13682 z"
       id="rect3075"
       inkscape:connector-curvature="0"
       sodipodi:nodetypes="sssssssss" />
    <path
       style="fill:#a0892c"
       d="m 476.91912,581.12605 -30.55891,-15.15229 c -10.34131,-5.12762 48.10942,-2.82929 48.10942,8.71346 l 0,36.11116 c 0,11.54275 -9.29254,20.83529 -20.8353,20.83529 l -54.29391,0 c -11.54275,0 -31.38692,-16.15574 -20.83529,-20.83529 l 31.31473,-13.8878 c 28.77826,-12.76291 57.44056,-10.65691 47.09926,-15.78453 z"
       id="rect3077"
       inkscape:connector-curvature="0"
       sodipodi:nodetypes="sssssssss" />
    <path
       transform="matrix(0.69855444,-0.71555691,0.71555691,0.69855444,0,0)"
       style="fill:#806600"
       d="m -264.01864,453.66129 46.76945,-37.22605 c 3.51865,-2.80066 -19.10945,42.59759 -18.78132,47.08278 l 2.59931,35.53065 c 0.32812,4.48519 -14.24112,10.37017 -16.67129,6.58613 l -13.91615,-21.66894 c -2.43017,-3.78403 -8.11765,-3.62047 -8.11765,-8.11765 l 0,-14.06928 c 0,-4.49717 4.599,-5.31698 8.11765,-8.11764 z"
       id="rect3079"
       inkscape:connector-curvature="0"
       sodipodi:nodetypes="sssssssss" />
    <path
       style="fill:#008000"
       d="m 299.03102,321.1566 c 5.45707,-5.46194 9.00021,-14.11058 20.83603,-8.952 8.77992,10.58192 6.58623,19.42132 1.87842,27.8615 l -36.79757,69.06625 z"
       id="rect3089"
       inkscape:connector-curvature="0"
       sodipodi:nodetypes="ccccc" />
    <path
       sodipodi:nodetypes="ccccc"
       inkscape:connector-curvature="0"
       id="path3860"
       d="m 293.71423,334.87984 c -0.82605,-7.02457 -5.64679,-14.13576 6.84053,-20.87171 14.93552,-1.62032 20.84629,4.52425 24.68943,12.44781 l 32.63831,63.47989 z"
       style="fill:#008000" />
    <path
       style="fill:#008000"
       d="m 296.30043,320.77517 c 4.69405,-1.19492 8.8592,-3.96779 15.31603,0.0962 3.31034,5.6587 -0.0316,8.73938 -4.89764,11.22942 l -38.71216,20.67445 z"
       id="path3862"
       inkscape:connector-curvature="0"
       sodipodi:nodetypes="ccccc" />
    <path
       sodipodi:nodetypes="ccccc"
       inkscape:connector-curvature="0"
       id="path3864"
       d="m 294.39834,337.02136 c -0.0451,-6.39531 -2.54889,-13.13156 5.60005,-18.39066 9.32098,-0.48027 12.5611,5.45508 14.40806,12.86037 l 15.93748,59.44913 z"
       style="fill:#008000" />
    <path
       style="fill:#008000"
       d="m 418.19727,335.0563 c -0.0451,-6.39531 -2.54889,-13.13156 5.60005,-18.39066 9.32098,-0.48027 12.5611,5.45508 14.40806,12.86037 l 15.93748,59.44913 z"
       id="path3866"
       inkscape:connector-curvature="0"
       sodipodi:nodetypes="ccccc" />
    <path
       sodipodi:nodetypes="ccccc"
       inkscape:connector-curvature="0"
       id="path3868"
       d="m 415.03647,326.55259 c 6.18708,-1.61931 12.09884,-5.70552 19.20347,0.89658 2.76186,8.91535 -2.19229,13.51787 -8.91429,17.13232 l -53.69022,30.09257 z"
       style="fill:#008000" />
    <path
       style="fill:#008000"
       d="m 410.65352,328.53217 c 5.93487,-5.35511 10.09336,-13.23308 21.94849,-10.18021 8.39023,8.0913 5.60716,15.97452 0.26415,23.81011 l -41.94731,63.91496 z"
       id="path3870"
       inkscape:connector-curvature="0"
       sodipodi:nodetypes="ccccc" />
    <path
       sodipodi:nodetypes="ccccc"
       inkscape:connector-curvature="0"
       id="path3872"
       d="m 197.86564,498.06985 c 2.42946,-7.61562 2.05354,-16.51585 13.83258,-19.85025 11.3238,2.76347 12.89054,10.97541 12.22184,20.4357 l -4.04159,76.34372 z"
       style="fill:#008000" />
    <path
       style="fill:#008000"
       d="m 219.23574,505.14277 c -7.81968,-1.65905 -16.63824,-0.39875 -21.12899,-11.78722 1.62215,-11.54269 9.63727,-13.91936 19.11713,-14.19601 l 76.36673,-3.58053 z"
       id="path3874"
       inkscape:connector-curvature="0"
       sodipodi:nodetypes="ccccc" />
    <path
       sodipodi:nodetypes="ccccc"
       inkscape:connector-curvature="0"
       id="path3876"
       d="m 218.36389,502.94045 c -6.16439,-5.08921 -14.56519,-8.05266 -13.27632,-20.22652 6.77929,-9.48189 14.98443,-7.87988 23.51628,-3.73843 l 69.35553,32.16378 z"
       style="fill:#008000" />
    <path
       style="fill:#008000"
       d="m 227.72118,481.86377 c 1.93053,7.75711 6.92316,15.13472 -1.35138,24.1567 -11.08849,3.59308 -16.73327,-2.57354 -21.13086,-10.97624 l -36.64118,-67.09785 z"
       id="path3878"
       inkscape:connector-curvature="0"
       sodipodi:nodetypes="ccccc" />
    <path
       sodipodi:nodetypes="ccccc"
       inkscape:connector-curvature="0"
       id="path3880"
       d="m 224.3828,492.87909 c -6.4795,4.68142 -11.46607,12.06313 -22.92122,7.74531 -7.46537,-8.95171 -3.84558,-16.48748 2.31396,-23.69888 l 48.61741,-59.00039 z"
       style="fill:#008000" />
    <path
       style="fill:#008000"
       d="m 202.29464,476.39978 c 7.81253,-1.69231 15.33944,-6.45689 24.10404,2.08979 3.25215,11.19324 -3.08428,16.64671 -11.61758,20.78517 l -68.18744,34.57124 z"
       id="path3882"
       inkscape:connector-curvature="0"
       sodipodi:nodetypes="ccccc" />
    <path
       style="fill:#ff55dd;stroke:#000000;stroke-width:1px;stroke-linecap:butt;stroke-linejoin:miter;stroke-opacity:1"
       d="m 412.6631,486.42422 c -1.31004,-0.32751 -2.60599,-0.71771 -3.93013,-0.98253 -0.88427,-0.17686 -2.04366,0 -2.94759,0 -1.96506,0 -3.93012,0 -5.89519,0 -1.31004,0 -2.64552,-0.25692 -3.93012,0 -0.45418,0.0908 -0.56826,0.77539 -0.98253,0.98253 -0.29294,0.14647 -0.75095,-0.23159 -0.98253,0 -0.23159,0.23158 0.23158,0.75095 0,0.98253 -0.46317,0.46317 -1.5019,-0.46317 -1.96507,0 -0.23158,0.23158 0.23159,0.75095 0,0.98253 -0.23158,0.23159 -0.65502,0 -0.98253,0 0,0.65502 0.29294,1.3792 0,1.96506 -0.14646,0.29294 -0.68959,-0.14646 -0.98253,0 -0.41427,0.20714 -0.65502,0.65502 -0.98253,0.98253 -0.32751,0.32752 -0.7754,0.56826 -0.98253,0.98254 -0.29294,0.58586 0.46317,1.50189 0,1.96506 -0.23159,0.23158 -0.75095,-0.23159 -0.98253,0 -0.51784,0.51784 -0.75095,1.27031 -0.98253,1.96506 -0.10357,0.3107 0.23158,0.75095 0,0.98253 -0.23159,0.23159 -0.75095,-0.23158 -0.98253,0 -0.23159,0.23159 0.14646,0.6896 0,0.98253 -0.20714,0.41427 -0.72562,0.59715 -0.98254,0.98253 -0.40622,0.60934 -0.5763,1.35573 -0.98253,1.96507 -0.25692,0.38538 -0.72561,0.59715 -0.98253,0.98253 -0.40622,0.60934 -0.75094,1.27031 -0.98253,1.96506 -0.10357,0.3107 0.23159,0.75095 0,0.98253 -0.23158,0.23159 -0.75095,-0.23158 -0.98253,0 -0.51784,0.51784 -0.75095,1.27031 -0.98253,1.96506 -0.10357,0.31071 0.23158,0.75095 0,0.98253 -0.83499,0.835 -2.1126,1.13008 -2.9476,1.96507 -0.23158,0.23158 0.23159,0.75094 0,0.98253 -0.23158,0.23158 -0.68959,-0.14647 -0.98253,0 -0.41427,0.20713 -0.56826,0.77539 -0.98253,0.98253 -0.29293,0.14647 -0.68959,-0.14647 -0.98253,0 -0.41427,0.20714 -0.56826,0.7754 -0.98253,0.98253 -0.29293,0.14647 -0.75095,-0.23158 -0.98253,0 -0.23159,0.23159 0.23158,0.75095 0,0.98253 -0.23159,0.23159 -0.65502,0 -0.98253,0 -1.63755,0 -3.27511,0 -4.91266,0 -5.24016,0 -10.48033,0 -15.7205,0 -1.17472,0 -5.25392,-0.21375 -5.89518,0 -0.69476,0.23159 -1.2546,0.80492 -1.96507,0.98253 -0.63546,0.15887 -1.37919,-0.29293 -1.96506,0 -0.82854,0.41427 -1.1943,1.45123 -1.96506,1.96507 -0.27251,0.18167 -0.75095,-0.23159 -0.98253,0 -0.23159,0.23158 0.18167,0.71002 0,0.98253 -0.51384,0.77076 -1.45122,1.1943 -1.96507,1.96506 -0.18167,0.2725 0.14647,0.6896 0,0.98253 -0.20713,0.41427 -0.65502,0.65502 -0.98253,0.98253 -0.65502,0.65502 -1.1943,1.45122 -1.96506,1.96506 -0.2725,0.18167 -0.6896,-0.14646 -0.98253,0 -0.35141,0.17571 -3.65772,3.52153 -3.93012,3.93013 -0.40623,0.60934 -0.75095,1.27031 -0.98254,1.96506 -0.10356,0.3107 0.14647,0.6896 0,0.98253 -0.20713,0.41427 -0.77539,0.56826 -0.98253,0.98253 -0.14646,0.29294 0.14647,0.6896 0,0.98253 -0.20713,0.41428 -0.77539,0.56826 -0.98253,0.98254 -0.39301,0.78602 0.39301,2.16156 0,2.94759 -0.20713,0.41427 -0.77539,0.56826 -0.98253,0.98253 -1.4457,2.8914 2.27612,-1.29358 -0.98253,1.96506 -0.32751,0.32751 -0.56826,0.7754 -0.98253,0.98253 -0.35532,0.17766 -4.22927,0 -4.91266,0 -0.65502,0 -1.37919,-0.29293 -1.96506,0 -0.29293,0.14647 0.14647,0.6896 0,0.98254 -0.20714,0.41427 -0.7754,0.56825 -0.98253,0.98253 -0.29294,0.58586 0.29293,1.37919 0,1.96506 -0.20714,0.41427 -0.7754,0.56826 -0.98253,0.98253 -0.0257,0.0514 -0.0257,2.89619 0,2.94759 1.08621,2.17243 0.6098,0.3049 1.96506,0.98253 2.42823,1.21412 -0.33915,0.98254 1.96506,0.98254 0.32751,0 0.65502,0 0.98253,0 0.32751,0 1.129,0.29293 0.98253,0 -0.41427,-0.82855 -1.96506,-1.03873 -1.96506,-1.96507 0,-0.73233 1.44723,0.4647 1.96506,0.98253 0.23159,0.23159 -0.23158,0.75095 0,0.98254 0.23159,0.23158 0.65503,0 0.98254,0 2.42662,0 -0.71349,0.23158 2.94759,-1.96507 7.97767,-4.7866 0.41952,0.18768 3.93012,-0.98253 1.46121,-0.48707 2.46892,-1.47799 3.93013,-1.96506 0.62141,-0.20714 1.37919,0.29293 1.96506,0 2.42823,-1.21412 -0.33915,-0.98253 1.96506,-0.98253 2.62009,0 -0.32751,0.32751 0.98253,-0.98253 0.23159,-0.23159 0.75095,0.23158 0.98254,0 0.23158,-0.23159 -0.14647,-0.6896 0,-0.98253 0.41427,-0.82855 1.55079,-1.13652 1.96506,-1.96507 0.14647,-0.29293 -0.10357,-0.67182 0,-0.98253 0.23158,-0.69475 0.75094,-1.27031 0.98253,-1.96506 0.10357,-0.3107 -0.14647,-0.6896 0,-0.98253 2.04453,-4.08906 -0.0678,1.05036 1.96506,-0.98253 0.51784,-0.51784 0.57631,-1.35572 0.98253,-1.96506 0.25692,-0.38538 0.7754,-0.56826 0.98253,-0.98254 0.14647,-0.29293 -0.14646,-0.68959 0,-0.98253 0.20714,-0.41427 0.65503,-0.65502 0.98254,-0.98253 0.32751,-0.32751 0.56826,-0.77539 0.98253,-0.98253 0.29293,-0.14647 0.75094,0.23159 0.98253,0 0.23158,-0.23158 -0.23159,-0.75095 0,-0.98253 0.51784,-0.51784 1.44722,-0.46469 1.96506,-0.98253 0.51784,-0.51784 0.46469,-1.44722 0.98253,-1.96506 0.23159,-0.23159 0.75095,0.23158 0.98253,0 0.23159,-0.23159 -0.23158,-0.75095 0,-0.98253 0.23159,-0.23159 0.75095,0.23158 0.98253,0 0.23159,-0.23159 -0.23158,-0.75095 0,-0.98254 0.23159,-0.23158 0.75095,0.23159 0.98254,0 0.23158,-0.23158 -0.23159,-0.75094 0,-0.98253 0.46316,-0.46317 1.37919,0.29294 1.96506,0 0.41427,-0.20713 0.56826,-0.77539 0.98253,-0.98253 0.29872,-0.14936 3.25166,0 3.93012,0 3.60262,0 7.20523,0 10.80785,0 0.51378,0 3.67177,-0.12917 3.93012,0 0.41427,0.20714 0.56826,0.7754 0.98253,0.98253 0.35532,0.17766 4.22927,0 4.91266,0 0.52488,0 4.63145,0.1406 4.91265,0 0.41428,-0.20713 0.56826,-0.77539 0.98254,-0.98253 0.29293,-0.14647 0.75094,0.23159 0.98253,0 0.23158,-0.23158 -0.23159,-0.75094 0,-0.98253 0.23158,-0.23158 0.75094,0.23159 0.98253,0 0.46317,-0.46317 -0.46317,-1.50189 0,-1.96506 0.23158,-0.23159 0.75094,0.23158 0.98253,0 0.23158,-0.23159 -0.14647,-0.6896 0,-0.98253 0.20713,-0.41427 0.77539,-0.56826 0.98253,-0.98253 0.14647,-0.29294 -0.14647,-0.6896 0,-0.98254 2.04453,-4.08906 -0.0678,1.05037 1.96506,-0.98253 0.23159,-0.23158 -0.14646,-0.68959 0,-0.98253 0.20714,-0.41427 0.7754,-0.56826 0.98253,-0.98253 0.14647,-0.29293 -0.14646,-0.6896 0,-0.98253 0.20714,-0.41427 0.7754,-0.56826 0.98253,-0.98253 0.14647,-0.29294 -0.14646,-0.6896 0,-0.98253 0.41428,-0.82855 1.5508,-1.13652 1.96507,-1.96507 0.14646,-0.29293 -0.23159,-0.75094 0,-0.98253 0.23158,-0.23158 0.68959,0.14647 0.98253,0 4.08906,-2.04453 -1.05036,0.0678 0.98253,-1.96506 0.23158,-0.23158 0.6896,0.14647 0.98253,0 0.41427,-0.20713 0.56826,-0.77539 0.98253,-0.98253 0.29294,-0.14647 0.83607,0.29293 0.98253,0 0.29294,-0.58587 -0.29293,-1.37919 0,-1.96506 0.29294,-0.58587 1.5019,0.46317 1.96507,0 0.23158,-0.23159 -0.23159,-0.75095 0,-0.98253 0.46317,-0.46317 1.50189,0.46317 1.96506,0 0.23158,-0.23159 -0.23159,-0.75095 0,-0.98253 0.34296,-0.34296 2.74367,0.40784 2.94759,0 0.29294,-0.58587 -0.29293,-1.3792 0,-1.96507 0.14647,-0.29293 0.65502,0 0.98253,0 0.32751,0 0.98253,-0.32751 0.98253,0 0,0.32751 -1.31004,0 -0.98253,0 1.63755,0 3.27511,0 4.91266,0 0.98253,0 2.01548,0.31071 2.94759,0 0.4394,-0.14646 0.56826,-0.77539 0.98253,-0.98253 0.29294,-0.14647 0.75095,0.23159 0.98253,0 0.23159,-0.23158 -0.32751,-0.98253 0,-0.98253 0.32751,0 0,1.31004 0,0.98253 0,-2.29257 0,-4.58514 0,-6.87772 0,-0.32751 0.25575,-0.77793 0,-0.98253 -1.49122,-1.19298 -3.2751,-1.96506 -4.91265,-2.94759 z"
       id="path3895"
       inkscape:connector-curvature="0" />
    <path
       sodipodi:type="arc"
       style="fill:#ffffff"
       id="path3901"
       sodipodi:cx="402.59216"
       sodipodi:cy="492.81067"
       sodipodi:rx="4.1757574"
       sodipodi:ry="3.9301248"
       d="m 406.76792,492.81067 a 4.1757574,3.9301248 0 1 1 -8.35151,0 4.1757574,3.9301248 0 1 1 8.35151,0 z" />
    <path
       sodipodi:type="arc"
       style="fill:#ffffff"
       id="path3903"
       sodipodi:cx="403.32904"
       sodipodi:cy="491.95096"
       sodipodi:rx="1.228164"
       sodipodi:ry="0.61408198"
       d="m 404.5572,491.95096 a 1.228164,0.61408198 0 1 1 -2.45632,0 1.228164,0.61408198 0 1 1 2.45632,0 z" />
    <path
       sodipodi:type="arc"
       style="fill:#000000"
       id="path3907"
       sodipodi:cx="402.46933"
       sodipodi:cy="493.0563"
       sodipodi:rx="1.8422459"
       sodipodi:ry="1.9650624"
       d="m 404.31158,493.0563 a 1.8422459,1.9650624 0 1 1 -3.6845,0 1.8422459,1.9650624 0 1 1 3.6845,0 z" />
    <path
       sodipodi:type="arc"
       style="fill:#ffffff"
       id="path3911"
       sodipodi:cx="402.5885"
       sodipodi:cy="492.86774"
       sodipodi:rx="0.49935478"
       sodipodi:ry="0.52106583"
       d="m 403.08786,492.86774 a 0.49935478,0.52106583 0 1 1 -0.99871,0 0.49935478,0.52106583 0 1 1 0.99871,0 z" />
  </g>
</svg>
