<?xml version="1.0" encoding="UTF-8" standalone="no"?>
<!-- Created with Inkscape (http://www.inkscape.org/) -->

<svg
   xmlns:dc="http://purl.org/dc/elements/1.1/"
   xmlns:cc="http://creativecommons.org/ns#"
   xmlns:rdf="http://www.w3.org/1999/02/22-rdf-syntax-ns#"
   xmlns:svg="http://www.w3.org/2000/svg"
   xmlns="http://www.w3.org/2000/svg"
   xmlns:sodipodi="http://sodipodi.sourceforge.net/DTD/sodipodi-0.dtd"
   xmlns:inkscape="http://www.inkscape.org/namespaces/inkscape"
   width="744.09448819"
   height="1052.3622047"
   id="svg5290"
   version="1.1"
   inkscape:version="0.48.4 r9939"
   sodipodi:docname="New document 8">
  <defs
     id="defs5292">
    <inkscape:perspective
       sodipodi:type="inkscape:persp3d"
       inkscape:vp_x="0 : 526.18109 : 1"
       inkscape:vp_y="0 : 1000 : 0"
       inkscape:vp_z="744.09448 : 526.18109 : 1"
       inkscape:persp3d-origin="372.04724 : 350.78739 : 1"
       id="perspective5838" />
  </defs>
  <sodipodi:namedview
     id="base"
     pagecolor="#ffffff"
     bordercolor="#666666"
     borderopacity="1.0"
     inkscape:pageopacity="0.0"
     inkscape:pageshadow="2"
     inkscape:zoom="0.72460937"
     inkscape:cx="253.22053"
     inkscape:cy="455.20914"
     inkscape:document-units="px"
     inkscape:current-layer="layer1"
     showgrid="false"
     inkscape:window-width="1280"
     inkscape:window-height="697"
     inkscape:window-x="-8"
     inkscape:window-y="-8"
     inkscape:window-maximized="1" />
  <metadata
     id="metadata5295">
    <rdf:RDF>
      <cc:Work
         rdf:about="">
        <dc:format>image/svg+xml</dc:format>
        <dc:type
           rdf:resource="http://purl.org/dc/dcmitype/StillImage" />
        <dc:title></dc:title>
      </cc:Work>
    </rdf:RDF>
  </metadata>
  <g
     inkscape:label="Layer 1"
     inkscape:groupmode="layer"
     id="layer1"
     style="display:inline">
    <path
       id="path6554"
       d="m 288.90248,702.56691 30.09205,205.33002 -26.85394,46.92056 -30.09204,-50.1009 z"
       style="fill:#ffffff;fill-opacity:1;fill-rule:nonzero;stroke:#000000;stroke-width:0.99999994;stroke-miterlimit:4;stroke-opacity:1;stroke-dashoffset:0"
       inkscape:connector-curvature="0"
       sodipodi:nodetypes="ccccc" />
    <path
       style="fill:#ffffff;fill-opacity:1;fill-rule:nonzero;stroke:#000000;stroke-width:1;stroke-miterlimit:4;stroke-dashoffset:0;stroke-opacity:1"
       d="m 676.95599,258.54291 60.763,0 0,60.763 -60.763,0 z"
       id="rect6488"
       transform="matrix(0.69964511,0.71449054,-0.71449054,0.69964511,0,0)" />
    <path
       sodipodi:type="arc"
       style="fill:#ffccaa;fill-opacity:1;fill-rule:nonzero;stroke:#000000;stroke-width:0.75112116;stroke-miterlimit:4;stroke-opacity:0;stroke-dasharray:none;stroke-dashoffset:0"
       id="path5824"
       sodipodi:cx="302.23181"
       sodipodi:cy="528.63171"
       sodipodi:rx="114.54447"
       sodipodi:ry="116.61456"
       d="m 416.77628,528.63171 a 114.54447,116.61456 0 1 1 -229.08894,0 114.54447,116.61456 0 1 1 229.08894,0 z"
       transform="matrix(1.3554217,0,0,1.3076923,-117.96961,-208.77451)" />
    <g
       id="g5819">
      <rect
         y="378.89587"
         x="102.12399"
         height="13.800539"
         width="375.37466"
         id="rect5298"
         style="fill:#000000;fill-opacity:1;fill-rule:nonzero;stroke:#000000;stroke-width:1;stroke-miterlimit:4;stroke-opacity:1;stroke-dasharray:none;stroke-dashoffset:0" />
      <path
         inkscape:connector-curvature="0"
         id="path5816"
         d="m 444.375,355.4375 -305,0 0,22.09375 305,0 0,-22.09375 z"
         style="fill:#00ff00;fill-opacity:1;fill-rule:nonzero;stroke:#000000;stroke-width:1;stroke-miterlimit:4;stroke-opacity:1;stroke-dasharray:none;stroke-dashoffset:0" />
      <path
         inkscape:connector-curvature="0"
         id="rect5808"
         d="m 139.375,249.15625 0,106.28125 305,0 0,-106.28125 -305,0 z"
         style="fill:#000000;fill-opacity:1;fill-rule:nonzero;stroke:#000000;stroke-width:1;stroke-miterlimit:4;stroke-opacity:1;stroke-dasharray:none;stroke-dashoffset:0" />
    </g>
    <path
       sodipodi:type="arc"
       style="fill:#ffffff;fill-opacity:1;fill-rule:nonzero;stroke:#000000;stroke-width:1;stroke-miterlimit:4;stroke-opacity:0;stroke-dasharray:none;stroke-dashoffset:0"
       id="path5826"
       sodipodi:cx="235.29919"
       sodipodi:cy="445.13846"
       sodipodi:rx="18.630728"
       sodipodi:ry="31.74124"
       d="m 253.92992,445.13846 a 18.630728,31.74124 0 1 1 -37.26145,0 18.630728,31.74124 0 1 1 37.26145,0 z"
       transform="translate(0,2)" />
    <path
       d="m 253.92992,445.13846 a 18.630728,31.74124 0 1 1 -37.26145,0 18.630728,31.74124 0 1 1 37.26145,0 z"
       sodipodi:ry="31.74124"
       sodipodi:rx="18.630728"
       sodipodi:cy="445.13846"
       sodipodi:cx="235.29919"
       id="path5828"
       style="fill:#ffffff;fill-opacity:1;fill-rule:nonzero;stroke:#000000;stroke-width:1;stroke-miterlimit:4;stroke-opacity:0;stroke-dasharray:none;stroke-dashoffset:0"
       sodipodi:type="arc"
       transform="translate(114,2)" />
    <path
       sodipodi:type="arc"
       style="fill:#000000;fill-opacity:1;fill-rule:nonzero;stroke:#000000;stroke-width:0.65795171;stroke-miterlimit:4;stroke-opacity:0;stroke-dasharray:none;stroke-dashoffset:0"
       id="path5830"
       sodipodi:cx="238.74933"
       sodipodi:cy="455.48886"
       sodipodi:rx="2.7601078"
       sodipodi:ry="17.250673"
       d="m 241.50944,455.48886 a 2.7601078,17.250673 0 1 1 -5.52022,0 2.7601078,17.250673 0 1 1 5.52022,0 z"
       transform="matrix(2.75,0,0,0.83999999,-416.64152,71.638328)" />
    <path
       transform="matrix(3,0,0,0.87999999,-367.63883,52.728746)"
       d="m 241.50944,455.48886 a 2.7601078,17.250673 0 1 1 -5.52022,0 2.7601078,17.250673 0 1 1 5.52022,0 z"
       sodipodi:ry="17.250673"
       sodipodi:rx="2.7601078"
       sodipodi:cy="455.48886"
       sodipodi:cx="238.74933"
       id="path5834"
       style="fill:#000000;fill-opacity:1;fill-rule:nonzero;stroke:#000000;stroke-width:0.61545748;stroke-miterlimit:4;stroke-opacity:0;stroke-dasharray:none;stroke-dashoffset:0"
       sodipodi:type="arc" />
    <path
       style="fill:#ffccaa;fill-opacity:1;fill-rule:nonzero;stroke:#000000;stroke-width:1;stroke-miterlimit:4;stroke-opacity:1;stroke-dasharray:none;stroke-dashoffset:0"
       d="m 241.19771,518.78805 c 0,-22.86549 43.17186,-66.24259 57.27224,-66.24259 14.10038,0 11.73046,29.57656 11.73046,52.44205 0,22.86548 -34.89154,33.1213 -48.99192,33.1213 -14.10038,0 -20.01078,3.54472 -20.01078,-19.32076 z"
       id="path5840"
       inkscape:connector-curvature="0"
       sodipodi:nodetypes="sssss" />
    <path
       style="fill:#ff0000;fill-opacity:1;fill-rule:nonzero;stroke:none"
       d="M 202.90625 548.53125 C 190.27852 546.95028 182.15625 546.70913 182.15625 550.03125 C 182.15625 559.17744 242.44673 591.4375 294.65625 591.4375 C 346.86577 591.4375 396.0625 559.17744 396.0625 550.03125 C 396.0625 546.70684 389.4423 546.94726 378.65625 548.53125 C 378.3144 548.74587 378.10038 548.94092 377.75 549.15625 C 373.94801 551.49281 369.64558 553.85447 364.9375 556.15625 C 360.22942 558.45803 355.12104 560.69926 349.6875 562.75 C 344.25396 564.80074 338.50963 566.66657 332.53125 568.25 C 329.54206 569.04171 326.46653 569.74066 323.375 570.375 C 320.28347 571.00934 317.1713 571.58133 314 572.03125 C 310.8287 572.48117 307.60349 572.82402 304.375 573.0625 C 301.14651 573.30098 297.91935 573.4375 294.65625 573.4375 C 291.39315 573.4375 288.0906 573.30098 284.78125 573.0625 C 281.4719 572.82402 278.13474 572.48117 274.8125 572.03125 C 271.49026 571.58133 268.17677 571.00934 264.875 570.375 C 261.57323 569.74066 258.2792 569.04171 255.03125 568.25 C 248.53535 566.66657 242.20544 564.80074 236.125 562.75 C 230.04456 560.69926 224.2106 558.45803 218.8125 556.15625 C 213.4144 553.85447 208.44889 551.49281 204 549.15625 C 203.58326 548.93738 203.31338 548.74939 202.90625 548.53125 z "
       id="path5849" />
    <path
       style="fill:#ffffff;fill-opacity:1;fill-rule:nonzero;stroke:none"
       d="M 202.90625 548.53125 C 203.31338 548.74939 203.58326 548.93738 204 549.15625 C 208.44889 551.49281 213.4144 553.85447 218.8125 556.15625 C 224.2106 558.45803 230.04456 560.69926 236.125 562.75 C 242.20544 564.80074 248.53535 566.66657 255.03125 568.25 C 258.2792 569.04171 261.57323 569.74066 264.875 570.375 C 268.17677 571.00934 271.49026 571.58133 274.8125 572.03125 C 278.13474 572.48117 281.4719 572.82402 284.78125 573.0625 C 288.0906 573.30098 291.39315 573.4375 294.65625 573.4375 C 297.91935 573.4375 301.14651 573.30098 304.375 573.0625 C 307.60349 572.82402 310.8287 572.48117 314 572.03125 C 317.1713 571.58133 320.28347 571.00934 323.375 570.375 C 326.46653 569.74066 329.54206 569.04171 332.53125 568.25 C 338.50963 566.66657 344.25396 564.80074 349.6875 562.75 C 355.12104 560.69926 360.22942 558.45803 364.9375 556.15625 C 369.64558 553.85447 373.94801 551.49281 377.75 549.15625 C 378.10038 548.94092 378.3144 548.74587 378.65625 548.53125 C 359.76748 551.30517 327.88893 558.3125 294.65625 558.3125 C 261.41047 558.3125 225.04421 551.30288 202.90625 548.53125 z "
       id="path5843" />
    <g
       id="g6490">
      <g
         id="g6496">
        <path
           style="fill:#ffccaa;fill-opacity:1;fill-rule:nonzero;stroke:none"
           d="M 271.78125 615.75 L 271.78125 695.78125 L 311.78125 695.78125 L 311.78125 615.75 L 271.78125 615.75 z "
           id="rect5851" />
        <path
           style="fill:#000000;fill-opacity:1;fill-rule:nonzero;stroke:none"
           d="M 236.9375 659.71875 C 232.34059 659.79664 229.09375 661.2935 229.09375 664.4375 C 229.09375 672.82151 247.73727 700.3125 262.21875 700.3125 C 276.70022 700.3125 296.37326 698.67864 293.9375 690.65625 C 292.9266 687.32675 274.17496 682.56382 262.21875 669.9375 C 255.99556 663.36551 244.59902 659.58894 236.9375 659.71875 z "
           id="path5853" />
        <path
           style="fill:#000000;fill-opacity:1;fill-rule:nonzero;stroke:none"
           d="M 341.125 659.71875 C 333.51418 659.96496 322.94328 663.69411 317.03125 669.9375 C 305.07504 682.56382 286.29215 687.32675 285.28125 690.65625 C 282.84549 698.67864 302.54978 700.3125 317.03125 700.3125 C 331.51273 700.3125 350.15625 672.82151 350.15625 664.4375 C 350.15625 661.0315 346.3324 659.55029 341.125 659.71875 z "
           id="path5856" />
      </g>
    </g>
    <path
       sodipodi:type="spiral"
       style="fill:none;stroke:#000000;stroke-width:1px;stroke-linecap:butt;stroke-linejoin:miter;stroke-opacity:1"
       id="path6507"
       sodipodi:cx="-222.18867"
       sodipodi:cy="482.39993"
       sodipodi:expansion="1"
       sodipodi:revolution="2.6281676"
       sodipodi:radius="15.523941"
       sodipodi:argument="-126.86754"
       sodipodi:t0="0"
       d="m -222.18867,482.39993 c 0.31876,-0.82931 1.27516,0.0205 1.37837,0.52981 0.27968,1.3801 -1.23941,2.29749 -2.438,2.22694 -2.144,-0.1262 -3.3891,-2.37608 -3.07549,-4.34618 0.46023,-2.89121 3.52467,-4.50339 6.25436,-3.92406 3.63825,0.77217 5.62677,4.67704 4.77262,8.16255 -1.07487,4.38616 -5.83109,6.75472 -10.07073,5.62118 -5.13477,-1.37287 -7.8853,-6.98607 -6.46974,-11.97892 1.66819,-5.88389 8.14162,-9.01752 13.88709,-7.31829 6.63338,1.96182 10.15086,9.29756 8.16686,15.79527 -2.25434,7.38312 -10.45377,11.28495 -17.70346,9.01542 -3.91603,-1.22592 -7.19443,-4.08735 -9.00924,-7.75942"
       transform="translate(576,50)" />
    <g
       id="g6540"
       transform="translate(576,50)">
      <g
         id="g6537">
        <path
           d="m -222.18867,482.39993 c 0.31876,-0.82931 1.27516,0.0205 1.37837,0.52981 0.27968,1.3801 -1.23941,2.29749 -2.438,2.22694 -2.144,-0.1262 -3.3891,-2.37608 -3.07549,-4.34618 0.46023,-2.89121 3.52467,-4.50339 6.25436,-3.92406 3.63825,0.77217 5.62677,4.67704 4.77262,8.16255 -1.07487,4.38616 -5.83109,6.75472 -10.07073,5.62118 -5.13477,-1.37287 -7.8853,-6.98607 -6.46974,-11.97892 1.66819,-5.88389 8.14162,-9.01752 13.88709,-7.31829 6.63338,1.96182 10.15086,9.29756 8.16686,15.79527 -2.25434,7.38312 -10.45377,11.28495 -17.70346,9.01542 -3.91603,-1.22592 -7.19443,-4.08735 -9.00924,-7.75942"
           sodipodi:t0="0"
           sodipodi:argument="-126.86754"
           sodipodi:radius="15.523941"
           sodipodi:revolution="2.6281676"
           sodipodi:expansion="1"
           sodipodi:cy="482.39993"
           sodipodi:cx="-222.18867"
           id="path6509"
           style="fill:none;stroke:#000000;stroke-width:1px;stroke-linecap:butt;stroke-linejoin:miter;stroke-opacity:1"
           sodipodi:type="spiral"
           transform="matrix(0.99755138,-0.0699374,0.0699374,0.99755138,-33.231882,-13.859741)" />
      </g>
    </g>
    <path
       sodipodi:type="spiral"
       style="fill:#ffccaa;fill-opacity:1;stroke:#000000;stroke-width:1px;stroke-linecap:butt;stroke-linejoin:miter;stroke-opacity:1"
       id="path6511"
       sodipodi:cx="-222.18867"
       sodipodi:cy="482.39993"
       sodipodi:expansion="1"
       sodipodi:revolution="2.6281676"
       sodipodi:radius="15.523941"
       sodipodi:argument="-126.86754"
       sodipodi:t0="0"
       d="m -222.18867,482.39993 c 0.31876,-0.82931 1.27516,0.0205 1.37837,0.52981 0.27968,1.3801 -1.23941,2.29749 -2.438,2.22694 -2.144,-0.1262 -3.3891,-2.37608 -3.07549,-4.34618 0.46023,-2.89121 3.52467,-4.50339 6.25436,-3.92406 3.63825,0.77217 5.62677,4.67704 4.77262,8.16255 -1.07487,4.38616 -5.83109,6.75472 -10.07073,5.62118 -5.13477,-1.37287 -7.8853,-6.98607 -6.46974,-11.97892 1.66819,-5.88389 8.14162,-9.01752 13.88709,-7.31829 6.63338,1.96182 10.15086,9.29756 8.16686,15.79527 -2.25434,7.38312 -10.45377,11.28495 -17.70346,9.01542 -3.91603,-1.22592 -7.19443,-4.08735 -9.00924,-7.75942"
       transform="matrix(-1,0,0,1,-15.72787,44)" />
    <path
       style="fill:#ffccaa;fill-opacity:1;fill-rule:nonzero;stroke:#000000;stroke-width:1;stroke-miterlimit:4;stroke-opacity:1;stroke-dasharray:none;stroke-dashoffset:0"
       d=""
       id="path6517"
       inkscape:connector-curvature="0" />
    <path
       style="fill:#ffccaa;fill-opacity:1;fill-rule:nonzero;stroke:#000000;stroke-width:1;stroke-miterlimit:4;stroke-opacity:1;stroke-dasharray:none;stroke-dashoffset:0"
       d=""
       id="path6519"
       inkscape:connector-curvature="0" />
    <path
       style="fill:#ffccaa;fill-opacity:1;fill-rule:nonzero;stroke:#000000;stroke-width:1;stroke-miterlimit:4;stroke-opacity:1;stroke-dasharray:none;stroke-dashoffset:0"
       d=""
       id="path6521"
       inkscape:connector-curvature="0" />
    <path
       style="fill:#ffccaa;fill-opacity:1;fill-rule:nonzero;stroke:#000000;stroke-width:1;stroke-miterlimit:4;stroke-opacity:1;stroke-dasharray:none;stroke-dashoffset:0"
       d=""
       id="path6523"
       inkscape:connector-curvature="0" />
    <path
       style="fill:#ffccaa;fill-opacity:1;fill-rule:nonzero;stroke:#000000;stroke-width:1;stroke-miterlimit:4;stroke-opacity:1;stroke-dasharray:none;stroke-dashoffset:0"
       d=""
       id="path6525"
       inkscape:connector-curvature="0" />
    <path
       style="fill:#ffccaa;fill-opacity:1;fill-rule:nonzero;stroke:#000000;stroke-width:1;stroke-miterlimit:4;stroke-opacity:1;stroke-dasharray:none;stroke-dashoffset:0"
       d=""
       id="path6527"
       inkscape:connector-curvature="0" />
    <path
       style="fill:#ffccaa;fill-opacity:1;fill-rule:nonzero;stroke:#000000;stroke-width:1;stroke-miterlimit:4;stroke-opacity:1;stroke-dasharray:none;stroke-dashoffset:0"
       d=""
       id="path6529"
       inkscape:connector-curvature="0" />
    <path
       style="fill:#ffccaa;fill-opacity:1;fill-rule:nonzero;stroke:#000000;stroke-width:1;stroke-miterlimit:4;stroke-opacity:1;stroke-dasharray:none;stroke-dashoffset:0"
       d=""
       id="path6531"
       inkscape:connector-curvature="0" />
    <path
       transform="matrix(-0.99755138,-0.0699374,-0.0699374,0.99755138,18.13399,30.140259)"
       sodipodi:type="spiral"
       style="fill:none;stroke:#000000;stroke-width:1px;stroke-linecap:butt;stroke-linejoin:miter;stroke-opacity:1"
       id="path6535"
       sodipodi:cx="-222.18867"
       sodipodi:cy="482.39993"
       sodipodi:expansion="1"
       sodipodi:revolution="2.6281676"
       sodipodi:radius="15.523941"
       sodipodi:argument="-126.86754"
       sodipodi:t0="0"
       d="m -222.18867,482.39993 c 0.31876,-0.82931 1.27516,0.0205 1.37837,0.52981 0.27968,1.3801 -1.23941,2.29749 -2.438,2.22694 -2.144,-0.1262 -3.3891,-2.37608 -3.07549,-4.34618 0.46023,-2.89121 3.52467,-4.50339 6.25436,-3.92406 3.63825,0.77217 5.62677,4.67704 4.77262,8.16255 -1.07487,4.38616 -5.83109,6.75472 -10.07073,5.62118 -5.13477,-1.37287 -7.8853,-6.98607 -6.46974,-11.97892 1.66819,-5.88389 8.14162,-9.01752 13.88709,-7.31829 6.63338,1.96182 10.15086,9.29756 8.16686,15.79527 -2.25434,7.38312 -10.45377,11.28495 -17.70346,9.01542 -3.91603,-1.22592 -7.19443,-4.08735 -9.00924,-7.75942" />
    <path
       style="fill:none;stroke:#000000;stroke-width:1px;stroke-linecap:butt;stroke-linejoin:miter;stroke-opacity:1"
       d="m 220.16046,532.64632 c 0,0 61.37054,33.93689 61.37054,2.19565"
       id="path6550"
       inkscape:connector-curvature="0"
       sodipodi:nodetypes="cc" />
    <path
       inkscape:connector-curvature="0"
       id="path6552"
       d="m 340.06775,538.98215 c 0,0 -58.63917,31.05121 -58.63917,-6.90027"
       style="fill:none;stroke:#000000;stroke-width:1px;stroke-linecap:butt;stroke-linejoin:miter;stroke-opacity:1"
       sodipodi:nodetypes="cc" />
    <path
       style="fill:none;stroke:#000000;stroke-width:1px;stroke-linecap:butt;stroke-linejoin:miter;stroke-opacity:1"
       d="m -478.87871,341.63442 c 0,4.60018 0,9.20036 0,13.80054 0,0.92003 0.11412,1.84718 0,2.76011 -0.34707,2.77657 -1.07104,5.49925 -1.38005,8.28032 -0.1524,1.37161 0.36312,2.80874 0,4.14016 -1.03416,3.79191 -2.79698,7.34667 -4.14016,11.04043 -0.49714,1.36712 -1.23531,2.69268 -1.38006,4.14016 -0.32041,3.20415 0.35561,6.45995 0,9.66038 -0.11359,1.02234 -1.46547,1.73503 -1.38005,2.76011 0.38959,4.67508 1.77715,9.21339 2.76011,13.80054 0.39741,1.8546 1.06824,3.64932 1.38005,5.52021 0.009,0.0514 -0.005,4.13472 0,4.14017 0.32528,0.32528 0.92004,0 1.38006,0 2.30009,0 4.60018,0 6.90027,0 9.39791,0 -1.9517,0.19517 13.80053,-1.38006 2.74641,-0.27464 5.57382,0.5413 8.28033,0 1.00865,-0.20173 1.78426,-1.05477 2.76011,-1.38005 0.80744,-0.26915 9.50661,0 11.04043,0 0.46002,0 -0.92004,0 -1.38006,0"
       id="path6581"
       inkscape:connector-curvature="0" />
    <path
       style="fill:none;stroke:#000000;stroke-width:1px;stroke-linecap:butt;stroke-linejoin:miter;stroke-opacity:1"
       d="m -469.21833,373.37566 c 9.68424,-1.55194 19.27767,-1.38005 28.98113,-1.38005 0.92004,0 1.84008,0 2.76011,0 0.46002,0 1.05477,-0.32529 1.38005,0 0.32529,0.32528 0.46002,1.38005 0,1.38005 -0.46001,0 0,-0.92004 0,-1.38005"
       id="path6583"
       inkscape:connector-curvature="0" />
    <path
       style="fill:none;stroke:#000000;stroke-width:1px;stroke-linecap:butt;stroke-linejoin:miter;stroke-opacity:1"
       d="m -425.0566,344.39453 c 0,0.46002 0.46001,1.38005 0,1.38005 -0.65057,0 -0.79818,-1.08911 -1.38006,-1.38005 -0.41145,-0.20573 -0.92003,0 -1.38005,0 -2.30009,0 -4.60018,0 -6.90027,0 -0.46002,0 -0.92004,0 -1.38006,0 -0.46001,0 -0.9686,0.20572 -1.38005,0 -0.58188,-0.29094 -0.76287,-1.17433 -1.38005,-1.38006 -0.87283,-0.29094 -1.84007,0 -2.76011,0 -1.38005,0 -2.77077,0.17118 -4.14016,0 -2.32753,-0.29094 -4.60018,-0.92003 -6.90027,-1.38005 -1.84007,1.38005 -3.54791,2.95678 -5.52022,4.14016 -0.27781,0.16669 -6.11093,0 -6.90027,0 -0.92003,0 -3.68014,0 -2.7601,0 0.92003,0 3.68014,0 2.7601,0 -1.38005,0 -2.7601,0 -4.14016,0 -0.46002,0 -1.38005,0.46002 -1.38005,0 0,-0.65056 0.92003,-0.92003 1.38005,-1.38005"
       id="path6585"
       inkscape:connector-curvature="0" />
    <path
       style="fill:none;stroke:#000000;stroke-width:1px;stroke-linecap:butt;stroke-linejoin:miter;stroke-opacity:1"
       d="m -386.41509,431.33792 c -1.93875,-4.48008 -1.38006,-9.1015 -1.38006,-13.80054 0,-2.7601 0,-5.52021 0,-8.28032 0,-0.46002 -0.14547,-0.94364 0,-1.38005 0.78338,-2.35015 2.07955,-4.51832 2.76011,-6.90027 0.25275,-0.88464 0,-1.84007 0,-2.76011 0.46002,-0.92004 1.05477,-1.78426 1.38005,-2.76011 0.14547,-0.43641 -0.32528,-1.05477 0,-1.38005 2.85252,-2.85252 1.87416,-0.81355 4.14017,-1.38006 1.41127,-0.35281 2.83903,-0.72949 4.14016,-1.38005 0.58188,-0.29094 0.74212,-1.25247 1.38005,-1.38005 1.80434,-0.36087 3.68014,0 5.52022,0 3.22012,0 6.44025,0 9.66037,0 0.19699,0 6.66254,-0.15849 6.90027,0 1.08261,0.72173 1.67751,2.03837 2.76011,2.7601 0.38276,0.25518 0.9973,-0.25517 1.38006,0 1.0826,0.72174 1.84007,1.84008 2.7601,2.76011 0.46002,0.46002 0.98972,0.85961 1.38006,1.38006 3.97366,5.29822 4.38281,6.97612 5.52021,13.80054 0.0756,0.45375 0,0.92003 0,1.38005 0,2.76011 0,5.52021 0,8.28032 0,1.38006 -0.19517,2.77398 0,4.14016 0.26824,1.87764 1.00808,3.66035 1.38006,5.52022 0.30686,1.53433 0,3.90735 0,5.52022"
       id="path6589"
       inkscape:connector-curvature="0" />
    <path
       style="fill:none;stroke:#000000;stroke-width:1px;stroke-linecap:butt;stroke-linejoin:miter;stroke-opacity:1"
       d="m -223.56873,418.91744 c 6.04607,1.51152 6.7549,2.1629 13.80054,1.38005 1.4458,-0.16064 2.7137,-1.09476 4.14016,-1.38005 23.66776,-3.38111 0.95421,0.45147 13.80054,-2.76011 2.83076,-3.57186 6.50468,-0.59113 9.66037,-1.38005 0.99792,-0.24948 1.90424,-0.80947 2.76011,-1.38006 0.5413,-0.36086 0.8596,-0.98971 1.38006,-1.38005 1.32689,-0.99517 2.96734,-1.58729 4.14016,-2.76011 0.32528,-0.32528 -0.25517,-0.99729 0,-1.38005 0.72173,-1.08261 1.97943,-1.71921 2.76011,-2.76011 0.61717,-0.82291 0.99803,-1.80505 1.38005,-2.76011 1.78328,-4.4582 1.38005,-4.99409 1.38005,-9.66038 0,-1.6995 0.20573,-2.55438 -1.38005,-4.14016 -0.72735,-0.72735 -1.84007,-0.92003 -2.76011,-1.38005 -0.92003,-0.46002 -1.75145,-1.17832 -2.76011,-1.38006 -2.25542,-0.45108 -4.60018,0 -6.90027,0 -1.04447,0 -7.30918,0 -9.66037,0 -0.92004,0 -1.84008,0 -2.76011,0 -0.46002,0 -0.9686,-0.20572 -1.38005,0 -2.39917,1.19958 -4.57135,2.80935 -6.90027,4.14017 -0.89311,0.51034 -2.1016,0.58983 -2.76011,1.38005 -1.7172,2.06063 -2.39452,4.86368 -4.14016,6.90027 -1.07942,1.25932 -3.28681,1.33785 -4.14017,2.76011 -2.02217,3.37028 -2.27676,7.57983 -4.14016,11.04043 -1.39648,2.59347 -4.80581,4.04266 -5.52021,6.90027 -0.78893,3.1557 1.05638,6.4237 1.38005,9.66038 0.13732,1.3732 0,2.7601 0,4.14016 0,2.30009 0,4.60018 0,6.90027 0,4.60018 0,9.20036 0,13.80054 0,0.46001 -0.32528,1.05477 0,1.38005 1.17282,1.17282 2.81327,1.76494 4.14016,2.76011 0.52045,0.39034 0.92004,0.92003 1.38006,1.38005 2.7601,1.84007 5.38053,3.90923 8.28032,5.52022 1.27164,0.70646 2.7895,0.83979 4.14016,1.38005 0.5851,0.23404 10.66027,4.89216 13.80054,5.52022 0.90217,0.18043 1.84007,0 2.76011,0"
       id="path6595"
       inkscape:connector-curvature="0" />
    <path
       style="fill:none;stroke:#000000;stroke-width:1px;stroke-linecap:butt;stroke-linejoin:miter;stroke-opacity:1"
       d="m -133.86523,388.55625 c 1.90441,21.57319 1.38005,43.23362 1.38005,64.86254 0,4.14016 0,8.28032 0,12.42048 0,0.92004 0,1.84007 0,2.76011 0,0.46002 0.46002,1.38005 0,1.38005 -0.46001,0 0,-0.92003 0,-1.38005"
       id="path6597"
       inkscape:connector-curvature="0" />
    <path
       style="fill:none;stroke:#000000;stroke-width:1px;stroke-linecap:butt;stroke-linejoin:miter;stroke-opacity:1"
       d="m -505.09973,616.26515 c 1.81504,-3.52993 -0.60501,-7.41036 0,-11.04043 0.9001,-5.4006 2.5247,-13.39741 4.14016,-19.32076 0.88118,-3.23097 2.10332,-6.37643 2.76011,-9.66038 0.27065,-1.35325 -0.28916,-2.79074 0,-4.14016 1.09898,-5.12858 2.86806,-10.09218 4.14016,-15.18059 0.70656,-2.82623 2.45251,-12.71979 2.76011,-15.18059 0.11412,-0.91293 -0.15125,-1.85259 0,-2.76011 1.60319,-9.61917 1.38005,-2.06819 1.38005,-8.28032 0,-0.92004 0.41146,-1.93721 0,-2.76011 -0.20572,-0.41146 -1.38005,0.46002 -1.38005,0 0,-0.46002 0.92003,0 1.38005,0"
       id="path6601"
       inkscape:connector-curvature="0" />
    <path
       style="fill:none;stroke:#000000;stroke-width:1px;stroke-linecap:butt;stroke-linejoin:miter;stroke-opacity:1"
       d="m -451.27763,628.68563 c -2.81639,-69.00154 -2.76011,-45.06299 -2.76011,-71.7628 0,-2.30009 0,-4.60018 0,-6.90027 0,-0.46002 -0.11157,-0.93377 0,-1.38005 3.48589,-13.94353 -0.49832,0.99665 2.76011,-5.52022 0.9518,-1.90359 -1.67132,-1.23442 1.38006,-2.76011 0.41053,-0.20526 7.69978,0 8.28032,0 0.92004,0 1.88728,-0.29094 2.76011,0 4.57657,1.52553 4.54792,1.78782 6.90027,4.14016 3.42421,3.42422 8.69404,7.72772 11.04043,12.42049 0.20572,0.41145 -0.11157,0.93377 0,1.38005 0.81225,3.24899 2.03361,6.39115 2.76011,9.66038 0.19958,0.89813 0,1.84007 0,2.76011 0,2.30009 0,4.60018 0,6.90027 0,0.92003 0.18043,1.85794 0,2.76011 -0.7853,3.92649 -1.38006,3.68014 -2.76011,6.90027 -0.97585,2.27697 -2.07955,4.51831 -2.76011,6.90027 -0.25275,0.88463 0.13011,1.84931 0,2.7601 -0.33172,2.32207 -1.04833,4.57821 -1.38005,6.90027 -0.13012,0.91079 0,1.84007 0,2.76011 0,1.38005 0,2.76011 0,4.14016 0,3.82163 -1.38006,-1.06152 -1.38006,2.76011 0,0.46002 -0.46002,1.38005 0,1.38005 0.65057,0 0.92004,-0.92003 1.38006,-1.38005"
       id="path6603"
       inkscape:connector-curvature="0" />
    <path
       style="fill:none;stroke:#000000;stroke-width:1px;stroke-linecap:butt;stroke-linejoin:miter;stroke-opacity:1"
       d="m -387.79515,584.52391 c -0.46002,5.98023 -1.71276,11.95203 -1.38005,17.9407 0.13741,2.47346 1.89028,4.58073 2.76011,6.90027 0.51078,1.36208 0.72949,2.83903 1.38005,4.14016 2.70523,5.41045 5.64313,6.5762 11.04043,9.66038 0.8931,0.51034 1.74182,1.23458 2.76011,1.38005 2.27697,0.32528 4.60018,0 6.90027,0 4.0854,0 5.00767,0.34169 9.66038,-2.76011 0.85587,-0.57058 0.86971,-1.867 1.38005,-2.7601 1.49252,-2.61192 4.15885,-6.48387 5.52022,-9.66038 1.24994,-2.91655 3.18077,-7.68258 4.14016,-11.04043 0.52106,-1.82373 0.78026,-3.72085 1.38005,-5.52022 3.3321,-9.9963 -0.39787,2.1758 2.76011,-4.14016 0.27359,-0.54718 -0.28213,-3.85803 0,-4.14016 1.84007,-1.84007 1.38005,2.30009 1.38005,-1.38006"
       id="path6605"
       inkscape:connector-curvature="0" />
    <path
       style="fill:none;stroke:#000000;stroke-width:1px;stroke-linecap:butt;stroke-linejoin:miter;stroke-opacity:1"
       d="m -328.45283,627.30558 c 10.6844,-21.3688 10.23416,-15.05694 12.42048,-30.36119 0.47047,-3.29328 -1.63322,0.50634 1.38006,-5.52021 2.73879,-5.47759 0.43619,6.09939 2.76011,-5.52022 0,-9.15412 -0.65057,1.95169 1.38005,-4.14016 0.29094,-0.87282 -0.41145,-1.9372 0,-2.76011 0.20573,-0.41145 1.05477,0.32528 1.38005,0 0.32529,-0.32528 0,-0.92003 0,-1.38005 0,-0.46002 0.46002,-1.38006 0,-1.38006 -0.65056,0 -0.92003,1.84008 -1.38005,1.38006 -0.46002,-0.46002 0.92004,-0.92004 1.38005,-1.38006"
       id="path6607"
       inkscape:connector-curvature="0" />
    <path
       style="fill:none;stroke:#000000;stroke-width:1px;stroke-linecap:butt;stroke-linejoin:miter;stroke-opacity:1"
       d="m -309.13208,554.16272 8.28033,2.76011"
       id="path6609"
       inkscape:connector-curvature="0" />
    <path
       style="fill:none;stroke:#000000;stroke-width:1px;stroke-linecap:butt;stroke-linejoin:miter;stroke-opacity:1"
       d="m -281.531,609.36488 c 7.82655,-1.63259 15.5819,-1.38006 23.46092,-1.38006 1.84007,0 3.71588,0.36087 5.52021,0 0.63793,-0.12758 0.85961,-0.98971 1.38006,-1.38005 1.32689,-0.99517 2.845,-1.72398 4.14016,-2.76011 1.54877,-1.23901 3.7109,-3.3739 4.14016,-5.52021 0.27065,-1.35326 0,-2.76011 0,-4.14016 0,-3.97456 0.27601,0.46001 -4.14016,-6.90027 -0.23668,-0.39447 0.32528,-1.05478 0,-1.38006 -1.62641,-1.62641 -3.72415,-2.70331 -5.52022,-4.14016 -0.508,-0.4064 -0.83875,-1.01919 -1.38005,-1.38005 -2.86318,-1.90879 -5.41714,-1.90879 -8.28032,0 -0.5413,0.36086 -0.97365,0.87205 -1.38006,1.38005 -3.20614,4.00767 -3.80525,4.5074 -5.52021,8.28032 -1.8748,4.12456 -3.07023,8.6094 -5.52022,12.42049 -1.75898,2.7362 -5.61892,3.91046 -6.90027,6.90027 -1.64092,3.82883 -0.44337,8.36152 -1.38005,12.42048 -0.4626,2.00458 -1.90881,3.64736 -2.76011,5.52022 -1.44971,3.18937 -2.69045,6.47101 -4.14016,9.66038 -0.8513,1.87286 -2.26115,3.52437 -2.76011,5.52021 -0.55785,2.23142 0,4.60018 0,6.90027 0,1.38006 -0.27065,2.78691 0,4.14016 0.20173,1.00866 0.6527,2.03276 1.38006,2.76011 4.43829,4.4383 4.31481,3.25421 8.28032,5.52022 2.32892,1.33081 4.57134,2.80934 6.90027,4.14016 2.94233,1.68133 4.5543,2.1391 8.28032,2.76011 0.90752,0.15125 1.88729,-0.29094 2.76011,0 0.61718,0.20572 1.38005,0.72949 1.38005,1.38005 0,0.46002 -0.92003,0 -1.38005,0"
       id="path6611"
       inkscape:connector-curvature="0" />
    <path
       style="fill:none;stroke:#000000;stroke-width:1px;stroke-linecap:butt;stroke-linejoin:miter;stroke-opacity:1"
       d="m -231.84906,621.78536 c 1.74251,4.12523 1.38006,8.12873 1.38006,12.42049 0,0.92003 -0.29094,1.88728 0,2.76011 0.20572,0.61718 1.08911,0.79817 1.38005,1.38005 0.20573,0.41145 -0.32528,1.05477 0,1.38005 0.32528,0.32529 1.05477,0.32529 1.38006,0 0.32528,-0.32528 0,-0.92003 0,-1.38005 0,-0.46002 0,-0.92004 0,-1.38005 0,-0.92004 0,-1.84008 0,-2.76011 0,-0.92004 0.29094,-1.88729 0,-2.76011 -1.10787,-3.32361 -4.14017,-6.15698 -4.14017,-9.66038 0,-3.08589 3.05664,-5.39091 4.14017,-8.28032 0.32304,-0.86146 0,-1.84007 0,-2.76011 0,-1.38005 0,-2.76011 0,-4.14016 0,-2.76011 0,-5.52022 0,-8.28032 0,-2.48923 -0.61718,-4.90304 1.38005,-6.90027 0.32528,-0.32528 1.05477,0.32528 1.38005,0 0.32528,-0.32528 -0.32528,-1.05477 0,-1.38006 0.32528,-0.32528 0.92004,0 1.38006,0 2.30009,0 4.60018,0 6.90027,0 1.82986,0 12.22691,-0.26227 13.80054,0 3.21218,0.53537 4.48712,3.91145 6.90027,5.52022 10.74903,7.16602 -1.69559,-4.45569 6.90026,4.14016 0.92004,0.92004 1.71921,1.97943 2.76011,2.76011 3.17156,2.37867 2.76011,-0.003 2.76011,2.76011"
       id="path6613"
       inkscape:connector-curvature="0" />
    <path
       style="fill:none;stroke:#000000;stroke-width:1px;stroke-linecap:butt;stroke-linejoin:miter;stroke-opacity:1"
       d="m -144.90566,645.24628 c 2.48936,-0.15992 0.8474,-9.44249 1.38005,-11.04043 0.32529,-0.97585 1.05478,-1.78426 1.38006,-2.76011 0.29094,-0.87282 -0.29094,-1.88728 0,-2.76011 0.32528,-0.97584 1.05477,-1.78426 1.38005,-2.76011 0.84975,-2.54925 -2.10583,-0.65427 1.38006,-4.14016 0.72735,-0.72735 2.03275,-0.6527 2.7601,-1.38005 0.46292,-0.46292 -0.46292,-2.29719 0,-2.76011 0.17047,-0.17047 4.6548,0 5.52022,0 2.0503,0 3.80422,-0.33594 5.52021,1.38006 0.72736,0.72735 0.65271,2.03275 1.38006,2.7601 1.84007,1.84008 1.32424,-2.92753 2.76011,1.38006 0.29094,0.87282 -0.29094,1.88728 0,2.7601 0.20572,0.61718 0.92003,0.92004 1.38005,1.38006 0.46002,1.38005 1.09476,2.71371 1.38005,4.14016 0.45109,2.25542 -0.45108,4.64485 0,6.90027 0.20174,1.00866 0.99803,1.80505 1.38006,2.76011 0.54026,1.35066 1.02723,2.72889 1.38005,4.14016 0.28389,1.13556 0,7.01422 0,8.28032 0,0.92004 0,1.84007 0,2.76011 0,0.46002 0.46002,1.38005 0,1.38005 -0.46002,0 0,-0.92003 0,-1.38005"
       id="path6615"
       inkscape:connector-curvature="0" />
    <path
       style="fill:none;stroke:#000000;stroke-width:1px;stroke-linecap:butt;stroke-linejoin:miter;stroke-opacity:1"
       d="m -75.902965,636.96596 c 12.61999,4.16794 -6.508249,14.9766 -4.140162,22.08086 0.205727,0.61718 1.089113,0.79817 1.380054,1.38005 0.205727,0.41146 -0.411452,1.17433 0,1.38006 0.822905,0.41145 1.937203,-0.41146 2.760108,0 0.411453,0.20572 -0.325282,1.05477 0,1.38005 0.727352,0.72735 1.904235,0.80947 2.760108,1.38005 0.541302,0.36087 0.776021,1.13845 1.380054,1.38006 1.761044,0.70442 3.759171,0.67563 5.520215,1.38005 0.604034,0.24162 0.762875,1.17433 1.380054,1.38006 0.872823,0.29094 1.887285,-0.29094 2.760108,0 0.617179,0.20572 0.798172,1.08911 1.380054,1.38005 0.411453,0.20573 0.920036,0 1.380054,0 0.920036,0 1.840072,0 2.760108,0 0.460018,0 1.054772,0.32528 1.380054,0 0.727352,-0.72735 1.054772,-1.78426 1.380054,-2.76011 0.231274,-0.69382 0,-7.91986 0,-8.28032 0,-1.38006 0,-2.76011 0,-4.14016 0,-0.46002 0.14547,-0.94365 0,-1.38006 -0.325282,-0.97584 -1.054773,-1.78426 -1.380054,-2.7601 -1.161539,-3.48462 2.803004,1.43725 -1.380054,-4.14017 -7.445023,-9.92669 1.532383,2.91244 -5.520216,-4.14016 -0.727352,-0.72735 -0.652702,-2.03275 -1.380054,-2.76011 -0.690027,-0.69002 -3.450135,0.69003 -4.140162,0 -0.325281,-0.32528 0.325282,-1.05477 0,-1.38005 -0.325281,-0.32528 -0.926294,0.0756 -1.380053,0 -2.313726,-0.38562 -4.60018,-0.92004 -6.90027,-1.38005 z"
       id="path6617"
       inkscape:connector-curvature="0" />
    <path
       style="fill:none;stroke:#000000;stroke-width:1px;stroke-linecap:butt;stroke-linejoin:miter;stroke-opacity:1"
       d="m -35.881402,668.7072 c -1.380054,1.84007 -2.513752,3.8938 -4.140161,5.52021 -1.626409,1.62641 -3.753238,2.66768 -5.520216,4.14016 -2.998661,2.49889 -5.316655,5.74004 -8.280323,8.28033 -1.259317,1.07941 -2.967342,1.58728 -4.140162,2.7601 -1.17282,1.17283 -1.764937,2.81327 -2.760108,4.14017 -0.390338,0.52045 -1.089113,0.79817 -1.380054,1.38005 -0.205726,0.41145 0.411453,1.17433 0,1.38005 -0.822905,0.41146 -2.760108,0.92004 -2.760108,0 0,-3.41067 5.822381,3.06228 1.380054,-1.38005"
       id="path6619"
       inkscape:connector-curvature="0" />
    <path
       style="fill:none;stroke:#000000;stroke-width:1px;stroke-linecap:butt;stroke-linejoin:miter;stroke-opacity:1"
       d="m -492.67925,512.7611 c 3.68015,7.36029 3.68015,7.36029 0,0 z"
       id="path6621"
       inkscape:connector-curvature="0" />
    <path
       style="fill:none;stroke:#000000;stroke-width:1px;stroke-linecap:butt;stroke-linejoin:miter;stroke-opacity:1"
       d="m -491.29919,697.68833 c 0.46002,1.84007 0.92003,3.68014 1.38005,5.52021 0,1.38006 -0.33471,2.80132 0,4.14017 0.15779,0.63113 1.17433,0.76287 1.38006,1.38005 0.29094,0.87282 0,1.84007 0,2.76011 0,0.46002 -0.25518,0.99729 0,1.38005 0.92003,0.92004 1.84007,1.84007 2.7601,2.76011 0.46002,0 1.00573,-0.26738 1.38006,0 2.92362,2.0883 5.57642,4.53436 8.28032,6.90027 9.23212,8.0781 -9.34237,-5.56877 12.42049,8.28032 1.94049,1.23486 3.75323,2.66768 5.52021,4.14016 0.99956,0.83297 1.84007,1.84008 2.76011,2.76011 0.46002,0.46002 0.76288,1.17433 1.38005,1.38006 1.30924,0.43641 2.76011,0 4.14017,0 0.46001,0 0.92003,0 1.38005,0 0.46002,0 1.01204,0.27601 1.38005,0 1.56136,-1.17102 2.57881,-2.96915 4.14017,-4.14017 0.36801,-0.27601 1.05477,0.32529 1.38005,0 7.71376,-7.71375 3.6613,-4.2621 6.90027,-9.66037 0.85335,-1.42226 2.01835,-2.65665 2.76011,-4.14017 0.20572,-0.41145 0,-0.92003 0,-1.38005 0,-1.38005 0,-2.76011 0,-4.14016 0,-3.0853 0,-3.4238 0,-6.90027 0,-0.92004 -0.22314,-1.86754 0,-2.76011 0.24948,-0.99792 1.05477,-1.78426 1.38005,-2.76011 0.14547,-0.43641 0,-0.92003 0,-1.38005 0,-0.92004 -0.29094,-1.88729 0,-2.76011 0.20573,-0.61718 1.08911,-0.79817 1.38005,-1.38005 0.20573,-0.41145 0,-0.92004 0,-1.38006 0,-0.46001 0.32529,-1.05477 0,-1.38005 -0.32528,-0.32528 -1.17432,-0.41145 -1.38005,0 -0.41145,0.82291 0,1.84007 0,2.76011 0,0.92003 0,1.84007 0,2.76011 0,2.7601 0,5.52021 0,8.28032 0,2.30009 0,4.60018 0,6.90027 0,0.92003 -0.29094,1.88728 0,2.76011 1.10787,3.32361 2.83904,6.40756 4.14016,9.66037 2.65811,6.64526 0.1429,1.80874 2.76011,9.66038 0.37121,1.11364 3.46798,7.38408 4.14016,8.28032 0.78068,1.04091 1.84007,1.84008 2.76011,2.76011 0.46002,0.46002 1.08911,0.79817 1.38005,1.38006 2.00126,4.00252 1.38006,8.09479 1.38006,12.42048 0,0.92004 0.41145,1.9372 0,2.76011 -1.02863,2.05726 -2.8643,3.60642 -4.14016,5.52022 -4.31862,6.47792 3.90514,-1.14505 -6.90027,9.66037 -0.72736,0.72735 -2.03276,0.6527 -2.76011,1.38006 -0.72735,0.72735 -0.6527,2.03275 -1.38006,2.7601 -0.32528,0.32529 -0.92003,0 -1.38005,0 -0.46002,0 -0.92004,0 -1.38005,0 -0.46002,0 -1.26849,0.44629 -1.38006,0 -0.44628,-1.78513 0.30251,-3.70518 0,-5.52021 -0.1691,-1.01464 -1.25247,-1.73942 -1.38005,-2.76011 -0.34235,-2.73879 0,-5.52021 0,-8.28032 0,-1.38006 -0.24687,-2.78237 0,-4.14016 0.67858,-3.73222 2.08152,-7.30822 2.76011,-11.04044 1.10617,-6.08396 -1.60243,-2.31536 1.38005,-8.28032 0.29094,-0.58188 0.98972,-0.8596 1.38005,-1.38005 0.99518,-1.3269 1.58729,-2.96734 2.76011,-4.14016 0.72735,-0.72736 1.87807,-0.85083 2.76011,-1.38006 1.42225,-0.85335 2.65665,-2.01835 4.14016,-2.76011 0.41145,-0.20572 0.92897,0.0902 1.38006,0 8.01597,-1.60319 2.84584,-1.38005 8.28032,-1.38005 1.48702,0 6.1561,0 8.28032,0 1.38006,0 2.76011,0 4.14016,0 0.46002,0 0.96861,0.20573 1.38006,0 0.58188,-0.29094 0.79817,-1.08911 1.38005,-1.38005 0.41145,-0.20573 0.9686,0.20572 1.38006,0 0.58188,-0.29095 0.79817,-1.08912 1.38005,-1.38006 1.45843,-0.72921 4.14016,1.61823 4.14016,-2.76011"
       id="path6623"
       inkscape:connector-curvature="0" />
    <path
       style="fill:none;stroke:#000000;stroke-width:1px;stroke-linecap:butt;stroke-linejoin:miter;stroke-opacity:1"
       d="m -358.81402,711.48887 c -5.42365,8.12859 -5.52021,8.64377 -5.52021,15.18059 0,0.46002 -0.32528,1.05477 0,1.38005 2.73879,2.7388 0.43618,-6.53557 2.76011,2.76011 0.43792,1.7517 -0.28181,6.58951 0,8.28033 0.24936,1.49618 1.75901,5.39863 2.7601,6.90026 0.36087,0.54131 0.87205,0.97365 1.38006,1.38006 1.79607,1.43685 3.46295,3.11153 5.52021,4.14016 0.82291,0.41145 1.84008,0 2.76011,0 0.92004,0.46002 1.90424,0.80947 2.76011,1.38005 0.5413,0.36087 0.76287,1.17433 1.38005,1.38006 0.50607,0.16869 8.04355,0 8.28033,0 0.46001,0 0.99729,0.25517 1.38005,0 1.0826,-0.72174 1.71921,-1.97943 2.76011,-2.76011 0.8229,-0.61718 2.10159,-0.58984 2.76011,-1.38005 1.71719,-2.06064 2.42296,-4.83964 4.14016,-6.90027 0.65851,-0.79022 2.11752,-0.57683 2.76011,-1.38006 1.28516,-1.60645 1.84007,-3.68014 2.7601,-5.52021 3.0916,-6.1832 2.76011,-8.78202 2.76011,-15.1806 0,-3.78873 0.41145,-1.9372 -1.38005,-5.52021 -0.46002,-0.92004 -0.48695,-2.24976 -1.38006,-2.76011 -2.52607,-1.44347 -5.67807,-1.45898 -8.28032,-2.76011 -1.16376,-0.58188 -1.84007,-1.84007 -2.76011,-2.7601 -2.76011,-1.38006 -5.35279,-3.16432 -8.28032,-4.14017 -1.30924,-0.43641 -2.80131,0.33472 -4.14016,0 -1.26228,-0.31557 -1.59635,-2.17822 -2.76011,-2.7601 -0.41145,-0.20573 -0.92004,0 -1.38005,0"
       id="path6625"
       inkscape:connector-curvature="0" />
    <path
       style="fill:none;stroke:#000000;stroke-width:1px;stroke-linecap:butt;stroke-linejoin:miter;stroke-opacity:1"
       d="m -209.76819,717.00908 c 9.22055,-2.60803 16.32851,-2.7601 24.84097,-2.7601 0.92003,0 1.88728,0.29094 2.7601,0 1.70534,-0.56845 1.38006,-2.83453 1.38006,0"
       id="path6627"
       inkscape:connector-curvature="0" />
    <path
       style="fill:none;stroke:#000000;stroke-width:1px;stroke-linecap:butt;stroke-linejoin:miter;stroke-opacity:1"
       d="m -197.34771,714.24898 c 2.93096,7.32738 2.76011,4.42299 2.76011,8.28032 0,0.46002 -0.20573,0.9686 0,1.38005 0.29094,0.58188 1.08911,0.79817 1.38005,1.38006 0.20573,0.41145 0,0.92003 0,1.38005 0,0.97819 -0.1784,7.92351 0,8.28032 0.29094,0.58189 1.08912,0.79818 1.38006,1.38006 0.21,0.41999 0,3.51864 0,4.14016 0,2.76011 0,5.52021 0,8.28032 0,1.84007 0,3.68015 0,5.52022 0,0.46002 0,0.92003 0,1.38005 0,0.46002 0.46001,1.38006 0,1.38006 -1.20586,0 1.38005,-4.57707 1.38005,0 0,0.46001 -1.05477,0.32528 -1.38005,0 -0.32529,-0.32529 0,-0.92004 0,-1.38006"
       id="path6629"
       inkscape:connector-curvature="0" />
    <path
       style="fill:none;stroke:#000000;stroke-width:1px;stroke-linecap:butt;stroke-linejoin:miter;stroke-opacity:1"
       d="m -193.20755,722.5293 c 0,-3.22013 0,-6.44025 0,-9.66038 0,-0.46002 0.14547,-0.94364 0,-1.38005 -0.32528,-0.97585 -1.05477,-1.78427 -1.38005,-2.76011 -0.2975,-0.89249 0,-5.39339 0,-6.90027 0,-0.46002 0,-0.92004 0,-1.38005 0,-0.46002 -0.46002,-1.38006 0,-1.38006 0.46002,0 0,1.84007 0,1.38006 0,-0.92004 0,-1.84008 0,-2.76011 0,-1.84007 -0.46002,-1.38006 1.38005,-1.38006"
       id="path6631"
       inkscape:connector-curvature="0" />
    <path
       style="fill:none;stroke:#000000;stroke-width:1px;stroke-linecap:butt;stroke-linejoin:miter;stroke-opacity:1"
       d="m -149.04582,747.37027 c -4.06202,-48.74423 -3.37516,-5.82011 0,-19.32076 0.22314,-0.89256 -0.41145,-1.9372 0,-2.7601 1.84007,-3.68015 1.38005,4.14016 1.38005,-1.38006"
       id="path6633"
       inkscape:connector-curvature="0" />
    <path
       style="fill:none;stroke:#000000;stroke-width:1px;stroke-linecap:butt;stroke-linejoin:miter;stroke-opacity:1"
       d="m -147.66577,697.68833 -2.76011,1.38005"
       id="path6635"
       inkscape:connector-curvature="0" />
    <path
       style="fill:none;stroke:#000000;stroke-width:1px;stroke-linecap:butt;stroke-linejoin:miter;stroke-opacity:1"
       d="m -150.42588,736.32984 0,-27.60108"
       id="path6637"
       inkscape:connector-curvature="0" />
    <path
       style="fill:none;stroke:#000000;stroke-width:1px;stroke-linecap:butt;stroke-linejoin:miter;stroke-opacity:1"
       d="m -128.34501,733.56973 c 2.49211,-2.70651 5.57381,0.5413 8.28032,0 1.85987,-0.37197 3.66035,-1.00808 5.52022,-1.38005 0.45108,-0.0902 0.9686,0.20572 1.38005,0 0.58188,-0.29095 0.79817,-1.08912 1.38005,-1.38006 0.41146,-0.20572 0.9686,0.20573 1.38006,0 0.58188,-0.29094 1.08911,-0.79817 1.38005,-1.38005 0.14155,-0.28309 0.19462,-3.94554 0,-4.14016 -0.32528,-0.32529 -1.05477,0.32528 -1.38005,0 -0.32528,-0.32529 0.32528,-1.05478 0,-1.38006 -0.32528,-0.32528 -0.94365,0.14547 -1.38006,0 -0.97584,-0.32528 -2.03275,-0.6527 -2.7601,-1.38005 -0.32529,-0.32528 0.32528,-1.05477 0,-1.38006 -0.32529,-0.32528 -0.94365,0.14548 -1.38006,0 -9.9963,-3.3321 2.1758,0.39788 -4.14016,-2.7601 -0.41959,-0.2098 -4.56726,0 -5.52022,0 -0.42829,0 -3.94981,-0.28553 -4.14016,0 -0.80692,1.21038 -0.72949,2.83903 -1.38005,4.14016 -0.29094,0.58188 -0.92004,0.92003 -1.38006,1.38005 -1.38005,2.76011 -3.05663,5.39091 -4.14016,8.28033 -0.32304,0.86145 0.15126,1.85259 0,2.7601 -0.31181,1.8709 -1.06823,3.64932 -1.38005,5.52022 -0.31374,1.88242 0,4.87931 0,6.90027 0,0.46002 0,0.92003 0,1.38005 0,0.46002 -0.32528,1.05477 0,1.38006 0.65056,0.65056 1.88728,-0.29094 2.76011,0 0.97584,0.32528 1.75145,1.17832 2.7601,1.38005 1.35326,0.27065 2.77889,-0.22688 4.14017,0 1.43491,0.23915 2.72889,1.02724 4.14016,1.38005 0.44628,0.11158 0.92003,0 1.38005,0 2.76011,0 5.52022,0 8.28033,0 0.92003,0 2.10954,0.65057 2.7601,0 0.46002,-0.46001 -0.92003,-0.92003 -1.38005,-1.38005"
       id="path6639"
       inkscape:connector-curvature="0" />
    <path
       style="fill:none;stroke:#000000;stroke-width:1px;stroke-linecap:butt;stroke-linejoin:miter;stroke-opacity:1"
       d="m -93.843666,737.70989 c 1.376626,-8.35857 1.426955,-8.32722 5.520216,-12.42048 0.460018,-0.46002 1.089113,-0.79818 1.380054,-1.38006 0.205726,-0.41145 -0.411453,-1.17433 0,-1.38005 0.822905,-0.41145 1.937202,0.41145 2.760108,0 0.411452,-0.20573 -0.205727,-0.9686 0,-1.38006 2.871726,-5.74345 -0.09527,1.47533 2.760107,-1.38005 0.325282,-0.32528 -0.325281,-1.05477 0,-1.38005 0.04438,-0.0444 3.805462,0 4.140162,0 0.920036,0 1.840072,0 2.760108,0 0.460018,0 1.02084,-0.28737 1.380054,0 2.032019,1.62561 3.680144,3.68014 5.520215,5.52021 0.460018,0.46002 0.973651,0.87205 1.380054,1.38006 1.436855,1.79606 2.66768,3.75323 4.140162,5.52021 3.209046,3.85086 2.961145,1.78213 5.520216,6.90027 0.205726,0.41145 -0.145471,0.94364 0,1.38006 0.325282,0.97584 1.054772,1.78426 1.380054,2.7601 0.289535,0.86861 0,5.65634 0,6.90027 0,0.46002 0,0.92004 0,1.38006 0,0.46001 0.205726,0.9686 0,1.38005 -0.290941,0.58188 -1.089113,0.79817 -1.380054,1.38005 -0.205727,0.41146 0.460018,1.38006 0,1.38006 -0.460018,0 0,-0.92004 0,-1.38006"
       id="path6641"
       inkscape:connector-curvature="0" />
    <path
       style="fill:none;stroke:#000000;stroke-width:1px;stroke-linecap:butt;stroke-linejoin:miter;stroke-opacity:1"
       d="m -37.261456,734.94978 c -1.840071,3.22013 -3.680143,6.44026 -5.520215,9.66038 0,0.46002 0.14547,0.94364 0,1.38005 -3.332102,9.99631 0.397874,-2.1758 -2.760108,4.14017 -0.205726,0.41145 0,0.92003 0,1.38005 0,0.46002 0,0.92004 0,1.38005 0,0.46002 0,0.92004 0,1.38006 0,0.46002 -0.325282,1.05477 0,1.38005 0.325282,0.32528 0.920036,0 1.380054,0 0.621518,0 3.720164,0.21 4.140162,0 1.483513,-0.74175 2.656648,-2.01835 4.140161,-2.76011 3.476347,-1.73817 -1.194296,5.24158 4.140162,-2.7601 0.255172,-0.38276 -0.325282,-1.05478 0,-1.38006 0.727352,-0.72735 2.032756,-0.6527 2.760108,-1.38005 0.325282,-0.32528 -0.145471,-0.94364 0,-1.38006 3.332102,-9.9963 -0.397875,2.17581 2.760108,-4.14016 0.27359,-0.54718 -0.282134,-3.85803 0,-4.14016 0.325282,-0.32528 1.054772,0.32528 1.380054,0 0.325281,-0.32528 0,-0.92003 0,-1.38005 0,-0.46002 0.325281,-1.05477 0,-1.38006 -0.325282,-0.32528 -1.054772,0.32529 -1.380054,0 -0.650564,-0.65056 0.650563,-2.10954 0,-2.7601 -0.325282,-0.32529 -1.054772,-0.32529 -1.380054,0 -0.325282,0.32528 0,0.92003 0,1.38005 0,1.38005 0,2.76011 0,4.14016 0,0.77029 0.210579,6.26853 0,6.90027 -0.205726,0.61718 -1.089113,0.79817 -1.380054,1.38005 -0.205726,0.41146 0.111571,0.93378 0,1.38006 -0.352818,1.41127 -0.72949,2.83903 -1.380054,4.14016 -0.290941,0.58188 -0.920036,0.92004 -1.380054,1.38005 -1.380054,1.38006 -3.057558,2.51626 -4.140162,4.14017 -0.806925,1.21038 -0.72949,2.83903 -1.380054,4.14016 -6.508577,13.01715 -0.25856,-0.30219 -4.140161,5.52021 -0.570582,0.85588 -0.809472,1.90424 -1.380054,2.76011 -0.360868,0.5413 -0.920036,0.92004 -1.380054,1.38006 -0.460018,0.46001 -0.798172,1.08911 -1.380054,1.38005 -0.411453,0.20573 -0.968601,-0.20573 -1.380054,0 -0.581882,0.29094 -0.920036,0.92004 -1.380054,1.38005 0,0.46002 0.411453,1.17433 0,1.38006 -0.317254,0.15862 -6.583016,0.15862 -6.900269,0 -1.163764,-0.58188 -1.677505,-2.03838 -2.760108,-2.76011 -0.382758,-0.25517 -0.920036,0 -1.380054,0 -2.030618,0 -1.054772,0.32528 -2.760108,-1.38005"
       id="path6643"
       inkscape:connector-curvature="0" />
    <path
       style="fill:none;stroke:#000000;stroke-width:1px;stroke-linecap:butt;stroke-linejoin:miter;stroke-opacity:1"
       d="m -5.5202156,740.47 c -1.8400719,1.84007 -3.6801438,3.68014 -5.5202154,5.52021 0,0.92004 0.411452,1.93721 0,2.76011 -0.205727,0.41146 -1.174328,-0.41145 -1.380054,0 -0.617179,1.23436 0,2.76011 0,4.14016 0,0.62152 -0.209999,3.72017 0,4.14017 1.05683,2.11366 2.4592788,1.07922 4.1401615,2.7601 0.3252819,0.32529 -0.2057262,0.96861 0,1.38006 0.2963083,0.59261 5.4858169,5.49728 5.5202157,5.52021 0.3827581,0.25518 0.9972958,-0.25517 1.3800539,0 1.08260335,0.72174 1.67750445,2.03838 2.7601078,2.76011 0.205624,0.13708 3.6869505,0 4.1401617,0 4.2698197,0 8.4507394,0.60482 12.4204854,-1.38005 0.581882,-0.29094 0.798172,-1.08912 1.380054,-1.38006 1.301127,-0.65056 2.929774,-0.57313 4.140161,-1.38005 0.382759,-0.25517 0,-0.92004 0,-1.38005 0.920036,-0.46002 1.762189,-1.13058 2.760108,-1.38006 0.892566,-0.22314 1.994592,0.51035 2.760108,0 0.855873,-0.57058 0.809472,-1.90423 1.380054,-2.76011 0.360868,-0.5413 1.174328,-0.76287 1.380054,-1.38005 0.290941,-0.87282 -0.290941,-1.88728 0,-2.76011 0.205726,-0.61718 1.089113,-0.79817 1.380054,-1.38005 0.650563,-1.30113 1.094763,-2.71371 1.380054,-4.14016 0.04483,-0.22417 0.05944,-6.72195 0,-6.90027 -0.877964,-2.63389 -2.714296,-0.66712 -4.140162,-1.38006 -0.581882,-0.29094 -0.762875,-1.17432 -1.380054,-1.38005 -2.070081,-0.69003 -2.415094,0.34501 -4.140162,0 -1.85987,-0.37197 -3.649319,-1.06824 -5.520215,-1.38005 -0.907518,-0.15126 -1.840072,0 -2.760108,0 -2.760108,0 -5.520216,0 -8.2803235,0 -1.7672764,0 -5.1293311,-0.29516 -6.9002696,0 -2.31372563,0.38562 -4.6001797,0.92003 -6.9002695,1.38005 z"
       id="path6645"
       inkscape:connector-curvature="0" />
    <path
       style="fill:none;stroke:#000000;stroke-width:1px;stroke-linecap:butt;stroke-linejoin:miter;stroke-opacity:1"
       d="m -454.03774,863.2948 c 1.82852,-10.70062 0.63882,-21.13481 2.76011,-31.74124 0.20173,-1.00866 0.99803,-1.80505 1.38006,-2.76011 0.54026,-1.35066 1.02723,-2.72889 1.38005,-4.14016 0.11157,-0.44629 0,-0.92004 0,-1.38006 0.46002,-0.92003 1.05477,-1.78426 1.38005,-2.7601 0.29094,-0.87283 -0.65056,-2.10955 0,-2.76011 0.32529,-0.32528 1.05478,0.32528 1.38006,0 0.32528,-0.32528 -0.32528,-1.05477 0,-1.38006 0.72735,-0.72735 1.84007,-0.92003 2.76011,-1.38005 3.86741,-1.93371 2.84854,-1.67375 8.28032,-2.76011 0.45108,-0.0902 0.93377,0.11157 1.38005,0 1.41127,-0.35282 2.78951,-0.83979 4.14016,-1.38005 0.95506,-0.38203 1.75146,-1.17832 2.76011,-1.38006 1.45732,-0.29146 7.66456,0 9.66038,0 1.31543,0 5.25355,0 5.52022,0 0.92003,0 1.88728,-0.29094 2.7601,0 1.95169,0.65057 3.56853,2.10955 5.52022,2.76011 0.87282,0.29094 1.97118,-0.47335 2.76011,0 1.67356,1.00414 2.61614,2.92095 4.14016,4.14016 0.80322,0.64259 1.87806,0.85083 2.76011,1.38006 1.42225,0.85335 2.7601,1.84007 4.14016,2.76011"
       id="path6647"
       inkscape:connector-curvature="0" />
    <path
       style="fill:none;stroke:#000000;stroke-width:1px;stroke-linecap:butt;stroke-linejoin:miter;stroke-opacity:1"
       d="m -478.87871,830.1735 c 1.84008,0.46002 3.66035,1.00808 5.52022,1.38006 0.45108,0.0902 0.92004,0 1.38005,0 1.84008,0 3.68015,0 5.52022,0 5.0602,0 10.12039,0 15.18059,0 1.38006,0 2.77398,-0.19517 4.14016,0 1.87764,0.26823 3.64932,1.06824 5.52022,1.38005 0.90752,0.15125 1.91446,-0.36242 2.76011,0 10.21717,4.37879 3.23323,3.56842 11.04043,5.52022 2.2756,0.5689 4.5782,1.04833 6.90027,1.38005 1.82158,0.26023 3.77457,-0.58188 5.52021,0 0.61718,0.20573 0.79818,1.08911 1.38006,1.38005 0.41145,0.20573 1.38005,0.46002 1.38005,0 0,-0.65056 -1.84007,-0.92003 -1.38005,-1.38005 0.46002,-0.46002 0.92003,0.92004 1.38005,1.38005"
       id="path6649"
       inkscape:connector-curvature="0" />
    <path
       style="fill:none;stroke:#000000;stroke-width:1px;stroke-linecap:butt;stroke-linejoin:miter;stroke-opacity:1"
       d="m -391.93531,871.57512 c 2.30009,-5.98023 4.60018,-11.96047 6.90027,-17.9407 0,-1.38005 -0.33471,-2.80131 0,-4.14016 0.35228,-1.40911 3.57328,-2.19322 4.14016,-2.76011 0.72735,-0.72735 0.6527,-2.03276 1.38006,-2.76011 0.72735,-0.72735 1.90423,-0.80947 2.7601,-1.38005 0.5413,-0.36087 0.76288,-1.17433 1.38006,-1.38006 0.87282,-0.29094 1.84007,0 2.7601,0 1.35109,0 8.39591,-0.25289 9.66038,0 1.00866,0.20174 1.80505,0.99803 2.76011,1.38006 1.38005,0.46002 2.76011,0.92003 4.14016,1.38005 0.46002,0 0.94364,-0.14547 1.38006,0 0.97584,0.32528 1.78426,1.05477 2.7601,1.38006 0.87283,0.29094 2.10955,-0.65057 2.76011,0 0.32528,0.32528 0,0.92003 0,1.38005"
       id="path6651"
       inkscape:connector-curvature="0" />
    <path
       style="fill:none;stroke:#000000;stroke-width:1px;stroke-linecap:butt;stroke-linejoin:miter;stroke-opacity:1"
       d="m -338.11321,868.81501 c 24.9848,2.87668 1.71939,-8.78932 4.14016,-12.42048 0.72174,-1.08261 1.84008,-1.84007 2.76011,-2.76011 0.46002,-0.46002 1.08911,-0.79817 1.38006,-1.38005 0.20572,-0.41146 -0.14547,-0.94365 0,-1.38006 0.32528,-0.97584 1.05477,-1.78426 1.38005,-2.76011 0.14547,-0.43641 -0.14547,-0.94364 0,-1.38005 0.32528,-0.97585 1.05477,-1.78426 1.38005,-2.76011 0.14547,-0.43641 -0.14547,-0.94364 0,-1.38005 -0.83179,-2.49782 2.23561,-2.56666 2.76011,-4.14016 0.29094,-0.87283 0,-1.84008 0,-2.76011"
       id="path6653"
       inkscape:connector-curvature="0" />
    <path
       style="fill:none;stroke:#000000;stroke-width:1px;stroke-linecap:butt;stroke-linejoin:miter;stroke-opacity:1"
       d="m -321.55256,817.75302 1.38005,9.66038"
       id="path6655"
       inkscape:connector-curvature="0" />
    <path
       style="fill:none;stroke:#000000;stroke-width:1px;stroke-linecap:butt;stroke-linejoin:miter;stroke-opacity:1"
       d="m -289.81132,837.07377 c -0.92004,1.84007 -1.99606,3.6101 -2.76011,5.52022 -0.17084,0.42711 0,0.92003 0,1.38005 -1.84007,2.76011 -4.14753,5.26042 -5.52021,8.28033 -0.97064,2.13539 -0.76288,4.63728 -1.38006,6.90027 -0.76551,2.80689 -1.84007,5.52021 -2.76011,8.28032 -0.46001,1.38005 -1.1409,2.70525 -1.38005,4.14016 -0.30251,1.81504 0,3.68014 0,5.52022 0,1.84007 -0.30251,3.70518 0,5.52021 0.16911,1.01464 1.13057,1.76219 1.38005,2.76011 0.22315,0.89257 -0.29094,1.88728 0,2.76011 0.20573,0.61718 0.88028,0.96357 1.38006,1.38005 9.57825,7.98188 3.34431,3.82182 11.04043,6.90027 1.53045,0.61218 10.26773,4.73515 13.80054,5.52022 7.63393,1.69642 11.74674,1.38005 19.32075,1.38005 3.54152,0 6.23085,0.33471 9.66038,-1.38005 1.16376,-0.58189 1.7441,-1.9473 2.76011,-2.76011 1.62514,-1.30011 5.78955,-3.29878 6.90027,-5.52022 0.84823,-1.69646 0.78026,-3.72084 1.38005,-5.52021 0.32528,-0.97585 1.23459,-1.74182 1.38006,-2.76011 0.32528,-2.27697 0,-4.60018 0,-6.90027 0,-0.92004 0.25275,-1.87547 0,-2.76011 -0.68056,-2.38195 -2.07955,-4.51831 -2.76011,-6.90027 -0.25276,-0.88463 0.45646,-1.96129 0,-2.76011 -1.46141,-2.55745 -3.80815,-4.50337 -5.52022,-6.90026 -0.59788,-0.83704 -0.6527,-2.03276 -1.38005,-2.76011 -1.62641,-1.62641 -3.72415,-2.70331 -5.52022,-4.14016 -0.508,-0.40641 -0.83875,-1.01919 -1.38005,-1.38006 -0.85587,-0.57058 -1.80505,-0.99803 -2.76011,-1.38005 -1.35066,-0.54027 -2.83903,-0.72949 -4.14016,-1.38006 -0.58188,-0.29094 -0.76288,-1.17432 -1.38005,-1.38005 -1.74565,-0.58188 -3.77457,0.58188 -5.52022,0 -0.61718,-0.20573 -0.79817,-1.08911 -1.38005,-1.38005 -0.82291,-0.41146 -2.10955,0.65056 -2.76011,0 -0.32528,-0.32529 0.32528,-1.05478 0,-1.38006 -0.21417,-0.21416 -3.60315,0.17901 -4.14016,0 -0.97585,-0.32528 -1.78427,-1.05477 -2.76011,-1.38005 -0.43641,-0.14547 -0.9686,0.20572 -1.38006,0 -0.58188,-0.29094 -0.79817,-1.08911 -1.38005,-1.38006 -0.8229,-0.41145 -2.10954,0.65057 -2.76011,0 -0.32528,-0.32528 0.32528,-1.05477 0,-1.38005 -0.32528,-0.32528 -1.05477,0.32528 -1.38005,0 -0.32528,-0.32528 0,-0.92004 0,-1.38005 -2.30009,-0.46002 -4.60018,-0.92004 -6.90027,-1.38006 z"
       id="path6663"
       inkscape:connector-curvature="0" />
    <path
       style="fill:none;stroke:#000000;stroke-width:1px;stroke-linecap:butt;stroke-linejoin:miter;stroke-opacity:1"
       d="m -204.24798,885.37566 c 0,1.84007 0,3.68014 0,5.52022 0,5.39111 -0.41145,0.14569 1.38006,5.52021 0.14547,0.43641 -0.32529,1.05477 0,1.38005 0.32528,0.32529 0.92003,0 1.38005,0 0.46002,0 0.9686,0.20573 1.38005,0 0.58189,-0.29094 0.79818,-1.08911 1.38006,-1.38005 0.41145,-0.20573 1.05477,0.32528 1.38005,0 0.32528,-0.32528 -0.20573,-0.9686 0,-1.38005 0.175,-0.35 2.58511,-2.41011 2.76011,-2.76011 0.41145,-0.82291 -0.65056,-2.10954 0,-2.76011 0.32528,-0.32528 1.05477,0.32528 1.38005,0 0.32528,-0.32528 0,-0.92003 0,-1.38005 0,-0.46002 0.32528,-1.05477 0,-1.38006 -0.12385,-0.12385 -4.10477,-0.0708 -4.14016,0 -0.41145,0.82291 0,1.84008 0,2.76011 0,0.92004 0,1.84007 0,2.76011 0,0.92004 0,1.84007 0,2.76011 0,0.46002 -0.20573,0.9686 0,1.38005 0.29094,0.58188 1.08911,0.79817 1.38006,1.38005 0.20572,0.41146 -0.32529,1.05478 0,1.38006 0.32528,0.32528 1.05477,-0.32528 1.38005,0 0.32528,0.32528 -0.32528,1.05477 0,1.38005 0.138,0.13801 4.00216,0.13801 4.14016,0 0.32528,-0.32528 0,-0.92003 0,-1.38005 0,-1.38006 0,-2.76011 0,-4.14016 0,-0.95296 0.20979,-5.10063 0,-5.52022 -1.21479,-2.42959 -1.88324,-0.81582 -4.14016,-1.38005 -2.00668,-0.50167 -8.25371,-5.57344 -9.66038,-2.76011 -1.19958,2.39916 2.65227,4.66843 4.14016,6.90027 0.36087,0.5413 1.08912,0.79817 1.38006,1.38005 0.20572,0.41146 -0.32528,1.05478 0,1.38006 0.32528,0.32528 1.05477,0.32528 1.38005,0 0.32528,-0.32528 0,-0.92004 0,-1.38006 0,-1.27419 0.96797,-16.14856 -6.90027,-8.28032 -1.8967,1.8967 2.65227,4.66843 4.14016,6.90027 0.36087,0.5413 0.79818,1.08911 1.38006,1.38005 0.41999,0.21 3.51864,0 4.14016,0 0.46002,0 1.05477,0.32528 1.38005,0 0.32528,-0.32528 0,-0.92003 0,-1.38005 0,-0.46002 0,-0.92004 0,-1.38005 0,-0.3347 0.0444,-4.09578 0,-4.14017 -0.32528,-0.32528 -1.05477,-0.32528 -1.38005,0 -0.32528,0.32529 0,0.92004 0,1.38006 0,1.18454 -0.26915,7.47288 0,8.28032 0.65316,1.95949 2.67927,1.38005 4.14016,1.38005 1.42769,0 1.90744,0.32529 2.76011,-1.38005 0.14154,-0.28309 0.19462,-3.94554 0,-4.14016 -0.0555,-0.0555 -5.01341,0 -5.52022,0 -0.3347,0 -4.09578,-0.0444 -4.14016,0 -0.33041,0.33041 0.31372,5.52021 0,5.52021 -0.46002,0 0,-0.92003 0,-1.38005 0,-1.84007 0,-3.68014 0,-5.52021 0,-0.46002 0.35921,-1.09269 0,-1.38006 -2.09456,-1.67564 -8.09985,-6.53932 -6.90027,-4.14016 1.60678,3.21355 5.3567,4.81196 8.28033,6.90027 0.37433,0.26738 1.05477,-0.32528 1.38005,0 0.32528,0.32528 0.37433,1.64743 0,1.38005 -3.45117,-2.46512 -6.44025,-5.52021 -9.66038,-8.28032 z"
       id="path6665"
       inkscape:connector-curvature="0" />
    <path
       style="fill:none;stroke:#000000;stroke-width:1px;stroke-linecap:butt;stroke-linejoin:miter;stroke-opacity:1"
       d="m 77.283019,569.34331 c 0.920036,2.30009 1.485561,4.77603 2.760108,6.90027 0.236677,0.39447 0.968601,-0.20572 1.380054,0 1.656064,0.82804 2.484097,3.31213 4.140161,4.14017 0.411453,0.20572 0.968602,-0.20573 1.380054,0 0.581882,0.29094 0.762875,1.17432 1.380054,1.38005 0.872823,0.29094 1.887285,-0.29094 2.760108,0 0.617179,0.20573 0.798172,1.08911 1.380054,1.38005 0.822905,0.41146 1.937203,-0.41145 2.760108,0 0.581881,0.29094 0.798172,1.08912 1.380054,1.38006 0.411452,0.20572 0.920036,0 1.380053,0 0.460018,0 0.920036,0 1.380054,0 1.650009,0 7.379619,-0.30024 8.280319,0 0.97585,0.32528 1.78427,1.05477 2.76011,1.38005 0.87283,0.29094 1.84007,0 2.76011,0 3.22013,0 6.44025,0 9.66038,0 3.22012,0 6.44025,0 9.66038,0 0.46001,0 1.05477,0.32528 1.38005,0 0.32528,-0.32528 -0.32528,-1.05477 0,-1.38005 0.32528,-0.32528 0.92004,0 1.38005,0 0.95989,0 6.4012,0.24953 6.90027,0 0.58188,-0.29094 0.79817,-1.08912 1.38006,-1.38006 0.86739,-0.43369 4.65282,0.4337 5.52021,0 3.41067,-1.70533 -0.47636,-1.38005 2.76011,-1.38005 0.50681,0 5.46468,0.0555 5.52022,0 0.32528,-0.32528 -0.32529,-1.05477 0,-1.38005 0.32528,-0.32529 1.05477,0.32528 1.38005,0 0.32528,-0.32529 -0.32528,-1.05478 0,-1.38006 1.36139,-1.36139 2.76011,2.82784 2.76011,-1.38005 1.77563,6.36713 1.38005,12.82342 1.38005,19.32075 0,0.3347 0.0444,4.09578 0,4.14016 -0.32528,0.32529 -1.05477,-0.32528 -1.38005,0 -0.65057,0.65057 0.41145,1.93721 0,2.76011 -0.29094,0.58188 -1.08912,0.79817 -1.38006,1.38006 -0.41145,0.8229 0.65057,2.10954 0,2.7601 -3.68014,0 0.46002,-0.46001 -1.38005,1.38006 -0.32528,0.32528 -1.05477,-0.32528 -1.38005,0 -0.46292,0.46292 0.46291,2.29719 0,2.76011 -2.85539,2.85538 0.11161,-4.3634 -2.76011,1.38005 -0.20573,0.41145 0.20572,0.9686 0,1.38005 -0.67901,1.35802 -4.84121,4.16221 -5.52022,5.52022 -0.20572,0.41145 0.32528,1.05477 0,1.38005 -2.85538,2.85538 0.11162,-4.3634 -2.76011,1.38006 -0.20572,0.41145 0.32529,1.05477 0,1.38005 -0.32528,0.32528 -0.9686,-0.20573 -1.38005,0 -0.58188,0.29094 -0.83875,1.01919 -1.38005,1.38005 -1.71175,1.14117 -3.80847,1.61895 -5.52022,2.76011 -1.0826,0.72174 -1.59634,2.17823 -2.76011,2.76011 -0.41145,0.20573 -0.9686,-0.20573 -1.38005,0 -0.58188,0.29094 -0.79817,1.08911 -1.38005,1.38005 -0.54718,0.27359 -3.85803,-0.28213 -4.14017,0 -0.32528,0.32529 0.32529,1.05478 0,1.38006 -0.0555,0.0555 -5.01341,0 -5.52021,0 -9.66038,0 -19.32076,0 -28.981134,0 -3.680144,0 0.460018,-0.46002 -1.380054,1.38005 -0.325282,0.32528 -0.920036,0 -1.380054,0 -0.460018,0 -0.920036,0 -1.380054,0 -3.680144,0 -7.360287,0 -11.040431,0 -1.840072,0 -3.680144,0 -5.520216,0 -0.460018,0 -0.920036,0 -1.380054,0 -0.460018,0 -1.380054,0.46002 -1.380054,0 1.840072,0 1.380054,0.46002 1.380054,-1.38005 0.460018,2.30009 0.994433,4.58654 1.380054,6.90027 0.151253,0.90752 0,1.84007 0,2.76011 0,2.7601 0,5.52021 0,8.28032 0,1.24393 0.289535,6.03166 0,6.90027 -0.325282,0.97584 -1.054772,1.78426 -1.380054,2.76011 -0.14547,0.43641 0,0.92003 0,1.38005 0,3.22013 0,6.44025 0,9.66038 0,7.36029 0,14.72057 0,22.08086 0,3.68014 0,7.36029 0,11.04043 0,1.15564 -0.262371,5.85079 0,6.90027 0.24948,0.99792 1.054772,1.78426 1.380054,2.76011 0.145471,0.43641 0,0.92003 0,1.38005 0,0.92004 0,1.84007 0,2.76011 0,2.30009 0,4.60018 0,6.90027 0,0.73724 -0.197487,6.50529 0,6.90027 0.290941,0.58188 1.089113,0.79817 1.380054,1.38005 0.205726,0.41146 0,0.92004 0,1.38006 0,0.92003 0,1.84007 0,2.76011 0,1.84007 0,3.68014 0,5.52021 0,0.92004 -0.223141,1.86754 0,2.76011 1.666051,6.6642 0.655829,-0.0684 2.760108,4.14016 0.888465,1.77693 -0.931198,1.41354 -1.380054,2.76011 -0.290941,0.87282 0.290941,1.88728 0,2.76011 -0.411453,1.23435 -2.178226,1.59634 -2.760108,2.7601 -0.205726,0.41146 0.325282,1.05478 0,1.38006 -0.727352,0.72735 -2.032755,0.6527 -2.760108,1.38005 -0.04951,0.0495 -2.616709,5.28122 -2.760107,5.52022 -8.069066,13.44844 0.353513,-0.47135 -4.140162,5.52021 -0.995171,1.3269 -1.840072,2.76011 -2.760108,4.14016 0,1.38006 0.617179,2.90581 0,4.14017 -3.680144,7.36028 -3.066786,1.84007 -5.520216,5.52021 -0.570582,0.85588 -1.054772,1.78426 -1.380054,2.76011 -0.14547,0.43641 0.255172,0.9973 0,1.38005 -0.721735,1.08261 -1.979431,1.71921 -2.760107,2.76011 -0.617179,0.82291 -0.652702,2.03276 -1.380054,2.76011 -1.028632,1.02863 -4.054496,-2.50582 -4.140162,1.38005 -0.325282,0.32529 0.325282,1.05478 0,1.38006 -3.485882,3.48588 -1.590907,0.5303 -4.140162,1.38005 -1.951691,0.65056 -3.568524,2.10955 -5.520215,2.76011 -0.436412,0.14547 -0.943643,-0.14547 -1.380054,0 -5.003097,1.6677 -0.98218,0.65479 -4.140162,2.76011 -0.855873,0.57058 -1.904235,0.80947 -2.760108,1.38005 -1.623905,1.0826 -2.578809,2.96915 -4.140162,4.14016 -2.411708,1.80878 -4.117044,1.3685 -6.900269,2.76011 -2.057263,1.02863 -2.102318,4.90526 -5.520216,4.14016 -0.854232,0.34169 -1.9711832,-0.47335 -2.7601075,0 -1.6735612,1.00414 -2.578809,2.96915 -4.1401618,4.14016 -0.3680144,0.27601 -0.9337709,-0.11157 -1.3800539,0 -1.3916124,0.34791 -5.4725792,1.68934 -6.9002695,2.76011 -1.0409019,0.78068 -1.719206,1.97943 -2.7601078,2.76011 -3.3937755,2.54533 -2.7032795,-0.0852 -5.5202155,4.14016 -0.255172,0.38276 0.325282,1.05477 0,1.38006 -0.727352,0.72735 -1.904235,0.80947 -2.760108,1.38005 -6.341169,4.22745 6.9510996,-3.25401 -4.140162,4.14016 -0.382758,0.25517 -1.174327,-0.41145 -1.380054,0 -0.411452,0.82291 0.411453,1.9372 0,2.76011 -0.205726,0.41145 -0.997295,-0.25517 -1.380054,0 -1.082603,0.72173 -1.840071,1.84007 -2.760107,2.76011 0,0.46001 0.368014,1.10404 0,1.38005 -1.645811,1.23436 -3.680144,1.84007 -5.520216,2.76011 -0.460018,0.92003 -0.576828,2.11752 -1.380054,2.76011 -4.786211,3.82897 -5.00758,1.81376 -9.660377,4.14016 -1.483514,0.74175 -2.656649,2.01835 -4.140162,2.76011 -0.411453,0.20572 -0.985592,-0.23668 -1.380054,0 -3.125574,1.87534 -6.290063,5.21511 -9.660377,6.90026 -4.061235,2.03062 1.816955,-3.197 -2.760108,1.38006 -0.822905,0.41145 -1.937203,-0.41145 -2.760108,0 -6.315965,3.15798 5.856144,-0.572 -4.140162,2.76011 -0.436411,0.14547 -0.928969,-0.0902 -1.380054,0 -1.85987,0.37197 -3.660345,1.00808 -5.520215,1.38005 -0.451085,0.0902 -0.968601,-0.20573 -1.380054,0 -1.483513,0.74176 -2.566658,2.23561 -4.140162,2.76011 -1.309234,0.43641 -2.773978,-0.19517 -4.140162,0 -1.877639,0.26823 -3.660345,1.00808 -5.520215,1.38005 -0.451085,0.0902 -0.968601,-0.20572 -1.380054,0 -0.581882,0.29094 -0.798172,1.08912 -1.380054,1.38006 -0.411453,0.20572 -0.997296,-0.25518 -1.380054,0 -1.651001,1.10066 -6.925297,7.1963 -8.280328,8.28032 -0.80322,0.64258 -1.92307,0.78217 -2.7601,1.38005 -2.3969,1.71207 -4.34282,4.05882 -6.90027,5.52022 -0.79882,0.45646 -1.93721,-0.41145 -2.76011,0 -2.05726,1.02863 -3.68014,2.76011 -5.52022,4.14016 -0.46001,0.46002 -0.8222,1.04534 -1.38005,1.38005 -1.76409,1.05846 -3.91376,1.47495 -5.52022,2.76011 -0.80322,0.64258 -0.58983,2.1016 -1.38005,2.76011 -1.54114,1.28428 -12.65567,7.43868 -15.18059,8.28032 -0.87283,0.29094 -1.90588,-0.34169 -2.76011,0 -1.53999,0.616 -2.60017,2.14412 -4.14016,2.76011 -0.85423,0.34169 -1.86754,-0.22314 -2.76011,0 -1.99584,0.49896 -3.56852,2.10955 -5.52022,2.76011 -0.43641,0.14547 -0.94364,-0.14547 -1.38005,0 -1.95169,0.65056 -3.56852,2.10954 -5.52022,2.76011 -0.43641,0.14547 -0.94364,-0.14547 -1.38005,0 -8.56614,2.85538 4.58664,-0.11162 -6.90027,2.76011 -4.70469,1.17617 4.9696,-3.86486 -5.52021,1.38005 -2.05727,1.02863 -2.10232,4.90526 -5.52022,4.14016 -0.85423,0.34169 -1.88728,-0.29094 -2.76011,0 -4.83019,1.61006 -8.97035,5.29021 -13.80054,6.90027 -0.87282,0.29094 -1.84717,-0.11412 -2.7601,0 -2.77658,0.34707 -5.54878,0.77304 -8.28033,1.38005 -1.42006,0.31557 -2.7137,1.09477 -4.14016,1.38006 -25.71983,5.14396 -0.17373,-0.13404 -13.80054,1.38005 -2.78106,0.30901 -5.50375,1.03298 -8.28032,1.38006 -0.91293,0.11411 -1.84007,0 -2.76011,0 -1.84007,0 -3.68014,0 -5.52022,0 -7.08056,0 -1.69446,0 -11.04043,0 -11.04043,0 -22.08086,0 -33.12129,0 -4.14016,0 -8.28032,0 -12.42049,0 -0.92003,0 -1.85259,0.15125 -2.7601,0 -16.74696,-2.79116 1.7236,0.0982 -8.28033,-2.76011 -2.25539,-0.6444 -4.56897,-1.12102 -6.90027,-1.38006 -19.52274,-2.16919 18.77489,5.39892 -17.9407,-2.7601 -1.81867,-0.2798 -3.72099,0.38555 -5.52021,0 -4.69612,-1.00631 -9.28697,-2.49887 -13.80054,-4.14017 -1.55876,-0.56682 -1.66566,-3.52499 -4.14016,-2.7601 -0.89257,-0.22314 -1.90588,0.34169 -2.76011,0 -1.53999,-0.616 -2.56666,-2.23561 -4.14016,-2.76011 -2.65459,-0.88486 -5.54878,-0.77304 -8.28033,-1.38005 -1.42006,-0.31557 -2.7601,-0.92004 -4.14016,-1.38006 -3.22012,-0.46002 -6.44025,-0.92003 -9.66038,-1.38005 -15.72647,-2.85936 10.49155,-0.41192 -20.7008,-4.14016 -7.20869,-1.10903 3.50352,3.00791 -9.66038,-1.38006 -1.95169,-0.65056 -3.65231,-1.89799 -5.52022,-2.76011 -4.11365,-1.8986 -8.30684,-3.62161 -12.42048,-5.52021 -4.48518,-2.07008 -13.11051,-6.90027 -16.56065,-8.28033 -0.85423,-0.34169 -1.91937,0.37367 -2.76011,0 -3.38913,-1.50627 -6.41831,-3.71907 -9.66037,-5.52021 -0.89919,-0.49955 -1.78427,-1.05477 -2.76011,-1.38005 -1.79937,-0.59979 -3.66035,-1.00808 -5.52022,-1.38006 -0.45108,-0.0902 -1.05477,0.32528 -1.38005,0 -0.32528,-0.32528 0.32528,-1.05477 0,-1.38005 -0.32528,-0.32528 -0.9686,0.20572 -1.38006,0 -1.68842,-0.84422 -1.75157,-2.79546 -2.7601,-4.14016 -0.78068,-1.04091 -2.17823,-1.59635 -2.76011,-2.76011 -1.75773,-3.51545 -2.38244,-7.52498 -4.14016,-11.04043 -1.02864,-2.05727 -2.89064,-3.58913 -4.14017,-5.52022 -20.49058,-31.66727 -5.55666,-7.32273 -13.80053,-24.84097 -2.62793,-5.58435 -5.37596,-11.11495 -8.28033,-16.56065 -0.78052,-1.46348 -2.17773,-2.58715 -2.76011,-4.14016 -2.24961,-5.99896 -1.38005,-15.54138 -1.38005,-22.08086 0,-1.38005 0,-2.76011 0,-4.14016 0,-1.38006 0.27065,-2.78691 0,-4.14016 -0.57058,-2.85291 -4.18723,-4.7192 -2.76011,-8.28033 -0.19517,-1.36618 0.29938,-2.79297 0,-4.14016 -0.63114,-2.84013 -2.12897,-5.44019 -2.76011,-8.28032 -0.29937,-1.34719 0.24688,-2.78237 0,-4.14016 -0.67858,-3.73222 -1.76199,-7.3807 -2.7601,-11.04044 -0.38276,-1.40344 -1.11983,-2.70892 -1.38006,-4.14016 -0.66344,-3.64896 -1.04427,-7.34688 -1.38005,-11.04043 -0.12495,-1.37438 0,-2.76011 0,-4.14016 0,-3.22013 0,-6.44025 0,-9.66038 0,-7.45699 -0.27065,-1.1362 1.38005,-11.04043 0.0756,-0.45376 -0.20572,-0.9686 0,-1.38005 0.74176,-1.48352 2.14412,-2.60018 2.76011,-4.14016 0.34169,-0.85424 0,-1.84008 0,-2.76011 0,-1.38006 0,-2.76011 0,-4.14016 0,-1.4447 0.28057,-7.15807 0,-8.28033 -0.24948,-0.99792 -1.13057,-1.76219 -1.38005,-2.76011 -0.44629,-1.78513 0.36086,-3.71587 0,-5.52021 -0.28529,-1.42646 -1.09477,-2.71371 -1.38006,-4.14016 -0.18043,-0.90217 0,-1.84007 0,-2.76011 -0.46001,-1.84007 -0.92003,-3.68014 -1.38005,-5.52022 -0.18102,-0.9051 0.35056,-3.43903 0,-4.14016 -0.29094,-0.58188 -1.08911,-0.79817 -1.38005,-1.38005 -0.18144,-0.36288 0,-4.79856 0,-5.52022 0,-2.76011 0,-5.52021 0,-8.28032 0,-1.84007 0,-3.68014 0,-5.52022 0,-0.92003 0.11411,-1.84717 0,-2.7601 -0.34708,-2.77658 -0.98434,-5.51027 -1.38006,-8.28033 -0.30668,-2.14675 0.92004,-2.76011 0,-5.52021 -0.97584,-2.92754 -2.92457,-5.44394 -4.14016,-8.28033 -0.18121,-0.42282 0.11157,-0.93377 0,-1.38005 -0.35282,-1.41127 -1.09476,-2.71371 -1.38005,-4.14016 -0.18044,-0.90217 0,-1.84007 0,-2.76011 0,-2.30009 0,-4.60018 0,-6.90027 0,-0.77107 -0.27147,-6.08586 0,-6.90027 0.32528,-0.97584 1.17832,-1.75145 1.38005,-2.76011 0.5123,-2.56149 -0.35518,-8.55417 0,-11.04043 0.20573,-1.44008 1.09476,-2.7137 1.38005,-4.14016 0.18044,-0.90217 -0.1016,-1.8457 0,-2.76011 0.001,-0.0111 1.06006,-11.5338 2.76011,-13.80054 0.61718,-0.8229 2.03276,-0.6527 2.76011,-1.38005 0.32528,-0.32528 0,-0.92004 0,-1.38005 0,-0.92004 0,-1.84008 0,-2.76011 0,-2.76011 0,-5.52022 0,-8.28033 0,-1.84007 0,-3.68014 0,-5.52021 0,-0.46002 0.20573,-0.9686 0,-1.38006 -0.74176,-1.48351 -2.01835,-2.65664 -2.76011,-4.14016 -0.20572,-0.41145 0.14547,-0.94364 0,-1.38005 -0.32528,-0.97585 -1.13057,-1.76219 -1.38005,-2.76011 -0.3574,-1.42958 0,-3.93776 0,-5.52021 0,-1.62196 -0.31186,-7.0329 0,-8.28033 0.35282,-1.41127 1.09476,-2.7137 1.38005,-4.14016 0.18044,-0.90217 -0.18043,-1.85794 0,-2.76011 0.57058,-2.85291 2.12897,-5.44019 2.76011,-8.28032 3.72651,-16.76932 0.33468,-1.96678 1.38005,-12.42049 0.32367,-3.23667 1.02084,-6.42745 1.38006,-9.66037 0.3556,-3.20043 -0.88901,-6.48949 0,-9.66038 0.18043,-1.44347 1.1409,-2.70525 1.38005,-4.14016 0.28091,-1.68547 0,-6.27115 0,-8.28033 0,-5.52021 0,-11.04043 0,-16.56064 0,-1.29979 -0.26169,-6.11521 0,-6.90027 0.20573,-0.61718 1.17433,-0.76288 1.38005,-1.38006 0.29095,-0.87282 0,-1.84007 0,-2.7601 0,-1.38006 0,-2.76011 0,-4.14017 0,-4.14016 0,-8.28032 0,-12.42048 0,-0.62152 -0.20999,-3.72017 0,-4.14016 0.29095,-0.58188 1.17433,-0.76288 1.38006,-1.38006 0.26915,-0.80744 0,-7.09578 0,-8.28032 0,-0.92004 -0.41145,-1.9372 0,-2.76011 0.20573,-0.41145 1.17433,0.41145 1.38005,0 0.51698,-1.03396 -0.47733,-6.84834 0,-8.28032 0.32528,-0.97585 1.05477,-1.78426 1.38006,-2.76011 1.40742,-4.22228 -4.59615,3.44408 1.38005,-5.52022 0.25517,-0.38275 1.05477,0.32529 1.38005,0 0.72736,-0.72735 0.73748,-1.95688 1.38006,-2.7601 1.21921,-1.52402 2.96915,-2.57881 4.14016,-4.14016 0.27601,-0.36802 0,-0.92004 0,-1.38006 0,-0.92003 -0.41145,-1.9372 0,-2.76011 0.20573,-0.41145 1.12488,0.38276 1.38005,0 5.9762,-8.96429 -0.0274,-1.29793 1.38006,-5.52021 0.32528,-0.97585 0.92003,-1.84007 1.38005,-2.76011 0.46002,-0.46002 1.13844,-0.77602 1.38006,-1.38005 0.70441,-1.76105 0.92003,-3.68015 1.38005,-5.52022 0,-0.46002 -0.14547,-0.94364 0,-1.38005 0.32528,-0.97585 1.13057,-1.76219 1.38005,-2.76011 0.22314,-0.89257 -0.29094,-1.88729 0,-2.76011 0.41146,-1.23436 2.34866,-1.52575 2.76011,-2.76011 0.29094,-0.87282 -0.51034,-1.99459 0,-2.7601 0.57058,-0.85588 2.03276,-0.65271 2.76011,-1.38006 0.32528,-0.32528 -0.25517,-0.99729 0,-1.38005 0.72173,-1.08261 1.84007,-1.84007 2.76011,-2.76011 0,-0.46002 -0.20573,-0.9686 0,-1.38005 0.82803,-1.65607 3.31213,-2.4841 4.14016,-4.14017 0.20572,-0.41145 -0.32528,-1.05477 0,-1.38005 0.32528,-0.32528 0.9686,0.20573 1.38005,0 0.58188,-0.29094 0.79817,-1.08911 1.38006,-1.38005 0.41145,-0.20573 1.05477,0.32528 1.38005,0 0.32528,-0.32529 -0.32528,-1.05478 0,-1.38006 0.72735,-0.72735 1.90424,-0.80947 2.76011,-1.38005 3.15798,-2.10532 -0.86294,-1.09241 4.14016,-2.76011 0.43641,-0.14547 0.9686,0.20573 1.38005,0 1.2232,-0.6116 2.88388,-3.30264 4.14017,-4.14016 0.85587,-0.57058 2.03275,-0.6527 2.7601,-1.38005 0.32529,-0.32529 -0.41145,-1.17433 0,-1.38006 0.82291,-0.41145 1.93721,0.41145 2.76011,0 0.41145,-0.20573 -0.32528,-1.05477 0,-1.38005 0.32528,-0.32528 0.92004,0 1.38006,0 0,-0.46002 -0.32529,-1.05477 0,-1.38006 2.85538,-2.85538 -0.11162,4.3634 2.7601,-1.38005 0.9518,-1.90359 -1.67132,-1.23442 1.38006,-2.76011 0.41145,-0.20572 0.9686,0.20573 1.38005,0 0.58188,-0.29094 0.79817,-1.08911 1.38005,-1.38005 0.41146,-0.20573 1.05478,0.32528 1.38006,0 0.32528,-0.32528 -0.38276,-1.12488 0,-1.38006 1.21039,-0.80692 2.83903,-0.72949 4.14016,-1.38005 2.05726,-1.02863 2.10232,-4.90526 5.52022,-4.14016 1.69646,-0.84823 4.54325,2.82781 5.52021,-1.38006 0.58188,-0.29094 0.92004,-0.92003 1.38006,-1.38005 0.46001,0 0.9686,0.20573 1.38005,0 0.58188,-0.29094 0.79817,-1.08911 1.38005,-1.38005 1.30113,-0.65057 2.76011,-0.92004 4.14016,-1.38006 0.46002,0 0.95294,0.17085 1.38006,0 4.3695,-1.7478 7.81794,-4.36958 12.42048,-5.52021 1.96332,-0.49083 5.06419,0.61202 6.90027,0 0.61718,-0.20573 0.79818,-1.08912 1.38006,-1.38006 0.41145,-0.20572 0.94364,0.14547 1.38005,0 0.97585,-0.32528 1.78426,-1.05477 2.76011,-1.38005 0.43641,-0.14547 0.92004,0 1.38005,0 2.30009,0 4.60018,0 6.90027,0 6.44025,0 12.88051,0 19.32076,0 1.84007,0 3.68014,0 5.52021,0 0.92004,0 1.86754,0.22314 2.76011,0 0.99792,-0.24948 1.77105,-1.09747 2.76011,-1.38005 1.76527,-0.50437 13.98543,-2.69371 15.18059,-2.76011 8.72689,-0.48483 17.48068,0 26.22103,0 8.28032,0 16.56064,0 24.84097,0 1.84007,0 3.68014,0 5.52021,0 5.0602,0 10.13326,-0.36053 15.18059,0 1.45101,0.10364 2.7201,1.06448 4.14017,1.38005 2.73154,0.60701 5.50375,1.03298 8.28032,1.38006 0.91293,0.11411 1.84007,0 2.76011,0 5.52021,0 11.04043,0 16.56064,0 0.92004,0 1.84932,-0.13012 2.76011,0 2.32207,0.33172 4.57821,1.04833 6.90027,1.38005 0.91079,0.13011 1.84007,0 2.76011,0 2.30009,0 4.60018,0 6.90027,0 3.68014,0 7.36029,0 11.04043,0 1.38005,0 2.76011,0 4.14016,0 0.46002,0 0.9686,-0.20573 1.38006,0 4.20856,2.10428 -2.52405,1.09406 4.14016,2.76011 0.89256,0.22314 1.85259,-0.15126 2.76011,0 1.87089,0.31181 3.64932,1.06823 5.52021,1.38005 0.90752,0.15125 1.84007,0 2.76011,0 2.76011,0 5.54153,-0.34235 8.28032,0 1.02069,0.12759 1.74807,1.19605 2.76011,1.38005 4.09845,0.74518 8.31152,0.69523 12.42049,1.38006 1.43491,0.23915 2.7468,0.96205 4.14016,1.38005 3.20774,0.96233 6.39114,2.03361 9.66037,2.76011 0.89813,0.19958 1.86199,-0.19958 2.76011,0 3.26923,0.7265 6.44025,1.84007 9.66038,2.76011 1.38005,0.46002 2.72889,1.02723 4.14016,1.38005 4.11453,1.02863 8.23704,2.06287 12.42049,2.76011 1.36127,0.22688 2.78237,-0.24687 4.14016,0 26.74136,4.86207 1.72265,-0.0873 15.18059,5.52022 4.02841,1.6785 8.28033,2.7601 12.42049,4.14016 1.38005,0.46002 2.74143,0.98041 4.140159,1.38005 5.043204,1.44092 10.241145,2.37607 15.180593,4.14016 1.56199,0.55786 2.717908,1.90676 4.140161,2.76011 3.180256,1.90815 6.216859,4.14281 9.660378,5.52022 1.281348,0.51254 2.813207,-0.37913 4.140161,0 1.978108,0.56517 3.610095,1.99606 5.520216,2.7601 0.427116,0.17085 0.943643,-0.14547 1.380054,0 0.975845,0.32529 1.784262,1.05478 2.760108,1.38006 1.79937,0.59979 3.759171,0.67563 5.520215,1.38005 0.604034,0.24162 0.838753,1.01919 1.380054,1.38006 0.855873,0.57058 1.840072,0.92003 2.760108,1.38005 0.920036,0.46002 1.814646,0.97486 2.760108,1.38005 2.276973,0.97585 4.580727,1.89028 6.900269,2.76011 1.362083,0.51078 2.929775,0.57313 4.140162,1.38006 11.237206,7.49147 5.51056,4.12809 11.040431,11.04043 2.64943,3.31178 5.427414,6.52217 8.280324,9.66037 13.13005231,14.44306 -3.902532,-7.28137 16.5606468,19.32076 1.0112775,1.31466 1.7488304,2.8255 2.7601078,4.14016 3.5918698,4.66943 7.4485614,9.13111 11.0404314,13.80054 1.011277,1.31466 1.520441,3.03824 2.760108,4.14016 2.957666,2.62904 6.494598,4.52594 9.660377,6.90027 0.520451,0.39034 0.838752,1.01919 1.380054,1.38005 0.855873,0.57059 2.032756,0.65271 2.760108,1.38006 0.325282,0.32528 -0.205726,0.9686 0,1.38005 0.290941,0.58188 1.174327,0.76288 1.380054,1.38006 0.436411,1.30923 -0.436412,2.83092 0,4.14016 1.266358,3.79907 3.171139,7.16434 4.140161,11.04043 0.568902,2.27561 0.735657,4.64488 1.380054,6.90027 0.282587,0.98905 1.156913,1.75597 1.380054,2.76011 0.705636,3.17536 0.674419,6.48502 1.380054,9.66037 0.223142,1.00414 0.962287,1.82014 1.380054,2.76011 1.422863,3.20144 2.839034,6.40756 4.140162,9.66038 0.540263,1.35066 0.857845,2.78242 1.380054,4.14016 8.250929,21.45242 2.984428,6.19318 8.280323,22.08086 3.046276,9.13883 6.764455,23.2572 12.420485,31.74124 0.570582,0.85588 1.904235,0.80948 2.760108,1.38006 1.913791,1.27586 3.893807,2.51375 5.520216,4.14016 0.325282,0.32528 0,0.92004 0,1.38005 0,1.62196 -0.311858,7.0329 0,8.28033 0.352817,1.41127 0.920036,2.7601 1.380054,4.14016 0,0.46002 -0.111571,0.93377 0,1.38005 0.352817,1.41127 1.027236,2.72889 1.380054,4.14016 0.11157,0.44629 0,0.92004 0,1.38006 0,0.26666 0,4.20478 0,5.52021 0,0.92004 0,1.84008 0,2.76011 0,0.46002 0.205726,0.9686 0,1.38006 -1.19958,2.39915 -2.760108,4.60017 -4.140162,6.90026 z"
       id="path6669"
       inkscape:connector-curvature="0" />
  </g>
</svg>
