<?xml version="1.0" encoding="UTF-8" standalone="no"?>
<!-- Created with Inkscape (http://www.inkscape.org/) -->

<svg
   xmlns:dc="http://purl.org/dc/elements/1.1/"
   xmlns:cc="http://creativecommons.org/ns#"
   xmlns:rdf="http://www.w3.org/1999/02/22-rdf-syntax-ns#"
   xmlns:svg="http://www.w3.org/2000/svg"
   xmlns="http://www.w3.org/2000/svg"
   xmlns:xlink="http://www.w3.org/1999/xlink"
   xmlns:sodipodi="http://sodipodi.sourceforge.net/DTD/sodipodi-0.dtd"
   xmlns:inkscape="http://www.inkscape.org/namespaces/inkscape"
   width="744.09448819"
   height="1052.3622047"
   id="svg3957"
   version="1.1"
   inkscape:version="0.48.4 r9939"
   sodipodi:docname="New document 4">
  <defs
     id="defs3959">
    <linearGradient
       inkscape:collect="always"
       id="linearGradient4527">
      <stop
         style="stop-color:#ffb380;stop-opacity:1;"
         offset="0"
         id="stop4529" />
      <stop
         style="stop-color:#ffb380;stop-opacity:0;"
         offset="1"
         id="stop4531" />
    </linearGradient>
    <radialGradient
       inkscape:collect="always"
       xlink:href="#linearGradient4527"
       id="radialGradient4537"
       gradientUnits="userSpaceOnUse"
       gradientTransform="matrix(-1.7363436,-0.05919081,0.02982135,-2.9369919,633.56667,1651.8638)"
       cx="234.99164"
       cy="414.86432"
       fx="234.99164"
       fy="414.86432"
       r="22.462297" />
  </defs>
  <sodipodi:namedview
     id="base"
     pagecolor="#ffffff"
     bordercolor="#666666"
     borderopacity="1.0"
     inkscape:pageopacity="0.0"
     inkscape:pageshadow="2"
     inkscape:zoom="2.8"
     inkscape:cx="216.51822"
     inkscape:cy="642.20915"
     inkscape:document-units="px"
     inkscape:current-layer="layer1"
     showgrid="false"
     inkscape:window-width="708"
     inkscape:window-height="688"
     inkscape:window-x="563"
     inkscape:window-y="0"
     inkscape:window-maximized="0" />
  <metadata
     id="metadata3962">
    <rdf:RDF>
      <cc:Work
         rdf:about="">
        <dc:format>image/svg+xml</dc:format>
        <dc:type
           rdf:resource="http://purl.org/dc/dcmitype/StillImage" />
        <dc:title></dc:title>
      </cc:Work>
    </rdf:RDF>
  </metadata>
  <g
     inkscape:label="Layer 1"
     inkscape:groupmode="layer"
     id="layer1">
    <path
       sodipodi:type="arc"
       style="fill:#ff9955;fill-opacity:1"
       id="path3965"
       sodipodi:cx="188.12175"
       sodipodi:cy="429.03342"
       sodipodi:rx="47.732384"
       sodipodi:ry="71.598572"
       d="m 235.85413,429.03342 a 47.732384,71.598572 0 1 1 -95.46476,0 47.732384,71.598572 0 1 1 95.46476,0 z"
       transform="matrix(1.4117647,0,0,1,-71.846321,0)" />
    <path
       sodipodi:type="arc"
       style="fill:#ff9955;fill-opacity:1"
       id="path3971"
       sodipodi:cx="261.12421"
       sodipodi:cy="435.35095"
       sodipodi:rx="44.924595"
       sodipodi:ry="56.857693"
       d="m 306.0488,435.35095 a 44.924595,56.857693 0 1 1 -89.84919,0 44.924595,56.857693 0 1 1 89.84919,0 z"
       transform="matrix(1.546875,0,0,1.2592592,-165.96655,-119.18629)" />
    <path
       sodipodi:type="arc"
       style="fill:url(#radialGradient4537);fill-opacity:1"
       id="path3975"
       sodipodi:cx="237.25803"
       sodipodi:cy="423.41785"
       sodipodi:rx="22.462297"
       sodipodi:ry="65.983002"
       d="m 259.72032,423.41785 a 22.462297,65.983002 0 1 1 -44.92459,0 22.462297,65.983002 0 1 1 44.92459,0 z"
       transform="matrix(1.96875,0,0,1.0744681,-251.60406,-28.021381)" />
    <path
       style="opacity:0.25;fill:#000000;fill-opacity:1"
       d="m 256.42858,467.17152 c 0,11.3608 -16.23494,23.04779 -37.14286,23.04779 -20.90793,0 -42.14286,-13.48957 -42.14286,-24.85036 0,-11.36079 20.87779,-1.33032 41.78572,-1.33032 20.90792,0 37.5,-8.2279 37.5,3.13289 z"
       id="path4539"
       inkscape:connector-curvature="0"
       sodipodi:nodetypes="sssss" />
    <path
       sodipodi:nodetypes="sssss"
       inkscape:connector-curvature="0"
       id="path4542"
       d="m 292.85715,469.50503 c 0,10.84845 -26.28042,28.97877 -47.14286,30.35714 C 224.09207,501.29074 197.5,494.28206 197.5,483.43361 c 0,-10.84845 26.94922,-8.57144 47.85715,-8.57144 20.90792,0 47.5,-16.20559 47.5,-5.35714 z"
       style="opacity:0.25;fill:#000000;fill-opacity:1" />
    <path
       style="opacity:0.25;fill:#000000;fill-opacity:1"
       d="m 138.92858,468.58944 c 1.78571,10.58624 26.28042,30.18638 47.14286,31.62219 21.62222,1.4881 48.21429,-5.81264 48.21429,-17.11317 0,-11.30053 -26.94922,-8.92864 -47.85715,-8.92864 -20.90792,0 -49.37965,-16.72349 -47.5,-5.58038 z"
       id="path4544"
       inkscape:connector-curvature="0"
       sodipodi:nodetypes="sssss" />
    <path
       style="fill:#000000;fill-opacity:1"
       d="m 199.64286,396.82493 c 0,7.59306 -4.5165,13.74846 -10.08791,13.74846 -5.5714,0 -15.62637,0.71884 -15.62637,-6.87423 0,-7.59306 10.05497,-20.62271 15.62637,-20.62271 5.57141,0 10.08791,6.15541 10.08791,13.74848 z"
       id="path4546"
       inkscape:connector-curvature="0"
       sodipodi:nodetypes="sssss" />
    <path
       sodipodi:nodetypes="sssss"
       inkscape:connector-curvature="0"
       id="path4551"
       d="m 232.85715,397.36076 c 0,7.4945 4.45378,13.57001 9.94779,13.57001 5.49404,0 15.40935,0.7095 15.40935,-6.785 0,-7.49452 -9.91531,-20.35503 -15.40935,-20.35503 -5.49401,0 -9.94779,6.07551 -9.94779,13.57002 z"
       style="fill:#000000;fill-opacity:1" />
    <path
       style="fill:#000000;fill-opacity:1"
       d="m 159.33036,444.72768 c -2.33031,0.0164 -0.76786,-0.10185 -0.76786,2.33482 0,11.13908 26.7485,48.875 58.40625,48.875 31.65775,0 59.81696,-33.28057 59.81696,-44.41964 0,-5.92436 -6.52199,-4.83557 -18.93304,-1.54018 l 0.71429,9.55357 -16.06696,0 0,-7.0625 c -7.90797,1.73398 -16.59257,3.125 -25.53125,3.125 -10.5206,0 -20.49266,-2.1662 -29.125,-4.65625 l 0,6.4375 -15.70982,0 -1.07143,-11.32589 c -4.82885,-1.57588 -9.15882,-1.33951 -11.73214,-1.32143 z"
       id="path4553"
       inkscape:connector-curvature="0"
       sodipodi:nodetypes="ssssccccsccccs" />
    <path
       style="opacity:0.25;fill:#ffcc00;fill-opacity:1"
       d="m 231.78572,397.89447 c 0,9.16996 5.26926,16.60372 11.76922,16.60372 6.49999,0 18.23078,0.86811 18.23078,-8.30186 0,-9.16999 -11.73079,-24.90559 -18.23078,-24.90559 -6.49996,0 -11.76922,7.43375 -11.76922,16.60373 z"
       id="path4579"
       inkscape:connector-curvature="0"
       sodipodi:nodetypes="sssss" />
    <path
       style="opacity:0.25;fill:#660080;fill-opacity:1"
       d="m 232.14287,397.18042 c 0,8.97285 5.01835,16.2468 11.20878,16.2468 6.19046,0 17.36264,0.84946 17.36264,-8.12339 0,-8.97288 -11.17218,-24.37023 -17.36264,-24.37023 -6.19043,0 -11.20878,7.27395 -11.20878,16.24682 z"
       id="path4581"
       inkscape:connector-curvature="0"
       sodipodi:nodetypes="sssss" />
    <path
       sodipodi:nodetypes="sssss"
       inkscape:connector-curvature="0"
       id="path4583"
       d="m 233.2143,397.00362 c 0,7.4945 4.45378,13.57001 9.94779,13.57001 5.49404,0 15.40935,0.7095 15.40935,-6.785 0,-7.49452 -9.91531,-20.35503 -15.40935,-20.35503 -5.49401,0 -9.94779,6.07551 -9.94779,13.57002 z"
       style="opacity:1;fill:#000000;fill-opacity:1" />
    <path
       sodipodi:nodetypes="sssss"
       inkscape:connector-curvature="0"
       id="path4585"
       d="m 199.28572,396.46613 c 0,8.97285 -4.45378,16.2468 -9.94779,16.2468 -5.49404,0 -15.40935,0.84946 -15.40935,-8.12339 0,-8.97288 9.91531,-24.37023 15.40935,-24.37023 5.49401,0 9.94779,7.27395 9.94779,16.24682 z"
       style="opacity:0.25;fill:#ffcc00;fill-opacity:1" />
    <path
       sodipodi:nodetypes="sssss"
       inkscape:connector-curvature="0"
       id="path4587"
       d="m 200.00001,396.46613 c 0,8.97286 -4.83016,16.24681 -10.78845,16.24681 -5.95832,0 -16.71155,0.84947 -16.71155,-8.12339 0,-8.97288 10.75323,-24.37023 16.71155,-24.37023 5.95829,0 10.78845,7.27395 10.78845,16.24681 z"
       style="opacity:0.25;fill:#660080;fill-opacity:1" />
    <path
       style="fill:#000000;fill-opacity:1"
       d="m 199.64287,396.64647 c 0,7.4945 -4.45378,13.57001 -9.94779,13.57001 -5.49404,0 -15.40935,0.7095 -15.40935,-6.785 0,-7.49452 9.91531,-20.35503 15.40935,-20.35503 5.49401,0 9.94779,6.07551 9.94779,13.57002 z"
       id="path4589"
       inkscape:connector-curvature="0"
       sodipodi:nodetypes="sssss" />
    <path
       id="path4591"
       d="m 157.66438,443.65626 c -2.40729,0.0168 -3.74474,0.99607 -3.74474,3.49932 0,11.44345 27.63202,50.21049 60.33543,50.21049 32.70343,0 62.53064,-36.39136 62.53064,-47.8348 0,-6.08623 -4.97926,-3.15742 -17.80024,0.22801 l -3.60285,10.20576 -14.75298,0 0,-7.25549 c -8.16917,1.78137 -17.14062,3.21039 -26.37457,3.21039 -10.86809,0 -21.16953,-2.22539 -30.087,-4.78348 l 0,6.61341 -14.75296,0 0,-11.26847 c -4.98835,-1.61894 -9.09242,-2.84372 -11.75073,-2.82514 z"
       style="opacity:0.2;fill:#ffe680;fill-opacity:1"
       inkscape:connector-curvature="0"
       sodipodi:nodetypes="csssccccsccccc" />
    <path
       inkscape:connector-curvature="0"
       style="opacity:0.2;fill:#672178;fill-opacity:1"
       d="m 158.7358,445.08483 c -2.40728,0.0164 -4.10187,0.25528 -4.10187,2.69195 0,11.13908 27.98916,49.58929 60.69258,49.58929 32.70342,0 62.53063,-35.42343 62.53063,-46.5625 0,-5.92435 -8.58211,-3.76414 -21.4031,-0.46875 l -1.07143,7.05358 -10.46725,0.35714 -0.35715,-7.77679 c -8.16917,1.73398 -20.35491,3.83928 -29.58884,3.83928 -10.8681,0 -21.52669,-2.88048 -30.44417,-5.37053 l -0.35714,7.15178 -9.03867,-0.35714 0,-7.39732 c -4.98835,-1.57588 -13.73527,-2.76808 -16.39359,-2.74999 z"
       id="path4593"
       sodipodi:nodetypes="ssssccccsccccs" />
    <path
       id="path4595"
       d="m 162.53375,445.79909 c -2.32331,0.0147 -3.61411,0.87023 -3.61411,3.05721 0,9.99769 26.66817,43.86691 58.23086,43.86691 31.5627,0 60.34949,-31.79368 60.34949,-41.79135 0,-5.31731 -8.28275,-3.37845 -20.65653,-0.42073 l 0,9.53628 -14.23837,0 0,-6.33881 c -7.88423,1.55629 -16.54275,2.80478 -25.45459,2.80478 -10.489,0 -20.43112,-1.94423 -29.03754,-4.17913 l 0,5.77786 -14.23837,0 0,-9.8448 c -4.81435,-1.41441 -8.77524,-2.48445 -11.34084,-2.46822 z"
       style="fill:#000000;fill-opacity:1"
       inkscape:connector-curvature="0" />
    <path
       sodipodi:nodetypes="ssssccccsccccs"
       id="path4599"
       d="m 158.7358,445.08483 c -2.40728,0.0164 -4.10187,0.25528 -4.10187,2.69195 0,11.13908 27.98916,49.58929 60.69258,49.58929 32.70342,0 62.53063,-35.42343 62.53063,-46.5625 0,-5.92435 -8.58211,-3.76414 -21.4031,-0.46875 l -1.07143,7.05358 -10.46725,0.35714 -0.35715,-7.77679 c -8.16917,1.73398 -20.35491,3.83928 -29.58884,3.83928 -10.8681,0 -21.52669,-2.88048 -30.44417,-5.37053 l -0.35714,7.15178 -9.03867,-0.35714 0,-7.39732 c -4.98835,-1.57588 -13.73527,-2.76808 -16.39359,-2.74999 z"
       style="opacity:0.20000000000000001;fill:#ffe680;fill-opacity:1"
       inkscape:connector-curvature="0" />
    <path
       inkscape:connector-curvature="0"
       style="fill:#000000;fill-opacity:1"
       d="m 160.39074,445.44197 c -2.33054,0.0157 -3.9711,0.24481 -3.9711,2.58161 0,10.68252 27.09682,47.55677 58.75759,47.55677 31.66078,0 60.53705,-33.97153 60.53705,-44.65404 0,-5.68153 -8.3085,-3.60986 -20.72073,-0.44954 l -1.03727,6.76448 -10.13354,0.3425 -0.34576,-7.45805 c -7.90873,1.66291 -19.70596,3.68193 -28.6455,3.68193 -10.52161,0 -20.84038,-2.76242 -29.47356,-5.15041 l -0.34575,6.85865 -8.7505,-0.34251 0,-7.09412 c -4.82931,-1.51129 -13.29737,-2.65463 -15.87093,-2.63727 z"
       id="path4601"
       sodipodi:nodetypes="ssssccccsccccs" />
    <path
       sodipodi:nodetypes="ssssccccsccccs"
       id="path4603"
       d="m 160.39074,445.44197 c -2.33054,0.0157 -3.9711,0.24481 -3.9711,2.58161 0,10.68252 27.09682,47.55677 58.75759,47.55677 31.66078,0 60.53705,-33.97153 60.53705,-44.65404 0,-5.68153 -8.3085,-3.60986 -20.72073,-0.44954 l -1.03727,6.76448 -10.13354,0.3425 -0.34576,-7.45805 c -7.90873,1.66291 -19.70596,3.68193 -28.6455,3.68193 -10.52161,0 -20.84038,-2.76242 -29.47356,-5.15041 l -0.34575,6.85865 -8.7505,-0.34251 0,-7.09412 c -4.82931,-1.51129 -13.29737,-2.65463 -15.87093,-2.63727 z"
       style="fill:#672178;fill-opacity:1;opacity:0.25"
       inkscape:connector-curvature="0" />
    <path
       sodipodi:type="arc"
       style="opacity:1;fill:#ff0000;fill-opacity:1"
       id="path4605"
       sodipodi:cx="192.32143"
       sodipodi:cy="399.86218"
       sodipodi:rx="3.0357144"
       sodipodi:ry="4.2857141"
       d="m 195.35714,399.86218 a 3.0357144,4.2857141 0 1 1 -6.07143,0 3.0357144,4.2857141 0 1 1 6.07143,0 z" />
    <path
       d="m 195.35714,399.86218 a 3.0357144,4.2857141 0 1 1 -6.07143,0 3.0357144,4.2857141 0 1 1 6.07143,0 z"
       sodipodi:ry="4.2857141"
       sodipodi:rx="3.0357144"
       sodipodi:cy="399.86218"
       sodipodi:cx="192.32143"
       id="path4607"
       style="fill:#ff0000;fill-opacity:1"
       sodipodi:type="arc"
       transform="translate(46.071429,0)" />
    <path
       style="fill:#008000;fill-opacity:1"
       d="m 214.28572,356.11219 c 0.74345,5.17384 0.0694,9.82143 -1.60715,9.82143 -1.67658,0 -3.03571,-4.23731 -3.03571,-9.46429 0,-5.22698 -9.17554,-25.78234 -9.10715,-24.10715 0.0658,1.61081 12.24073,13.24659 13.75001,23.75001 z"
       id="path4609"
       inkscape:connector-curvature="0"
       sodipodi:nodetypes="sssss" />
    <path
       sodipodi:nodetypes="sssss"
       inkscape:connector-curvature="0"
       id="path4612"
       d="m 216.72083,358.46465 c -4.19358,1.99951 -7.36629,4.94985 -6.62374,6.39191 0.74257,1.44209 4.50935,0.44984 8.41335,-2.21625 3.90399,-2.66608 23.32054,-5.25837 22.03907,-4.46275 -1.23225,0.76502 -15.31529,-3.77212 -23.82868,0.28709 z"
       style="fill:#008000;fill-opacity:1" />
    <path
       style="fill:#008000;fill-opacity:1"
       d="m 209.23531,358.46465 c 4.19358,1.99951 7.36629,4.94985 6.62374,6.39191 -0.74257,1.44209 -4.50935,0.44984 -8.41335,-2.21625 -3.90399,-2.66608 -23.32054,-5.25837 -22.03907,-4.46275 1.23225,0.76502 15.31529,-3.77212 23.82868,0.28709 z"
       id="path4614"
       inkscape:connector-curvature="0"
       sodipodi:nodetypes="sssss" />
  </g>
</svg>
