<?xml version="1.0" encoding="UTF-8" standalone="no"?>
<!-- Created with Inkscape (http://www.inkscape.org/) -->

<svg
   xmlns:dc="http://purl.org/dc/elements/1.1/"
   xmlns:cc="http://creativecommons.org/ns#"
   xmlns:rdf="http://www.w3.org/1999/02/22-rdf-syntax-ns#"
   xmlns:svg="http://www.w3.org/2000/svg"
   xmlns="http://www.w3.org/2000/svg"
   xmlns:sodipodi="http://sodipodi.sourceforge.net/DTD/sodipodi-0.dtd"
   xmlns:inkscape="http://www.inkscape.org/namespaces/inkscape"
   width="744.09448819"
   height="1052.3622047"
   id="svg2"
   version="1.1"
   inkscape:version="0.48.4 r9939"
   sodipodi:docname="robots.svg">
  <defs
     id="defs4">
    <inkscape:perspective
       sodipodi:type="inkscape:persp3d"
       inkscape:vp_x="216.51378 : 464.48287 : 1"
       inkscape:vp_y="0 : 1000 : 0"
       inkscape:vp_z="1173.1366 : 305.77667 : 1"
       inkscape:persp3d-origin="892.17288 : 349.81154 : 1"
       id="perspective3961" />
    <inkscape:perspective
       sodipodi:type="inkscape:persp3d"
       inkscape:vp_x="-24.520054 : 464.48287 : 1"
       inkscape:vp_y="0 : 1000 : 0"
       inkscape:vp_z="932.10273 : 305.77667 : 1"
       inkscape:persp3d-origin="651.13905 : 349.81154 : 1"
       id="perspective3905" />
    <inkscape:perspective
       sodipodi:type="inkscape:persp3d"
       inkscape:vp_x="-303.61186 : 465.45872 : 1"
       inkscape:vp_y="0 : 1000 : 0"
       inkscape:vp_z="653.01092 : 306.75252 : 1"
       inkscape:persp3d-origin="372.04724 : 350.78739 : 1"
       id="perspective2985" />
  </defs>
  <sodipodi:namedview
     id="base"
     pagecolor="#ffffff"
     bordercolor="#666666"
     borderopacity="1.0"
     inkscape:pageopacity="0.0"
     inkscape:pageshadow="2"
     inkscape:zoom="1.4492187"
     inkscape:cx="544.38195"
     inkscape:cy="500.47791"
     inkscape:document-units="px"
     inkscape:current-layer="layer1"
     showgrid="false"
     inkscape:window-width="1280"
     inkscape:window-height="697"
     inkscape:window-x="-8"
     inkscape:window-y="-8"
     inkscape:window-maximized="1"
     showguides="true"
     inkscape:guide-bbox="true" />
  <metadata
     id="metadata7">
    <rdf:RDF>
      <cc:Work
         rdf:about="">
        <dc:format>image/svg+xml</dc:format>
        <dc:type
           rdf:resource="http://purl.org/dc/dcmitype/StillImage" />
      </cc:Work>
    </rdf:RDF>
  </metadata>
  <g
     inkscape:label="Layer 1"
     inkscape:groupmode="layer"
     id="layer1">
    <g
       id="g3845"
       inkscape:transform-center-x="6.8309183"
       inkscape:transform-center-y="38.07004">
      <path
         id="rect3837"
         d="m 170.0342,606.40082 13.18768,0 c 0.67196,0 1.21292,0.52949 1.21292,1.18721 l 0,64.95891 c 0,0.65772 -0.54096,1.18721 -1.21292,1.18721 l -13.18768,0 c -0.67196,0 -1.21293,-0.52949 -1.21293,-1.18721 l 0,-64.95891 c 0,-0.65772 0.54097,-1.18721 1.21293,-1.18721 z"
         style="fill:#800080;fill-opacity:1;fill-rule:nonzero;stroke:#ffffff;stroke-opacity:1"
         inkscape:connector-curvature="0" />
      <path
         id="rect3841"
         d="m 152.46897,662.02399 30.75289,0 c 0.67196,0 1.21293,0.52949 1.21293,1.18721 l 0,17.14248 c 0,0.65772 -0.54097,1.18722 -1.21293,1.18722 l -30.75289,0 c -0.67196,0 -1.21293,-0.5295 -1.21293,-1.18722 l 0,-17.14248 c 0,-0.65772 0.54097,-1.18721 1.21293,-1.18721 z"
         style="fill:#800080;fill-opacity:1;fill-rule:nonzero;stroke:#ffffff;stroke-opacity:1"
         inkscape:connector-curvature="0" />
    </g>
    <path
       style="fill:#ff00ff;fill-opacity:1;fill-rule:nonzero;stroke:#ffffff;stroke-opacity:1"
       d="m 196.44097,546.10253 c 4.6861,3.63128 -24.074,35.84649 -38.92927,55.01692 -14.85527,19.17042 -60.340069,36.77233 -58.657277,31.08778 9.215367,-31.12977 42.142567,-30.48686 55.628747,-49.48366 14.03923,-19.77584 37.2717,-40.25233 41.9578,-36.62104 z"
       id="path3830"
       inkscape:connector-curvature="0"
       sodipodi:nodetypes="sssss"
       inkscape:transform-center-x="43.624833"
       inkscape:transform-center-y="38.869383" />
    <path
       style="fill:#ff6600;fill-opacity:1;fill-rule:nonzero;stroke:#ffffff;stroke-opacity:1"
       d="m 225.4203,561.5119 c 54.31241,37.12034 -8.49499,59.7572 -26.34783,59.52658 -11.85579,-0.15315 -60.50242,-26.44687 -25.37198,-56.59904 26.58271,-22.81573 13.5152,-70.26087 25.37198,-70.26087 11.85678,0 -2.57395,47.56647 26.34783,67.33333 z"
       id="path3825"
       inkscape:connector-curvature="0"
       sodipodi:nodetypes="sssss" />
    <g
       id="g3967">
      <g
         inkscape:transform-center-y="113.29494"
         inkscape:transform-center-x="23.460916"
         inkscape:corner7="0.29610057 : 0.27669628 : 0.25 : 1"
         inkscape:corner0="0.68493074 : 0.48901276 : 0 : 1"
         inkscape:perspectiveID="#perspective2985"
         id="g2987"
         style="fill:#00ffff;fill-opacity:1;fill-rule:nonzero;stroke:#00005a;stroke-opacity:1"
         sodipodi:type="inkscape:box3d">
        <path
           d="m 169.17757,413.94385 118.90222,-43.49777 0,137.32385 -118.90222,15.90212 z"
           inkscape:box3dsidetype="11"
           style="fill:#00ffff;fill-rule:evenodd;stroke:#00005a;stroke-opacity:1"
           id="path2999"
           sodipodi:type="inkscape:box3dside" />
        <path
           d="m 97.389252,364.73324 0,126.00903 71.788318,32.92978 0,-109.7282 z"
           inkscape:box3dsidetype="6"
           style="fill:#00ffff;fill-rule:evenodd;stroke:#00005a;stroke-opacity:1"
           id="path2989"
           sodipodi:type="inkscape:box3dside" />
        <path
           d="m 97.389252,364.73324 120.300328,-66.65106 70.39021,72.3639 -118.90222,43.49777 z"
           inkscape:box3dsidetype="5"
           style="fill:#00ffff;fill-rule:evenodd;stroke:#00005a;stroke-opacity:1"
           id="path2991"
           sodipodi:type="inkscape:box3dside" />
        <path
           d="m 97.389252,490.74227 120.300328,-28.84836 70.39021,45.87602 -118.90222,15.90212 z"
           inkscape:box3dsidetype="13"
           style="fill:#00ffff;fill-rule:evenodd;stroke:#00005a;stroke-opacity:1"
           id="path2997"
           sodipodi:type="inkscape:box3dside" />
        <path
           d="m 217.68958,298.08218 0,163.81173 70.39021,45.87602 0,-137.32385 z"
           inkscape:box3dsidetype="14"
           style="fill:#00ffff;fill-rule:evenodd;stroke:#00005a;stroke-opacity:1"
           id="path2995"
           sodipodi:type="inkscape:box3dside" />
        <path
           d="m 97.389252,364.73324 120.300328,-66.65106 0,163.81173 -120.300328,28.84836 z"
           inkscape:box3dsidetype="3"
           style="fill:#00ffff;stroke:#00005a;stroke-opacity:1"
           id="path2993"
           sodipodi:type="inkscape:box3dside" />
      </g>
      <path
         id="path3820"
         d="M 163.875 434.1875 L 163.875 442.8125 C 163.875 443.14135 163.99952 443.44166 164.21875 443.65625 C 164.43798 443.87084 164.72652 444 165.0625 444 L 178.75 444 C 179.08598 444 179.40576 443.87084 179.625 443.65625 C 179.84424 443.44166 179.96875 443.14135 179.96875 442.8125 L 179.96875 422.3125 C 175.38165 426.64108 169.99273 431.30983 163.875 434.1875 z "
         style="fill:#ffffff;fill-opacity:1;fill-rule:nonzero;stroke:#00005a;stroke-opacity:1" />
      <path
         id="path3823"
         d="M 126.78125 423.625 L 126.78125 443.78125 C 126.78125 444.1101 126.90576 444.41041 127.125 444.625 C 127.34424 444.83959 127.66402 444.96875 128 444.96875 L 141.6875 444.96875 C 142.02348 444.96875 142.31201 444.83959 142.53125 444.625 C 142.75049 444.41041 142.875 444.1101 142.875 443.78125 L 142.875 434.3125 C 136.95225 431.73654 131.57442 427.72341 126.78125 423.625 z "
         style="fill:#ffffff;fill-opacity:1;fill-rule:nonzero;stroke:#00005a;stroke-opacity:1" />
      <path
         id="path3771"
         d="M 112.59375 412.90625 C 110.2995 412.46124 109.03125 414.40558 109.03125 420.3125 C 109.03125 443.94016 128.18484 463.09375 151.8125 463.09375 C 175.44017 463.09375 194.59375 443.94016 194.59375 420.3125 C 194.59375 407.14773 188.94254 413.84444 179.96875 422.3125 L 179.96875 442.8125 C 179.96875 443.14135 179.84424 443.44166 179.625 443.65625 C 179.40576 443.87084 179.08598 444 178.75 444 L 165.0625 444 C 164.72652 444 164.43798 443.87084 164.21875 443.65625 C 163.99952 443.44166 163.875 443.14135 163.875 442.8125 L 163.875 434.1875 C 160.48083 435.78406 156.92102 436.84375 153.1875 436.84375 C 149.64822 436.84375 146.21745 435.76622 142.875 434.3125 L 142.875 443.78125 C 142.875 444.1101 142.75049 444.41041 142.53125 444.625 C 142.31201 444.83959 142.02348 444.96875 141.6875 444.96875 L 128 444.96875 C 127.66402 444.96875 127.34424 444.83959 127.125 444.625 C 126.90576 444.41041 126.78125 444.1101 126.78125 443.78125 L 126.78125 423.625 C 120.7359 418.45591 115.66597 413.50217 112.59375 412.90625 z "
         style="fill:#000000;fill-opacity:1;fill-rule:nonzero;stroke:#00005a;stroke-opacity:1" />
      <path
         d="m 140.76549,378.89587 a 11.730458,19.320755 0 1 1 -23.46091,0 11.730458,19.320755 0 1 1 23.46091,0 z"
         sodipodi:ry="19.320755"
         sodipodi:rx="11.730458"
         sodipodi:cy="378.89587"
         sodipodi:cx="129.03503"
         id="path3774"
         style="fill:#000000;fill-opacity:1;fill-rule:nonzero;stroke:#00005a;stroke-opacity:1"
         sodipodi:type="arc" />
      <path
         d="m 189.06738,371.99561 a 10.350405,24.840971 0 1 1 -20.7008,0 10.350405,24.840971 0 1 1 20.7008,0 z"
         sodipodi:ry="24.840971"
         sodipodi:rx="10.350405"
         sodipodi:cy="371.99561"
         sodipodi:cx="178.71698"
         id="path3776"
         style="fill:#000000;fill-opacity:1;fill-rule:nonzero;stroke:#00005a;stroke-opacity:1"
         sodipodi:type="arc" />
      <path
         d="m 135.24528,382.34601 a 5.5202155,14.490566 0 1 1 -11.04043,0 5.5202155,14.490566 0 1 1 11.04043,0 z"
         sodipodi:ry="14.490566"
         sodipodi:rx="5.5202155"
         sodipodi:cy="382.34601"
         sodipodi:cx="129.72507"
         id="path3778"
         style="fill:#ffffff;fill-opacity:1;fill-rule:nonzero;stroke:#00005a;stroke-opacity:1"
         sodipodi:type="arc" />
      <path
         d="m 186.30728,376.13577 a 5.5202155,17.940701 0 1 1 -11.04043,0 5.5202155,17.940701 0 1 1 11.04043,0 z"
         sodipodi:ry="17.940701"
         sodipodi:rx="5.5202155"
         sodipodi:cy="376.13577"
         sodipodi:cx="180.78706"
         id="path3780"
         style="fill:#ffffff;fill-opacity:1;fill-rule:nonzero;stroke:#00005a;stroke-opacity:1"
         sodipodi:type="arc" />
      <path
         d="m 133.69083,382.81021 a 0.97584546,5.2451696 0 1 1 -1.95169,0 0.97584546,5.2451696 0 1 1 1.95169,0 z"
         sodipodi:ry="5.2451696"
         sodipodi:rx="0.97584546"
         sodipodi:cy="382.81021"
         sodipodi:cx="132.71498"
         id="path3782"
         style="fill:#000000;fill-opacity:1;fill-rule:nonzero;stroke:#00005a;stroke-opacity:1"
         sodipodi:type="arc" />
      <path
         d="m 184.4348,376.95514 a 1.0978261,7.1968603 0 1 1 -2.19565,0 1.0978261,7.1968603 0 1 1 2.19565,0 z"
         sodipodi:ry="7.1968603"
         sodipodi:rx="1.0978261"
         sodipodi:cy="376.95514"
         sodipodi:cx="183.33698"
         id="path3784"
         style="fill:#000000;fill-opacity:1;fill-rule:nonzero;stroke:#00005a;stroke-opacity:1"
         sodipodi:type="arc" />
    </g>
    <path
       sodipodi:nodetypes="sssss"
       inkscape:connector-curvature="0"
       id="path3835"
       d="m 214.97374,552.98315 c 3.50788,-4.77918 36.46198,23.13123 56.0132,37.48162 19.55122,14.35039 38.33303,59.36082 32.60655,57.82681 -31.35946,-8.40062 -31.57526,-41.33339 -50.91721,-54.31968 -20.13515,-13.51886 -41.21042,-36.20955 -37.70254,-40.98875 z"
       style="fill:#ff00ff;fill-opacity:1;fill-rule:nonzero;stroke:#ffffff;stroke-width:1;stroke-opacity:1"
       inkscape:transform-center-x="-40.78502"
       inkscape:transform-center-y="43.162156" />
    <g
       id="g3849"
       transform="translate(12.685995,-0.97584552)">
      <path
         style="fill:#800080;fill-opacity:1;fill-rule:nonzero;stroke:#ffffff;stroke-opacity:1"
         d="m 170.0342,606.40082 13.18768,0 c 0.67196,0 1.21292,0.52949 1.21292,1.18721 l 0,64.95891 c 0,0.65772 -0.54096,1.18721 -1.21292,1.18721 l -13.18768,0 c -0.67196,0 -1.21293,-0.52949 -1.21293,-1.18721 l 0,-64.95891 c 0,-0.65772 0.54097,-1.18721 1.21293,-1.18721 z"
         id="path3851"
         inkscape:connector-curvature="0"
         inkscape:transform-center-y="34.166665" />
      <path
         style="fill:#800080;fill-opacity:1;fill-rule:nonzero;stroke:#ffffff;stroke-opacity:1"
         d="m 152.46897,662.02399 30.75289,0 c 0.67196,0 1.21293,0.52949 1.21293,1.18721 l 0,17.14248 c 0,0.65772 -0.54097,1.18722 -1.21293,1.18722 l -30.75289,0 c -0.67196,0 -1.21293,-0.5295 -1.21293,-1.18722 l 0,-17.14248 c 0,-0.65772 0.54097,-1.18721 1.21293,-1.18721 z"
         id="path3853"
         inkscape:connector-curvature="0" />
    </g>
    <g
       inkscape:transform-center-y="30.295827"
       inkscape:transform-center-x="29.834439"
       id="g3887"
       transform="matrix(0.76263138,0.64683335,-0.64683335,0.76263138,712.47135,31.811208)">
      <g
         id="g3907"
         inkscape:transform-center-x="7.8067638"
         inkscape:transform-center-y="38.07004">
        <path
           id="path3889"
           d="m 170.0342,606.40082 13.18768,0 c 0.67196,0 1.21292,0.52949 1.21292,1.18721 l 0,64.95891 c 0,0.65772 -0.54096,1.18721 -1.21292,1.18721 l -13.18768,0 c -0.67196,0 -1.21293,-0.52949 -1.21293,-1.18721 l 0,-64.95891 c 0,-0.65772 0.54097,-1.18721 1.21293,-1.18721 z"
           style="fill:#800080;fill-opacity:1;fill-rule:nonzero;stroke:#ffffff;stroke-opacity:1"
           inkscape:connector-curvature="0" />
        <path
           id="path3891"
           d="m 152.46897,662.02399 30.75289,0 c 0.67196,0 1.21293,0.52949 1.21293,1.18721 l 0,17.14248 c 0,0.65772 -0.54097,1.18722 -1.21293,1.18722 l -30.75289,0 c -0.67196,0 -1.21293,-0.5295 -1.21293,-1.18722 l 0,-17.14248 c 0,-0.65772 0.54097,-1.18721 1.21293,-1.18721 z"
           style="fill:#800080;fill-opacity:1;fill-rule:nonzero;stroke:#ffffff;stroke-opacity:1"
           inkscape:connector-curvature="0" />
      </g>
    </g>
    <path
       inkscape:transform-center-y="17.430041"
       inkscape:transform-center-x="56.169386"
       sodipodi:nodetypes="sssss"
       inkscape:connector-curvature="0"
       id="path3893"
       d="m 476.98858,549.62109 c 2.6846,5.28571 -37.08488,22.11876 -58.70826,33.10119 -21.62338,10.98242 -70.2676,7.45612 -66.31674,3.03611 21.6358,-24.20492 51.12948,-9.55101 71.4409,-20.9616 21.14438,-11.87853 50.89951,-20.46142 53.5841,-15.1757 z"
       style="fill:#ff00ff;fill-opacity:1;fill-rule:nonzero;stroke:#ffffff;stroke-width:1;stroke-opacity:1" />
    <path
       sodipodi:nodetypes="sssss"
       inkscape:connector-curvature="0"
       id="path3895"
       d="m 504.51211,562.48775 c 54.31241,37.12034 -8.49499,59.7572 -26.34783,59.52658 -11.85579,-0.15315 -60.50242,-26.44687 -25.37198,-56.59904 26.58271,-22.81573 13.5152,-70.26087 25.37198,-70.26087 11.85678,0 -2.57395,47.56647 26.34783,67.33333 z"
       style="fill:#ff6600;fill-opacity:1;fill-rule:nonzero;stroke:#ffffff;stroke-opacity:1" />
    <g
       id="g3985">
      <g
         sodipodi:type="inkscape:box3d"
         style="fill:#00ffff;fill-opacity:1;fill-rule:nonzero;stroke:#00005a;stroke-opacity:1"
         id="g3855"
         inkscape:perspectiveID="#perspective3905"
         inkscape:corner0="0.68493074 : 0.48901276 : 0 : 1"
         inkscape:corner7="0.29610057 : 0.27669628 : 0.25 : 1"
         inkscape:transform-center-x="23.460916"
         inkscape:transform-center-y="113.29494">
        <path
           sodipodi:type="inkscape:box3dside"
           id="path3857"
           style="fill:#00ffff;fill-rule:evenodd;stroke:#00005a;stroke-opacity:1"
           inkscape:box3dsidetype="11"
           d="m 448.26938,414.9197 118.90222,-43.49777 0,137.32385 -118.90222,15.90212 z" />
        <path
           sodipodi:type="inkscape:box3dside"
           id="path3859"
           style="fill:#00ffff;fill-rule:evenodd;stroke:#00005a;stroke-opacity:1"
           inkscape:box3dsidetype="6"
           d="m 376.48106,365.70909 0,126.00903 71.78832,32.92978 0,-109.7282 z" />
        <path
           sodipodi:type="inkscape:box3dside"
           id="path3861"
           style="fill:#00ffff;fill-rule:evenodd;stroke:#00005a;stroke-opacity:1"
           inkscape:box3dsidetype="5"
           d="m 376.48106,365.70909 120.30033,-66.65106 70.39021,72.3639 -118.90222,43.49777 z" />
        <path
           sodipodi:type="inkscape:box3dside"
           id="path3863"
           style="fill:#00ffff;fill-rule:evenodd;stroke:#00005a;stroke-opacity:1"
           inkscape:box3dsidetype="13"
           d="M 376.48106,491.71812 496.78139,462.86976 567.1716,508.74578 448.26938,524.6479 z" />
        <path
           sodipodi:type="inkscape:box3dside"
           id="path3865"
           style="fill:#00ffff;fill-rule:evenodd;stroke:#00005a;stroke-opacity:1"
           inkscape:box3dsidetype="14"
           d="m 496.78139,299.05803 0,163.81173 70.39021,45.87602 0,-137.32385 z" />
        <path
           sodipodi:type="inkscape:box3dside"
           id="path3867"
           style="fill:#00ffff;stroke:#00005a;stroke-opacity:1"
           inkscape:box3dsidetype="3"
           d="m 376.48106,365.70909 120.30033,-66.65106 0,163.81173 -120.30033,28.84836 z" />
      </g>
      <path
         inkscape:connector-curvature="0"
         style="fill:#ffffff;fill-opacity:1;fill-rule:nonzero;stroke:#00005a;stroke-opacity:1"
         d="m 442.96681,435.16335 0,8.625 c 0,0.32885 0.12452,0.62916 0.34375,0.84375 0.21923,0.21459 0.50777,0.34375 0.84375,0.34375 l 13.6875,0 c 0.33598,0 0.65576,-0.12916 0.875,-0.34375 0.21924,-0.21459 0.34375,-0.5149 0.34375,-0.84375 l 0,-20.5 c -4.5871,4.32858 -9.97602,8.99733 -16.09375,11.875 z"
         id="path3869" />
      <path
         inkscape:connector-curvature="0"
         style="fill:#ffffff;fill-opacity:1;fill-rule:nonzero;stroke:#00005a;stroke-opacity:1"
         d="m 405.87306,424.60085 0,20.15625 c 0,0.32885 0.12451,0.62916 0.34375,0.84375 0.21924,0.21459 0.53902,0.34375 0.875,0.34375 l 13.6875,0 c 0.33598,0 0.62451,-0.12916 0.84375,-0.34375 0.21924,-0.21459 0.34375,-0.5149 0.34375,-0.84375 l 0,-9.46875 c -5.92275,-2.57596 -11.30058,-6.58909 -16.09375,-10.6875 z"
         id="path3871" />
      <path
         inkscape:connector-curvature="0"
         style="fill:#000000;fill-opacity:1;fill-rule:nonzero;stroke:#00005a;stroke-opacity:1"
         d="m 391.68556,413.8821 c -2.29425,-0.44501 -3.5625,1.49933 -3.5625,7.40625 0,23.62766 19.15359,42.78125 42.78125,42.78125 23.62767,0 42.78125,-19.15359 42.78125,-42.78125 0,-13.16477 -5.65121,-6.46806 -14.625,2 l 0,20.5 c 0,0.32885 -0.12451,0.62916 -0.34375,0.84375 -0.21924,0.21459 -0.53902,0.34375 -0.875,0.34375 l -13.6875,0 c -0.33598,0 -0.62452,-0.12916 -0.84375,-0.34375 -0.21923,-0.21459 -0.34375,-0.5149 -0.34375,-0.84375 l 0,-8.625 c -3.39417,1.59656 -6.95398,2.65625 -10.6875,2.65625 -3.53928,0 -6.97005,-1.07753 -10.3125,-2.53125 l 0,9.46875 c 0,0.32885 -0.12451,0.62916 -0.34375,0.84375 -0.21924,0.21459 -0.50777,0.34375 -0.84375,0.34375 l -13.6875,0 c -0.33598,0 -0.65576,-0.12916 -0.875,-0.34375 -0.21924,-0.21459 -0.34375,-0.5149 -0.34375,-0.84375 l 0,-20.15625 c -6.04535,-5.16909 -11.11528,-10.12283 -14.1875,-10.71875 z"
         id="path3873" />
      <path
         transform="translate(279.09181,0.97584548)"
         sodipodi:type="arc"
         style="fill:#000000;fill-opacity:1;fill-rule:nonzero;stroke:#00005a;stroke-opacity:1"
         id="path3875"
         sodipodi:cx="129.03503"
         sodipodi:cy="378.89587"
         sodipodi:rx="11.730458"
         sodipodi:ry="19.320755"
         d="m 140.76549,378.89587 a 11.730458,19.320755 0 1 1 -23.46091,0 11.730458,19.320755 0 1 1 23.46091,0 z" />
      <path
         transform="translate(279.09181,0.97584548)"
         sodipodi:type="arc"
         style="fill:#000000;fill-opacity:1;fill-rule:nonzero;stroke:#00005a;stroke-opacity:1"
         id="path3877"
         sodipodi:cx="178.71698"
         sodipodi:cy="371.99561"
         sodipodi:rx="10.350405"
         sodipodi:ry="24.840971"
         d="m 189.06738,371.99561 a 10.350405,24.840971 0 1 1 -20.7008,0 10.350405,24.840971 0 1 1 20.7008,0 z" />
      <path
         transform="translate(279.09181,0.97584548)"
         sodipodi:type="arc"
         style="fill:#ffffff;fill-opacity:1;fill-rule:nonzero;stroke:#00005a;stroke-opacity:1"
         id="path3879"
         sodipodi:cx="129.72507"
         sodipodi:cy="382.34601"
         sodipodi:rx="5.5202155"
         sodipodi:ry="14.490566"
         d="m 135.24528,382.34601 a 5.5202155,14.490566 0 1 1 -11.04043,0 5.5202155,14.490566 0 1 1 11.04043,0 z" />
      <path
         transform="translate(279.09181,0.97584548)"
         sodipodi:type="arc"
         style="fill:#ffffff;fill-opacity:1;fill-rule:nonzero;stroke:#00005a;stroke-opacity:1"
         id="path3881"
         sodipodi:cx="180.78706"
         sodipodi:cy="376.13577"
         sodipodi:rx="5.5202155"
         sodipodi:ry="17.940701"
         d="m 186.30728,376.13577 a 5.5202155,17.940701 0 1 1 -11.04043,0 5.5202155,17.940701 0 1 1 11.04043,0 z" />
      <path
         transform="translate(279.09181,0.97584548)"
         sodipodi:type="arc"
         style="fill:#000000;fill-opacity:1;fill-rule:nonzero;stroke:#00005a;stroke-opacity:1"
         id="path3883"
         sodipodi:cx="132.71498"
         sodipodi:cy="382.81021"
         sodipodi:rx="0.97584546"
         sodipodi:ry="5.2451696"
         d="m 133.69083,382.81021 a 0.97584546,5.2451696 0 1 1 -1.95169,0 0.97584546,5.2451696 0 1 1 1.95169,0 z" />
      <path
         transform="translate(279.09181,0.97584548)"
         sodipodi:type="arc"
         style="fill:#000000;fill-opacity:1;fill-rule:nonzero;stroke:#00005a;stroke-opacity:1"
         id="path3885"
         sodipodi:cx="183.33698"
         sodipodi:cy="376.95514"
         sodipodi:rx="1.0978261"
         sodipodi:ry="7.1968603"
         d="m 184.4348,376.95514 a 1.0978261,7.1968603 0 1 1 -2.19565,0 1.0978261,7.1968603 0 1 1 2.19565,0 z" />
    </g>
    <path
       inkscape:transform-center-y="10.734295"
       inkscape:transform-center-x="-58.550735"
       style="fill:#ff00ff;fill-opacity:1;fill-rule:nonzero;stroke:#ffffff;stroke-opacity:1"
       d="m 480.59418,548.27904 c 0,-5.92839 43.08083,-2.92754 67.33334,-2.92754 24.25251,0 66.02653,25.17192 60.50242,27.32368 -30.25121,11.78346 -49.91175,-14.63769 -73.18841,-13.66184 -24.23122,1.01586 -54.64735,-4.80591 -54.64735,-10.7343 z"
       id="path3897"
       inkscape:connector-curvature="0"
       sodipodi:nodetypes="sssss" />
    <g
       transform="translate(291.7778,-4.2741021e-8)"
       id="g3899"
       inkscape:transform-center-x="11.710146"
       inkscape:transform-center-y="38.07004">
      <path
         inkscape:transform-center-y="34.166665"
         inkscape:connector-curvature="0"
         id="path3901"
         d="m 170.0342,606.40082 13.18768,0 c 0.67196,0 1.21292,0.52949 1.21292,1.18721 l 0,64.95891 c 0,0.65772 -0.54096,1.18721 -1.21292,1.18721 l -13.18768,0 c -0.67196,0 -1.21293,-0.52949 -1.21293,-1.18721 l 0,-64.95891 c 0,-0.65772 0.54097,-1.18721 1.21293,-1.18721 z"
         style="fill:#800080;fill-opacity:1;fill-rule:nonzero;stroke:#ffffff;stroke-opacity:1" />
      <path
         inkscape:connector-curvature="0"
         id="path3903"
         d="m 152.46897,662.02399 30.75289,0 c 0.67196,0 1.21293,0.52949 1.21293,1.18721 l 0,17.14248 c 0,0.65772 -0.54097,1.18722 -1.21293,1.18722 l -30.75289,0 c -0.67196,0 -1.21293,-0.5295 -1.21293,-1.18722 l 0,-17.14248 c 0,-0.65772 0.54097,-1.18721 1.21293,-1.18721 z"
         style="fill:#800080;fill-opacity:1;fill-rule:nonzero;stroke:#ffffff;stroke-opacity:1" />
    </g>
    <path
       inkscape:transform-center-y="38.869383"
       inkscape:transform-center-x="43.624833"
       sodipodi:nodetypes="sssss"
       inkscape:connector-curvature="0"
       id="path3949"
       d="m 716.56661,547.07838 c 4.6861,3.63128 -24.074,35.84649 -38.92927,55.01692 -14.85527,19.17042 -60.34007,36.77233 -58.65728,31.08778 9.21537,-31.12977 42.14257,-30.48686 55.62875,-49.48366 14.03923,-19.77584 37.2717,-40.25233 41.9578,-36.62104 z"
       style="fill:#ff00ff;fill-opacity:1;fill-rule:nonzero;stroke:#ffffff;stroke-opacity:1" />
    <path
       sodipodi:nodetypes="sssss"
       inkscape:connector-curvature="0"
       id="path3951"
       d="m 745.54594,562.48775 c 54.31241,37.12034 -8.49499,59.7572 -26.34783,59.52658 -11.85579,-0.15315 -60.50242,-26.44687 -25.37198,-56.59904 26.58271,-22.81573 13.5152,-70.26087 25.37198,-70.26087 11.85678,0 -2.57395,47.56647 26.34783,67.33333 z"
       style="fill:#ff6600;fill-opacity:1;fill-rule:nonzero;stroke:#ffffff;stroke-opacity:1" />
    <g
       id="g4003">
      <g
         sodipodi:type="inkscape:box3d"
         style="fill:#00ffff;fill-opacity:1;fill-rule:nonzero;stroke:#00005a;stroke-opacity:1"
         id="g3911"
         inkscape:perspectiveID="#perspective3961"
         inkscape:corner0="0.68493074 : 0.48901276 : 0 : 1"
         inkscape:corner7="0.29610057 : 0.27669628 : 0.25 : 1"
         inkscape:transform-center-x="23.460916"
         inkscape:transform-center-y="113.29494">
        <path
           sodipodi:type="inkscape:box3dside"
           id="path3913"
           style="fill:#00ffff;fill-rule:evenodd;stroke:#00005a;stroke-opacity:1"
           inkscape:box3dsidetype="11"
           d="m 689.30321,414.9197 118.90222,-43.49777 0,137.32385 -118.90222,15.90212 z" />
        <path
           sodipodi:type="inkscape:box3dside"
           id="path3915"
           style="fill:#00ffff;fill-rule:evenodd;stroke:#00005a;stroke-opacity:1"
           inkscape:box3dsidetype="6"
           d="m 617.51489,365.70909 0,126.00903 71.78832,32.92978 0,-109.7282 z" />
        <path
           sodipodi:type="inkscape:box3dside"
           id="path3917"
           style="fill:#00ffff;fill-rule:evenodd;stroke:#00005a;stroke-opacity:1"
           inkscape:box3dsidetype="5"
           d="m 617.51489,365.70909 120.30033,-66.65106 70.39021,72.3639 -118.90222,43.49777 z" />
        <path
           sodipodi:type="inkscape:box3dside"
           id="path3919"
           style="fill:#00ffff;fill-rule:evenodd;stroke:#00005a;stroke-opacity:1"
           inkscape:box3dsidetype="13"
           d="m 617.51489,491.71812 120.30033,-28.84836 70.39021,45.87602 -118.90222,15.90212 z" />
        <path
           sodipodi:type="inkscape:box3dside"
           id="path3921"
           style="fill:#00ffff;fill-rule:evenodd;stroke:#00005a;stroke-opacity:1"
           inkscape:box3dsidetype="14"
           d="m 737.81522,299.05803 0,163.81173 70.39021,45.87602 0,-137.32385 z" />
        <path
           sodipodi:type="inkscape:box3dside"
           id="path3923"
           style="fill:#00ffff;stroke:#00005a;stroke-opacity:1"
           inkscape:box3dsidetype="3"
           d="m 617.51489,365.70909 120.30033,-66.65106 0,163.81173 -120.30033,28.84836 z" />
      </g>
      <path
         inkscape:connector-curvature="0"
         style="fill:#ffffff;fill-opacity:1;fill-rule:nonzero;stroke:#00005a;stroke-opacity:1"
         d="m 684.00064,435.16335 0,8.625 c 0,0.32885 0.12452,0.62916 0.34375,0.84375 0.21923,0.21459 0.50777,0.34375 0.84375,0.34375 l 13.6875,0 c 0.33598,0 0.65576,-0.12916 0.875,-0.34375 0.21924,-0.21459 0.34375,-0.5149 0.34375,-0.84375 l 0,-20.5 c -4.5871,4.32858 -9.97602,8.99733 -16.09375,11.875 z"
         id="path3925" />
      <path
         inkscape:connector-curvature="0"
         style="fill:#ffffff;fill-opacity:1;fill-rule:nonzero;stroke:#00005a;stroke-opacity:1"
         d="m 646.90689,424.60085 0,20.15625 c 0,0.32885 0.12451,0.62916 0.34375,0.84375 0.21924,0.21459 0.53902,0.34375 0.875,0.34375 l 13.6875,0 c 0.33598,0 0.62451,-0.12916 0.84375,-0.34375 0.21924,-0.21459 0.34375,-0.5149 0.34375,-0.84375 l 0,-9.46875 c -5.92275,-2.57596 -11.30058,-6.58909 -16.09375,-10.6875 z"
         id="path3927" />
      <path
         inkscape:connector-curvature="0"
         style="fill:#000000;fill-opacity:1;fill-rule:nonzero;stroke:#00005a;stroke-opacity:1"
         d="m 632.71939,413.8821 c -2.29425,-0.44501 -3.5625,1.49933 -3.5625,7.40625 0,23.62766 19.15359,42.78125 42.78125,42.78125 23.62767,0 42.78125,-19.15359 42.78125,-42.78125 0,-13.16477 -5.65121,-6.46806 -14.625,2 l 0,20.5 c 0,0.32885 -0.12451,0.62916 -0.34375,0.84375 -0.21924,0.21459 -0.53902,0.34375 -0.875,0.34375 l -13.6875,0 c -0.33598,0 -0.62452,-0.12916 -0.84375,-0.34375 -0.21923,-0.21459 -0.34375,-0.5149 -0.34375,-0.84375 l 0,-8.625 c -3.39417,1.59656 -6.95398,2.65625 -10.6875,2.65625 -3.53928,0 -6.97005,-1.07753 -10.3125,-2.53125 l 0,9.46875 c 0,0.32885 -0.12451,0.62916 -0.34375,0.84375 -0.21924,0.21459 -0.50777,0.34375 -0.84375,0.34375 l -13.6875,0 c -0.33598,0 -0.65576,-0.12916 -0.875,-0.34375 -0.21924,-0.21459 -0.34375,-0.5149 -0.34375,-0.84375 l 0,-20.15625 c -6.04535,-5.16909 -11.11528,-10.12283 -14.1875,-10.71875 z"
         id="path3929" />
      <path
         transform="translate(520.12564,0.97584548)"
         sodipodi:type="arc"
         style="fill:#000000;fill-opacity:1;fill-rule:nonzero;stroke:#00005a;stroke-opacity:1"
         id="path3931"
         sodipodi:cx="129.03503"
         sodipodi:cy="378.89587"
         sodipodi:rx="11.730458"
         sodipodi:ry="19.320755"
         d="m 140.76549,378.89587 a 11.730458,19.320755 0 1 1 -23.46091,0 11.730458,19.320755 0 1 1 23.46091,0 z" />
      <path
         transform="translate(520.12564,0.97584548)"
         sodipodi:type="arc"
         style="fill:#000000;fill-opacity:1;fill-rule:nonzero;stroke:#00005a;stroke-opacity:1"
         id="path3933"
         sodipodi:cx="178.71698"
         sodipodi:cy="371.99561"
         sodipodi:rx="10.350405"
         sodipodi:ry="24.840971"
         d="m 189.06738,371.99561 a 10.350405,24.840971 0 1 1 -20.7008,0 10.350405,24.840971 0 1 1 20.7008,0 z" />
      <path
         transform="translate(520.12564,0.97584548)"
         sodipodi:type="arc"
         style="fill:#ffffff;fill-opacity:1;fill-rule:nonzero;stroke:#00005a;stroke-opacity:1"
         id="path3935"
         sodipodi:cx="129.72507"
         sodipodi:cy="382.34601"
         sodipodi:rx="5.5202155"
         sodipodi:ry="14.490566"
         d="m 135.24528,382.34601 a 5.5202155,14.490566 0 1 1 -11.04043,0 5.5202155,14.490566 0 1 1 11.04043,0 z" />
      <path
         transform="translate(520.12564,0.97584548)"
         sodipodi:type="arc"
         style="fill:#ffffff;fill-opacity:1;fill-rule:nonzero;stroke:#00005a;stroke-opacity:1"
         id="path3937"
         sodipodi:cx="180.78706"
         sodipodi:cy="376.13577"
         sodipodi:rx="5.5202155"
         sodipodi:ry="17.940701"
         d="m 186.30728,376.13577 a 5.5202155,17.940701 0 1 1 -11.04043,0 5.5202155,17.940701 0 1 1 11.04043,0 z" />
      <path
         transform="translate(520.12564,0.97584548)"
         sodipodi:type="arc"
         style="fill:#000000;fill-opacity:1;fill-rule:nonzero;stroke:#00005a;stroke-opacity:1"
         id="path3939"
         sodipodi:cx="132.71498"
         sodipodi:cy="382.81021"
         sodipodi:rx="0.97584546"
         sodipodi:ry="5.2451696"
         d="m 133.69083,382.81021 a 0.97584546,5.2451696 0 1 1 -1.95169,0 0.97584546,5.2451696 0 1 1 1.95169,0 z" />
      <path
         transform="translate(520.12564,0.97584548)"
         sodipodi:type="arc"
         style="fill:#000000;fill-opacity:1;fill-rule:nonzero;stroke:#00005a;stroke-opacity:1"
         id="path3941"
         sodipodi:cx="183.33698"
         sodipodi:cy="376.95514"
         sodipodi:rx="1.0978261"
         sodipodi:ry="7.1968603"
         d="m 184.4348,376.95514 a 1.0978261,7.1968603 0 1 1 -2.19565,0 1.0978261,7.1968603 0 1 1 2.19565,0 z" />
    </g>
    <g
       transform="matrix(0.78290779,0.62213776,-0.62213776,0.78290779,948.10998,21.649382)"
       id="g3955"
       inkscape:transform-center-x="30.560777"
       inkscape:transform-center-y="29.80533">
      <g
         id="g3963">
        <path
           style="fill:#800080;fill-opacity:1;fill-rule:nonzero;stroke:#ffffff;stroke-width:1;stroke-opacity:1"
           d="m 170.0342,606.40082 13.18768,0 c 0.67196,0 1.21292,0.52949 1.21292,1.18721 l 0,64.95891 c 0,0.65772 -0.54096,1.18721 -1.21292,1.18721 l -13.18768,0 c -0.67196,0 -1.21293,-0.52949 -1.21293,-1.18721 l 0,-64.95891 c 0,-0.65772 0.54097,-1.18721 1.21293,-1.18721 z"
           id="path3957"
           inkscape:connector-curvature="0"
           inkscape:transform-center-y="34.166665" />
        <path
           style="fill:#800080;fill-opacity:1;fill-rule:nonzero;stroke:#ffffff;stroke-width:1;stroke-opacity:1"
           d="m 152.46897,662.02399 30.75289,0 c 0.67196,0 1.21293,0.52949 1.21293,1.18721 l 0,17.14248 c 0,0.65772 -0.54097,1.18722 -1.21293,1.18722 l -30.75289,0 c -0.67196,0 -1.21293,-0.5295 -1.21293,-1.18722 l 0,-17.14248 c 0,-0.65772 0.54097,-1.18721 1.21293,-1.18721 z"
           id="path3959"
           inkscape:connector-curvature="0" />
      </g>
    </g>
    <g
       inkscape:transform-center-y="38.07004"
       inkscape:transform-center-x="6.8309183"
       id="g3943"
       transform="translate(520.12564,0.97584548)">
      <path
         inkscape:connector-curvature="0"
         style="fill:#800080;fill-opacity:1;fill-rule:nonzero;stroke:#ffffff;stroke-opacity:1"
         d="m 170.0342,606.40082 13.18768,0 c 0.67196,0 1.21292,0.52949 1.21292,1.18721 l 0,64.95891 c 0,0.65772 -0.54096,1.18721 -1.21292,1.18721 l -13.18768,0 c -0.67196,0 -1.21293,-0.52949 -1.21293,-1.18721 l 0,-64.95891 c 0,-0.65772 0.54097,-1.18721 1.21293,-1.18721 z"
         id="path3945" />
      <path
         inkscape:connector-curvature="0"
         style="fill:#800080;fill-opacity:1;fill-rule:nonzero;stroke:#ffffff;stroke-opacity:1"
         d="m 152.46897,662.02399 30.75289,0 c 0.67196,0 1.21293,0.52949 1.21293,1.18721 l 0,17.14248 c 0,0.65772 -0.54097,1.18722 -1.21293,1.18722 l -30.75289,0 c -0.67196,0 -1.21293,-0.5295 -1.21293,-1.18722 l 0,-17.14248 c 0,-0.65772 0.54097,-1.18721 1.21293,-1.18721 z"
         id="path3947" />
    </g>
    <path
       inkscape:transform-center-y="24.477371"
       inkscape:transform-center-x="-54.128048"
       style="fill:#ff00ff;fill-opacity:1;fill-rule:nonzero;stroke:#ffffff;stroke-width:1;stroke-opacity:1"
       d="m 733.78713,555.72177 c 1.45094,-5.74809 42.48718,7.70517 66.00213,13.64076 23.51494,5.93559 57.85794,40.56583 51.97521,41.30018 -32.21513,4.02137 -44.81142,-26.40802 -67.61902,-31.15861 -23.74293,-4.94541 -51.80924,-18.03421 -50.35832,-23.78233 z"
       id="path3953"
       inkscape:connector-curvature="0"
       sodipodi:nodetypes="sssss" />
  </g>
</svg>
