<?xml version="1.0" encoding="UTF-8" standalone="no"?>
<!-- Created with Inkscape (http://www.inkscape.org/) -->

<svg
   xmlns:dc="http://purl.org/dc/elements/1.1/"
   xmlns:cc="http://creativecommons.org/ns#"
   xmlns:rdf="http://www.w3.org/1999/02/22-rdf-syntax-ns#"
   xmlns:svg="http://www.w3.org/2000/svg"
   xmlns="http://www.w3.org/2000/svg"
   xmlns:sodipodi="http://sodipodi.sourceforge.net/DTD/sodipodi-0.dtd"
   xmlns:inkscape="http://www.inkscape.org/namespaces/inkscape"
   width="744.09448819"
   height="1052.3622047"
   id="svg8563"
   version="1.1"
   inkscape:version="0.48.4 r9939"
   sodipodi:docname="Simple bad guy.svg"
   inkscape:export-filename="C:\Users\spear\Desktop\Teddy\Inkscape Drawings\Simple bad guy.png"
   inkscape:export-xdpi="90"
   inkscape:export-ydpi="90">
  <defs
     id="defs8565" />
  <sodipodi:namedview
     id="base"
     pagecolor="#ffffff"
     bordercolor="#666666"
     borderopacity="1.0"
     inkscape:pageopacity="0.0"
     inkscape:pageshadow="2"
     inkscape:zoom="0.5123762"
     inkscape:cx="-64.68397"
     inkscape:cy="565.33219"
     inkscape:document-units="px"
     inkscape:current-layer="layer1"
     showgrid="false"
     inkscape:window-width="1280"
     inkscape:window-height="697"
     inkscape:window-x="-8"
     inkscape:window-y="-8"
     inkscape:window-maximized="1" />
  <metadata
     id="metadata8568">
    <rdf:RDF>
      <cc:Work
         rdf:about="">
        <dc:format>image/svg+xml</dc:format>
        <dc:type
           rdf:resource="http://purl.org/dc/dcmitype/StillImage" />
        <dc:title></dc:title>
      </cc:Work>
    </rdf:RDF>
  </metadata>
  <g
     inkscape:label="Layer 1"
     inkscape:groupmode="layer"
     id="layer1">
    <path
       sodipodi:type="arc"
       style="fill:#ff0000;fill-opacity:1;fill-rule:nonzero"
       id="path8571"
       sodipodi:cx="199.41779"
       sodipodi:cy="510.69101"
       sodipodi:rx="153.87601"
       sodipodi:ry="158.01617"
       d="m 353.29379,510.69101 a 153.87601,158.01617 0 1 1 -0.006,-1.36515"
       sodipodi:start="0"
       sodipodi:end="6.2745459"
       sodipodi:open="true" />
    <path
       style="fill:#ffffff;fill-opacity:1;fill-rule:nonzero"
       d="m 141.80053,452.72877 c 0,19.05457 6.00499,25.531 -2.76011,25.531 -8.7651,0 -34.15633,-22.34705 -34.15633,-41.40162 0,-19.05456 -23.255669,-19.32075 -14.490569,-19.32075 8.7116,0 51.331149,16.30076 51.406409,35.23832"
       id="path8573"
       inkscape:connector-curvature="0"
       sodipodi:nodetypes="csssc" />
    <path
       sodipodi:nodetypes="csssc"
       inkscape:connector-curvature="0"
       id="path8600"
       d="m 239.47158,454.45384 c 0,19.05457 -6.00499,25.531 2.76011,25.531 8.7651,0 34.15633,-22.34705 34.15633,-41.40162 0,-19.05456 23.25567,-19.32075 14.49057,-19.32075 -8.7116,0 -51.33115,16.30076 -51.40641,35.23832"
       style="fill:#ffffff;fill-opacity:1;fill-rule:nonzero" />
    <path
       transform="translate(13.800539,0)"
       style="fill:#ffffff;fill-opacity:1;fill-rule:nonzero"
       d="m 292.57142,603.15465 c 0,14.86256 -72.4598,-10.35041 -112.47439,-10.35041 -40.01459,0 -94.533693,30.73318 -94.533693,15.87062 0,-14.86256 54.519103,-69.69272 94.533693,-69.69272 39.77036,0 112.1281,51.92882 112.47168,66.70012"
       id="path8602"
       inkscape:connector-curvature="0"
       sodipodi:nodetypes="csssc" />
    <path
       style="fill:none;stroke:#000000;stroke-width:1px;stroke-linecap:butt;stroke-linejoin:miter;stroke-opacity:1"
       d="m 154.56604,601.08455 0,-46.92183"
       id="path8607"
       inkscape:connector-curvature="0" />
    <path
       style="fill:none;stroke:#000000;stroke-width:1px;stroke-linecap:butt;stroke-linejoin:miter;stroke-opacity:1"
       d="M 205.62803,592.80423 z"
       id="path8609"
       inkscape:connector-curvature="0" />
    <path
       style="fill:none;stroke:#000000;stroke-width:1px;stroke-linecap:butt;stroke-linejoin:miter;stroke-opacity:1"
       d="M 194.5876,592.80423 z"
       id="path8611"
       inkscape:connector-curvature="0" />
    <path
       style="fill:none;stroke:#000000;stroke-width:1px;stroke-linecap:butt;stroke-linejoin:miter;stroke-opacity:1"
       d="m 198.72776,594.18429 0,-53.82211"
       id="path8613"
       inkscape:connector-curvature="0" />
    <path
       style="fill:none;stroke:#000000;stroke-width:1px;stroke-linecap:butt;stroke-linejoin:miter;stroke-opacity:1"
       d="m 251.16981,598.32445 0,-40.02157"
       id="path8617"
       inkscape:connector-curvature="0" />
    <path
       style="fill:#501616;fill-opacity:1;fill-rule:nonzero"
       d="m 168.19945,664.56706 67.9569,0 c 0.67196,0 1.21293,0.5295 1.21293,1.18721 l 0,88.70914 c 0,0.65771 -0.54097,1.18721 -1.21293,1.18721 l -67.9569,0 c -0.67196,0 -1.21293,-0.5295 -1.21293,-1.18721 l 0,-88.70914 c 0,-0.65771 0.54097,-1.18721 1.21293,-1.18721 z"
       id="rect8621"
       inkscape:connector-curvature="0" />
    <path
       inkscape:connector-curvature="0"
       id="path9147"
       d="m 325.87682,707.20309 c 4.84787,-2.78025 6.09285,-5.7216 5.89993,-13.93893 -0.18261,-7.77817 -0.38055,-8.17654 -6.68572,-13.45552 -3.57364,-2.99203 -6.90226,-5.44005 -7.39693,-5.44005 -0.49467,0 -2.58453,-1.24587 -4.64414,-2.76861 -7.73793,-5.72089 -45.06442,-7.09159 -65.14619,-2.39229 -5.86654,1.37282 -9.80599,1.65702 -11.38544,0.82136 -2.21251,-1.1706 -2.4151,-0.2756 -2.4151,10.66956 l 0,11.94734 3.10513,-2.25791 c 1.70781,-1.24185 3.72614,-2.46549 4.48517,-2.7192 0.75903,-0.25371 3.55364,-1.21442 6.21024,-2.1349 6.55367,-2.27078 31.17832,-3.66873 33.4305,-1.89786 0.96848,0.76151 3.66482,1.74406 5.99186,2.18344 7.44377,1.40551 15.23671,7.56287 17.235,13.61772 0.99678,3.0203 3.07839,6.37823 4.6258,7.46207 3.35589,2.35056 12.82058,2.52283 16.68989,0.30378 z"
       style="fill:#ff00ff;fill-opacity:1;fill-rule:nonzero" />
    <path
       inkscape:connector-curvature="0"
       id="path9149"
       d="m 75.795543,712.72331 c -4.84787,-2.78025 -6.09285,-5.7216 -5.89993,-13.93893 0.18261,-7.77817 0.38055,-8.17654 6.68572,-13.45552 3.57364,-2.99203 6.90226,-5.44005 7.39693,-5.44005 0.49467,0 2.58453,-1.24587 4.64414,-2.76861 7.73793,-5.72089 45.064417,-7.09159 65.146187,-2.39229 5.86654,1.37282 9.80599,1.65702 11.38544,0.82136 2.21251,-1.1706 2.4151,-0.2756 2.4151,10.66956 l 0,11.94734 -3.10513,-2.25791 c -1.70781,-1.24185 -3.72614,-2.46549 -4.48517,-2.7192 -0.75903,-0.25371 -3.55364,-1.21442 -6.21024,-2.1349 -6.55367,-2.27078 -31.17832,-3.66873 -33.4305,-1.89786 -0.96848,0.76151 -3.66482,1.74406 -5.99186,2.18344 -7.44377,1.40551 -15.236707,7.56287 -17.234987,13.61772 -0.99679,3.0203 -3.0784,6.37823 -4.62581,7.46207 -3.35589,2.35056 -12.82058,2.52283 -16.68989,0.30378 z"
       style="fill:#ff00ff;fill-opacity:1;fill-rule:nonzero" />
    <path
       style="fill:#800080;stroke:#000000;stroke-width:1px;stroke-linecap:butt;stroke-linejoin:miter;stroke-opacity:1"
       d="m 166.98652,750.13038 c 0,5.0602 0,10.1204 0,15.18059 0,8.28033 0,16.56065 0,24.84097 0,3.68015 0,7.36029 0,11.04044 0,0.46001 0,0.92003 0,1.38005 0,0.46002 -0.32528,1.05477 0,1.38005 0.32528,0.32528 1.05477,-0.32528 1.38005,0 0.0444,0.0444 0,3.80546 0,4.14016 0,0.50681 0.0555,5.46469 0,5.52022 -0.32528,0.32528 -1.05477,-0.32528 -1.38005,0 -0.32528,0.32528 0.46002,1.38005 0,1.38005 -0.46002,0 0,-1.84007 0,-1.38005 0,0.92004 0.41145,1.9372 0,2.76011 -0.20573,0.41145 -1.38006,0.46002 -1.38006,0 0,-0.46002 1.84008,0 1.38006,0 -4.14016,0 -8.28032,0 -12.42049,0 -8.28032,0 -16.56064,0 -24.84097,0 -1.84007,0 -3.68014,0 -5.52021,0 -0.46002,0 -1.38006,0.46002 -1.38006,0 0,-0.46002 1.38006,-0.46002 1.38006,0 0,0.65056 -1.38006,0.72949 -1.38006,1.38005 0,0.46002 1.17433,-0.41145 1.38006,0 0.61718,1.23436 0,2.76011 0,4.14016 0,1.84008 0,3.68015 0,5.52022 0,0.46002 -0.32528,1.05477 0,1.38005 0.32528,0.32529 0.9686,-0.20572 1.38005,0 0.58188,0.29094 0.79817,1.08912 1.38006,1.38006 0.41145,0.20572 1.05477,-0.32528 1.38005,0 0.72735,0.72735 0.80947,1.90423 1.38005,2.76011 0.38997,0.58495 3.56917,3.85466 4.14016,4.14016 0.36288,0.18143 4.79856,0 5.52022,0 5.52022,0 11.04043,0 16.56065,0 0.4194,0 11.74752,0.22432 12.42048,0 0.43641,-0.14547 -0.41145,-1.17433 0,-1.38006 0.82291,-0.41145 1.88729,0.29094 2.76011,0 0.61718,-0.20572 0.79817,-1.08911 1.38005,-1.38005 0.74423,-0.37212 2.01588,0.37211 2.76011,0 0.58188,-0.29094 0.79817,-1.08911 1.38006,-1.38005 3.399,-1.69951 -1.24583,4.00593 4.14016,-1.38006 0.32528,-0.32528 -0.32528,-1.05477 0,-1.38005 0.32528,-0.32528 1.05477,0.32528 1.38005,0 0.0444,-0.0444 0,-3.80546 0,-4.14016 0,-10.58042 0,-21.16083 0,-31.74124 0,-1.19594 -0.26648,-4.72079 0,-5.52022 0.32528,-0.97585 1.05477,-1.78426 1.38006,-2.76011 0.25362,-0.76086 -0.29506,-5.22516 0,-5.52021 0.32528,-0.32529 1.05477,0.32528 1.38005,0 0.32528,-0.32529 0,-0.92004 0,-1.38006 0,-0.46002 0,-0.92003 0,-1.38005 0,-3.22013 0,-6.44025 0,-9.66038 0,-0.46002 -0.32528,-1.05477 0,-1.38005 1.84007,-1.84007 1.38005,2.30009 1.38005,-1.38006 0,-2.7601 0,-5.52021 0,-8.28032 0,-0.46002 -0.46001,-1.38005 0,-1.38005 0.46002,0 0,1.84007 0,1.38005 0,-2.60677 0,-3.98682 0,-1.38005"
       id="path9155"
       inkscape:connector-curvature="0" />
    <path
       inkscape:connector-curvature="0"
       id="path9157"
       d="m 240.33381,747.37028 c 0,5.0602 0,10.1204 0,15.18059 0,8.28033 0,16.56065 0,24.84097 0,3.68015 0,7.36029 0,11.04044 0,0.46001 0,0.92003 0,1.38005 0,0.46002 0.32528,1.05477 0,1.38005 -0.32528,0.32528 -1.05477,-0.32528 -1.38005,0 -0.0444,0.0444 0,3.80546 0,4.14016 0,0.50681 -0.0555,5.46469 0,5.52022 0.32528,0.32528 1.05477,-0.32528 1.38005,0 0.32528,0.32528 -0.46002,1.38005 0,1.38005 0.46002,0 0,-1.84007 0,-1.38005 0,0.92004 -0.41145,1.9372 0,2.76011 0.20573,0.41145 1.38006,0.46002 1.38006,0 0,-0.46002 -1.84008,0 -1.38006,0 4.14016,0 8.28032,0 12.42049,0 8.28032,0 16.56064,0 24.84097,0 1.84007,0 3.68014,0 5.52021,0 0.46002,0 1.38006,0.46002 1.38006,0 0,-0.46002 -1.38006,-0.46002 -1.38006,0 0,0.65056 1.38006,0.72949 1.38006,1.38005 0,0.46002 -1.17433,-0.41145 -1.38006,0 -0.61718,1.23436 0,2.76011 0,4.14016 0,1.84008 0,3.68015 0,5.52022 0,0.46002 0.32528,1.05477 0,1.38005 -0.32528,0.32529 -0.9686,-0.20572 -1.38005,0 -0.58188,0.29094 -0.79817,1.08912 -1.38006,1.38006 -0.41145,0.20572 -1.05477,-0.32528 -1.38005,0 -0.72735,0.72735 -0.80947,1.90423 -1.38005,2.76011 -0.38997,0.58495 -3.56917,3.85466 -4.14016,4.14016 -0.36288,0.18143 -4.79856,0 -5.52022,0 -5.52022,0 -11.04043,0 -16.56065,0 -0.4194,0 -11.74752,0.22432 -12.42048,0 -0.43641,-0.14547 0.41145,-1.17433 0,-1.38006 -0.82291,-0.41145 -1.88729,0.29094 -2.76011,0 -0.61718,-0.20572 -0.79817,-1.08911 -1.38005,-1.38005 -0.74423,-0.37212 -2.01588,0.37211 -2.76011,0 -0.58188,-0.29094 -0.79817,-1.08911 -1.38006,-1.38005 -3.399,-1.69951 1.24583,4.00593 -4.14016,-1.38006 -0.32528,-0.32528 0.32528,-1.05477 0,-1.38005 -0.32528,-0.32528 -1.05477,0.32528 -1.38005,0 -0.0444,-0.0444 0,-3.80546 0,-4.14016 0,-10.58042 0,-21.16083 0,-31.74124 0,-1.19594 0.26648,-4.72079 0,-5.52022 -0.32528,-0.97585 -1.05477,-1.78426 -1.38006,-2.76011 -0.25362,-0.76086 0.29506,-5.22516 0,-5.52021 -0.32528,-0.32529 -1.05477,0.32528 -1.38005,0 -0.32528,-0.32529 0,-0.92004 0,-1.38006 0,-0.46002 0,-0.92003 0,-1.38005 0,-3.22013 0,-6.44025 0,-9.66038 0,-0.46002 0.32528,-1.05477 0,-1.38005 -1.84007,-1.84007 -1.38005,2.30009 -1.38005,-1.38006 0,-2.7601 0,-5.52021 0,-8.28032 0,-0.46002 0.46001,-1.38005 0,-1.38005 -0.46002,0 0,1.84007 0,1.38005 0,-2.60677 0,-3.98682 0,-1.38005"
       style="fill:#800080;stroke:#000000;stroke-width:1px;stroke-linecap:butt;stroke-linejoin:miter;stroke-opacity:1" />
    <path
       sodipodi:type="arc"
       style="fill:#000000;fill-opacity:1;fill-rule:nonzero"
       id="path9163"
       sodipodi:cx="122.13477"
       sodipodi:cy="452.72876"
       sodipodi:rx="4.8301888"
       sodipodi:ry="6.2102427"
       d="m 126.96496,452.72876 a 4.8301888,6.2102427 0 1 1 -9.66038,0 4.8301888,6.2102427 0 1 1 9.66038,0 z"
       transform="matrix(2.5714285,0,0,1.7777778,-184.33577,-347.29217)" />
    <path
       transform="matrix(2.5714285,0,0,1.7777778,-60.891317,-348.75594)"
       d="m 126.96496,452.72876 a 4.8301888,6.2102427 0 1 1 -9.66038,0 4.8301888,6.2102427 0 1 1 9.66038,0 z"
       sodipodi:ry="6.2102427"
       sodipodi:rx="4.8301888"
       sodipodi:cy="452.72876"
       sodipodi:cx="122.13477"
       id="path9165"
       style="fill:#000000;fill-opacity:1;fill-rule:nonzero"
       sodipodi:type="arc" />
  </g>
</svg>
