<?xml version="1.0" encoding="UTF-8" standalone="no"?>
<!-- Created with Inkscape (http://www.inkscape.org/) -->

<svg
   xmlns:dc="http://purl.org/dc/elements/1.1/"
   xmlns:cc="http://creativecommons.org/ns#"
   xmlns:rdf="http://www.w3.org/1999/02/22-rdf-syntax-ns#"
   xmlns:svg="http://www.w3.org/2000/svg"
   xmlns="http://www.w3.org/2000/svg"
   xmlns:xlink="http://www.w3.org/1999/xlink"
   xmlns:sodipodi="http://sodipodi.sourceforge.net/DTD/sodipodi-0.dtd"
   xmlns:inkscape="http://www.inkscape.org/namespaces/inkscape"
   width="744.09448819"
   height="1052.3622047"
   id="svg9167"
   version="1.1"
   inkscape:version="0.48.4 r9939"
   sodipodi:docname="Trampoline.svg"
   inkscape:export-filename="C:\Users\spear\Desktop\Teddy\Inkscape Drawings\Trampoline.png"
   inkscape:export-xdpi="90"
   inkscape:export-ydpi="90">
  <defs
     id="defs9169">
    <linearGradient
       id="linearGradient9208">
      <stop
         style="stop-color:#ffffff;stop-opacity:1;"
         offset="0"
         id="stop9210" />
      <stop
         style="stop-color:#000000;stop-opacity:1;"
         offset="1"
         id="stop9212" />
    </linearGradient>
    <radialGradient
       inkscape:collect="always"
       xlink:href="#linearGradient9208"
       id="radialGradient9214"
       cx="234.13104"
       cy="505.89597"
       fx="234.13104"
       fy="505.89597"
       r="10.58653"
       gradientTransform="matrix(5.2352568,0.00486663,-2.7408867e-4,0.29485355,-991.15061,355.58408)"
       gradientUnits="userSpaceOnUse" />
  </defs>
  <sodipodi:namedview
     id="base"
     pagecolor="#ffffff"
     bordercolor="#666666"
     borderopacity="1.0"
     inkscape:pageopacity="0.0"
     inkscape:pageshadow="2"
     inkscape:zoom="2.8984375"
     inkscape:cx="184.64256"
     inkscape:cy="563.19488"
     inkscape:document-units="px"
     inkscape:current-layer="layer1"
     showgrid="false"
     inkscape:window-width="1280"
     inkscape:window-height="697"
     inkscape:window-x="-8"
     inkscape:window-y="-8"
     inkscape:window-maximized="1" />
  <metadata
     id="metadata9172">
    <rdf:RDF>
      <cc:Work
         rdf:about="">
        <dc:format>image/svg+xml</dc:format>
        <dc:type
           rdf:resource="http://purl.org/dc/dcmitype/StillImage" />
      </cc:Work>
    </rdf:RDF>
  </metadata>
  <g
     inkscape:label="Layer 1"
     inkscape:groupmode="layer"
     id="layer1"
     style="display:inline">
    <path
       style="fill:#333333;fill-opacity:1;fill-rule:nonzero"
       id="path9230"
       d="m 206.45081,515.05645 c 0.007,-0.77386 0.1917,-1.5295 0.0812,-2.30155 -0.16537,-0.52881 -0.47405,-0.74365 -0.9937,-0.84999 -0.0924,-0.0111 -0.18423,-0.0358 -0.2773,-0.0334 -0.35697,0.009 -1.23017,0.58198 -0.83094,0.3589 3.97932,-2.2235 5.32331,-3.31662 3.82282,-2.12067 -0.48313,0.50254 -0.74722,1.13869 -0.9092,1.80558 -0.0816,0.49882 0.0961,0.95834 0.3376,1.38716 0.22045,0.51847 0.67578,0.73489 1.13959,0.98859 0.53787,0.36426 0.90938,0.92728 1.18678,1.50576 0.0274,0.0939 0.0548,0.18784 0.0823,0.28176 0,0 -4.51619,2.42283 -4.51619,2.42283 l 0,0 c -0.006,-0.0614 -0.0119,-0.12273 -0.0178,-0.18409 -0.22482,-0.49039 -0.53418,-0.96303 -1.01196,-1.2351 -0.54077,-0.29661 -1.0325,-0.64941 -1.30218,-1.22547 -0.29372,-0.5309 -0.5198,-1.10107 -0.48911,-1.71843 0.12885,-0.7465 0.36756,-1.43538 0.78857,-2.0719 1.3302,-1.69221 0.24949,-0.38981 4.87774,-3.02399 0.40201,-0.22881 0.93015,-0.12743 1.34601,-0.0192 0.64458,0.25501 1.05224,0.67348 1.27426,1.34017 0.14953,0.80095 -0.004,1.56623 -0.0238,2.36715 0,0 -4.56469,2.32582 -4.56469,2.32582 z"
       inkscape:connector-curvature="0" />
    <path
       sodipodi:type="arc"
       style="fill:#000000;fill-opacity:1;fill-rule:nonzero"
       sodipodi:cx="235.98921"
       sodipodi:cy="506.55087"
       sodipodi:rx="96.603775"
       sodipodi:ry="6.2102427"
       d="m 332.59299,506.55087 a 96.603775,6.2102427 0 1 1 -193.20755,0 96.603775,6.2102427 0 1 1 193.20755,0 z" />
    <path
       style="fill:url(#radialGradient9214);fill-opacity:1;fill-rule:nonzero"
       d="m 278.96468,505.87998 c 0,2.45299 -20.19505,4.44152 -45.10728,4.44152 -24.91173,0 -45.10684,-1.98853 -45.10684,-4.44152 0,-2.45299 20.19511,-4.44152 45.10684,-4.44152 24.91223,0 45.10728,1.98853 45.10728,4.44152 z"
       inkscape:connector-curvature="0" />
    <path
       style="fill:#000000;fill-opacity:1;fill-rule:nonzero"
       id="path9218"
       d="m 142.40223,506.30646 c 0.25144,1.05023 0.41626,2.1183 0.53378,3.19101 0.0898,0.92585 0.095,1.85722 0.0926,2.78656 -0.036,0.88101 0.015,1.74883 0.14617,2.61901 0.14598,0.84952 0.16493,1.71236 0.18081,2.572 0.13341,1.16987 0.21392,2.34359 0.27793,3.51935 0.12627,1.04322 -0.0734,2.03722 -0.42592,3.01213 -0.29975,0.70636 -0.42203,1.45184 -0.48285,2.21087 0.015,0.88128 -0.26242,1.71433 -0.47303,2.55788 -0.13837,0.71016 -0.23475,1.42502 -0.37866,2.13462 -0.13861,0.66816 -0.17889,1.34956 -0.20289,2.02971 0.0114,0.59378 -0.25782,1.10335 -0.46279,1.63964 -0.191,0.58402 -0.21134,1.20235 -0.23214,1.81106 -0.0153,0.68591 -0.0113,1.37208 -0.01,2.05811 0.0278,0.6619 0.003,1.31048 -0.12575,1.95999 -0.13481,0.61036 -0.17451,1.23419 -0.19982,1.85689 -0.0205,0.68292 -0.0186,1.36624 -0.0185,2.04938 6.9e-4,0.69067 0.001,1.38133 0.002,2.072 0.0386,0.70889 -0.0563,1.40653 -0.21272,2.09596 -0.23567,0.63548 -0.60927,1.20555 -0.90687,1.81301 -0.39564,0.74606 -1.02512,1.2911 -1.67936,1.80243 -2.06477,1.46537 -4.1379,3.16548 -6.61589,3.79367 -0.69372,0.13521 -1.40351,0.12895 -2.1072,0.12946 -0.68958,-0.003 -1.37915,-0.009 -2.06874,-0.0113 -0.6898,-0.002 -1.37961,-0.002 -2.06942,-0.003 -0.72116,0.002 -1.4423,-0.002 -2.16345,-0.004 -0.39603,-3.8e-4 -0.79206,3.5e-4 -1.18809,9.5e-4 0,0 4.12087,-2.994 4.12087,-2.994 l 0,0 c 0.39519,5.8e-4 0.79038,10e-4 1.18557,8.7e-4 0.72443,-0.002 1.44885,-0.006 2.17329,-0.003 0.69022,4.3e-4 1.38043,0.001 2.07064,0.004 0.68816,0.003 1.37636,0.0106 2.06453,0.005 0.67694,-0.0137 1.36331,-0.0313 2.01171,-0.24911 1.58602,-0.62676 3.99874,-2.20635 -3.32017,2.02061 -0.13012,0.0752 0.25714,-0.15586 0.38095,-0.241 0.95391,-0.65599 -0.18303,0.067 0.81852,-0.5558 0.60231,-0.51277 1.29118,-0.92197 1.72337,-1.61171 0.34787,-0.55061 0.56758,-1.18057 0.9514,-1.71474 0.24707,-0.61667 0.29842,-1.30318 0.28479,-1.96234 -3.1e-4,-0.69065 -8.7e-4,-1.38131 -0.002,-2.07196 -7.4e-4,-0.68783 -0.003,-1.37573 0.009,-2.06348 0.0161,-0.64503 0.0369,-1.29289 0.15441,-1.92905 0.12761,-0.62534 0.25134,-1.22712 0.18138,-1.87307 -0.002,-0.68998 -0.005,-1.38 0.002,-2.06996 0.0115,-0.64727 0.0213,-1.30004 0.15658,-1.93585 0.1417,-0.53148 0.45428,-0.97106 0.53911,-1.51724 0.0166,-0.70433 0.0428,-1.41088 0.16716,-2.10603 0.13759,-0.71939 0.28759,-1.43023 0.37801,-2.15781 0.191,-0.8243 0.53751,-1.62316 0.51119,-2.48179 0.0465,-0.79899 0.10939,-1.59882 0.42145,-2.34689 0.36448,-0.91996 0.68636,-1.83527 0.56209,-2.84709 -0.0517,-1.17731 -0.15303,-2.34864 -0.3142,-3.51622 -0.0212,-0.83709 -0.044,-1.67618 -0.17099,-2.50547 -0.13032,-0.89671 -0.21516,-1.78536 -0.16014,-2.6939 -0.009,-0.91502 -0.007,-1.83107 -0.0718,-2.74433 -0.087,-1.04182 -0.20927,-2.08952 -0.52594,-3.09018 0,0 4.48844,-2.44663 4.48844,-2.44663 z"
       inkscape:connector-curvature="0" />
    <path
       style="fill:#000000;fill-opacity:1;fill-rule:nonzero"
       id="path9220"
       d="m 137.44811,510.22626 c 0.068,-0.82168 0.005,-1.62955 -0.12621,-2.43984 -0.0771,-0.43354 -0.11336,-0.87241 -0.16816,-1.30889 0,0 4.54105,-2.36646 4.54105,-2.36646 l 0,0 c 0.0255,0.43183 0.0632,0.86296 0.13175,1.2904 0.12882,0.83114 0.20733,1.65608 0.18626,2.49897 0,0 -4.56469,2.32582 -4.56469,2.32582 z"
       inkscape:connector-curvature="0" />
    <path
       style="fill:#000000;fill-opacity:1;fill-rule:nonzero"
       id="path9222"
       d="m 333.15027,504.60053 c 0.0285,0.95644 0.16984,1.90396 0.4252,2.82531 0.17151,0.73107 0.51051,1.40181 0.72874,2.11678 0.1845,0.73515 0.19434,1.50046 0.21262,2.25425 0.0154,0.75277 0.006,1.50563 0.002,2.25843 -0.003,0.75667 -0.0304,1.51021 0.0806,2.26023 0.19205,0.73112 0.10825,1.45822 0.0404,2.19726 -0.071,0.77136 -0.0967,1.54564 -0.11135,2.31979 -0.0932,0.85454 -0.20278,1.709 -0.32773,2.55975 -0.19246,1.03446 -0.28295,2.08168 -0.34235,3.13082 -0.0787,0.89556 -0.0446,1.754 0.18398,2.62095 0.19971,0.83026 0.55339,1.60888 0.80671,2.42222 0.27946,1.0802 0.23968,2.20197 0.36908,3.3016 0.16017,0.94803 0.24889,1.90026 0.27821,2.8606 0.0376,1.18226 0.0347,2.36517 0.0408,3.54784 -0.0265,1.0204 0.0468,2.03798 0.2332,3.04135 0.0808,0.70845 0.47126,1.28245 0.78715,1.89639 0.26344,0.44702 0.59931,0.84372 0.96795,1.20764 0.56117,0.39903 1.23601,0.50788 1.86166,0.74961 0.60969,0.1825 1.21666,0.37951 1.83643,0.52831 0.65744,0.13746 1.33073,0.15448 1.99974,0.16795 0.70129,0.009 1.40263,0.002 2.10394,0.006 0.78536,0.0337 1.54985,0.006 2.29612,-0.25396 0.68813,-0.25574 1.41167,-0.35665 2.13924,-0.4115 0.67142,-0.0825 1.36748,0.057 2.02504,-0.10624 0.59034,-0.16944 1.20277,-0.21583 1.81299,-0.24713 0.67885,-0.026 1.35837,-0.0242 2.0376,-0.0243 0.3202,0.001 0.64029,0.002 0.96044,-0.004 0,0 -4.14249,3.00879 -4.14249,3.00879 l 0,0 c -0.31514,-0.007 -0.63023,-0.007 -0.94545,-0.005 -0.67366,0.003 -1.34817,0.005 -2.0203,0.0558 -0.60502,0.0567 -1.19814,0.17027 -1.79583,0.27582 -0.6765,0.0267 -1.35541,0.0109 -2.02949,0.0857 -0.71039,0.0894 -1.40071,0.25701 -2.08319,0.47376 -0.78602,0.15584 -1.57552,0.16414 -2.37518,0.14651 -0.70699,0.006 -1.41424,0.007 -2.12102,-0.014 -0.69482,-0.0295 -1.39245,-0.0775 -2.06693,-0.25993 -0.62481,-0.1747 -1.25419,-0.33979 -1.86242,-0.56672 -0.70231,-0.23244 -1.41553,-0.45614 -1.99568,-0.93812 -0.39169,-0.41455 -0.77573,-0.83547 -1.04623,-1.34225 -0.32849,-0.66052 -0.73071,-1.28614 -0.81906,-2.04018 -0.20709,-1.03056 -0.29946,-2.08436 -0.26101,-3.13554 0.004,-1.17658 10e-4,-2.35354 -0.0332,-3.52969 -0.0467,-0.94421 -0.12159,-1.88573 -0.27535,-2.8195 -0.1203,-1.07032 -0.0672,-2.16263 -0.33533,-3.21506 -0.24499,-0.82147 -0.6199,-1.59793 -0.81459,-2.43543 -0.26862,-0.95707 -0.34374,-1.77504 -0.24391,-2.77051 0.0464,-1.06318 0.14184,-2.12394 0.31313,-3.17483 0.13443,-0.82528 0.18664,-1.6632 0.33651,-2.48732 0.0139,-0.78567 0.0392,-1.57133 0.1043,-2.35468 0.0558,-0.69814 0.18195,-1.39252 0.008,-2.08354 -0.12887,-0.77655 -0.13339,-1.54885 -0.11024,-2.33569 -5.7e-4,-0.74878 -0.001,-1.49755 -0.002,-2.24634 -0.009,-0.71117 -0.0103,-1.43078 -0.16135,-2.12904 -0.1985,-0.72425 -0.53839,-1.40029 -0.69943,-2.13719 -0.27486,-0.9587 -0.39198,-1.94138 -0.53479,-2.92602 0,0 4.56469,-2.32582 4.56469,-2.32582 z"
       inkscape:connector-curvature="0" />
    <path
       style="fill:#000000;fill-opacity:1;fill-rule:nonzero"
       id="path9224"
       d="m 235.14374,512.57384 c -0.18624,0.95264 -0.24904,1.92411 -0.29727,2.89191 -0.0597,0.76026 0.10556,1.51064 0.19889,2.26143 0.16272,0.60631 0.31356,1.20801 0.38003,1.83335 0.0713,1.07858 0.0535,2.16057 0.0502,3.2408 -0.002,1.31323 -0.003,2.62651 0.003,3.93973 -0.007,1.28486 -0.004,2.56972 -0.005,3.8546 -0.0743,1.33647 -0.20807,2.66824 -0.27977,4.00498 -0.0805,1.47112 -0.0696,2.94444 -0.0672,4.41703 -0.0863,1.44591 -0.2016,2.89077 -0.3763,4.32892 -0.18894,1.40492 -0.26968,2.81299 -0.20425,4.22803 0.11285,1.42675 0.1637,2.85723 0.20259,4.28758 -0.001,1.21616 0.18455,2.41992 0.28807,3.62893 0.0728,0.87911 0.10733,1.76076 0.11214,2.6427 0.0117,0.76049 -0.007,1.52156 0.015,2.28184 0,0 -4.55799,2.32155 -4.55799,2.32155 l 0,0 c 0.024,-0.76281 0.009,-1.52652 0.0119,-2.28959 -0.0109,-0.87419 -0.013,-1.74907 -0.0739,-2.62169 -0.0921,-1.22366 -0.26003,-2.44412 -0.2674,-3.67186 -0.0282,-1.42581 -0.0835,-2.85045 -0.19766,-4.27231 -0.0919,-1.44324 -0.0185,-2.87624 0.17408,-4.31073 0.16727,-1.41978 0.2916,-2.84067 0.3844,-4.26777 0.0117,-1.47977 0.0331,-2.95963 0.0607,-4.43915 0.0571,-1.33021 0.18717,-2.65321 0.28529,-3.98061 -6.9e-4,-1.28383 0.002,-2.56763 -0.002,-3.85144 0.008,-1.31428 0.0115,-2.62864 0.007,-3.94293 -0.009,-1.05549 -0.0105,-2.11251 -0.0833,-3.16594 -0.0635,-0.62349 -0.19942,-1.22675 -0.37677,-1.82782 -0.0854,-0.78074 -0.26639,-1.55975 -0.21894,-2.34737 0.0526,-0.97684 0.13889,-1.95069 0.23258,-2.92436 0,0 4.60183,-2.24981 4.60183,-2.24981 z"
       inkscape:connector-curvature="0" />
    <path
       style="fill:#1a1a1a;fill-opacity:1;fill-rule:nonzero"
       id="path9226"
       d="m 229.56671,516.78152 c 4e-5,-0.84323 0.0258,-1.67659 0.14997,-2.51107 0.0647,-0.43931 0.0463,-0.23234 0.0638,-0.6201 0,0 4.55468,-2.31898 4.55468,-2.31898 l 0,0 c 0.014,0.45977 0.0265,0.2275 -0.0412,0.69659 -0.13534,0.8077 -0.25204,1.60485 -0.16251,2.42773 0,0 -4.56469,2.32583 -4.56469,2.32583 z"
       inkscape:connector-curvature="0" />
    <path
       style="fill:#333333;fill-opacity:1;fill-rule:nonzero"
       id="path9228"
       d="m 209.98046,512.88085 c -0.0716,0.85555 0.007,1.69921 0.12344,2.54553 0.12503,0.79814 0.16878,1.60353 0.19149,2.40986 -0.0515,0.79544 0.0907,1.57074 0.2134,2.35136 0.14003,0.69997 0.11123,1.39108 0.009,2.09151 -0.32823,1.86719 -0.44338,3.74359 -0.39477,5.63643 0.16018,2.09842 0.51994,4.17325 0.70056,6.26941 0.19564,1.57826 0.4502,3.14571 0.61758,4.72784 0.18252,1.4602 0.20791,2.92813 0.20575,4.39725 -0.002,1.69742 0.006,3.39479 0.014,5.0922 -0.0401,0.95772 0.14926,1.89933 0.27028,2.84414 0.07,0.80567 0.3119,1.58231 0.47612,2.37132 0.19974,0.96052 0.25899,1.94062 0.30043,2.91833 -0.0288,0.90408 0.10439,1.79672 0.21225,2.69122 0.0439,0.37821 0.0727,0.75769 0.11376,1.13618 0,0 -4.53604,2.35444 -4.53604,2.35444 l 0,0 c -0.0164,-0.37801 -0.0382,-0.75573 -0.0786,-1.13209 -0.0991,-0.90827 -0.26684,-1.81033 -0.23209,-2.72765 -0.022,-0.9528 -0.0643,-1.90829 -0.24725,-2.84625 -0.17007,-0.80063 -0.45824,-1.57904 -0.52467,-2.39777 -0.10331,-0.97579 -0.28258,-1.94946 -0.22419,-2.93495 0.0116,-1.69882 0.0272,-3.39771 0.006,-5.09653 -0.0299,-1.4531 -0.0594,-2.90771 -0.18309,-4.35654 -0.15919,-1.58768 -0.46142,-3.15109 -0.62199,-4.73825 -0.15735,-2.11688 -0.43237,-4.22114 -0.62387,-6.33485 -0.0785,-1.88223 -0.0495,-3.75384 0.16882,-5.62566 0.10284,-0.65713 0.2055,-1.29218 0.0603,-1.95575 -0.11483,-0.80226 -0.27496,-1.5977 -0.22949,-2.4135 -0.0194,-0.78915 -0.0548,-1.5789 -0.16326,-2.36166 -0.1177,-0.8622 -0.21507,-1.71701 -0.18904,-2.58975 0,0 4.56469,-2.32582 4.56469,-2.32582 z"
       inkscape:connector-curvature="0" />
  </g>
</svg>
