<?xml version="1.0" encoding="UTF-8" standalone="no"?>
<!-- Created with Inkscape (http://www.inkscape.org/) -->

<svg
   xmlns:dc="http://purl.org/dc/elements/1.1/"
   xmlns:cc="http://creativecommons.org/ns#"
   xmlns:rdf="http://www.w3.org/1999/02/22-rdf-syntax-ns#"
   xmlns:svg="http://www.w3.org/2000/svg"
   xmlns="http://www.w3.org/2000/svg"
   xmlns:sodipodi="http://sodipodi.sourceforge.net/DTD/sodipodi-0.dtd"
   xmlns:inkscape="http://www.inkscape.org/namespaces/inkscape"
   width="744.09448819"
   height="1052.3622047"
   id="svg4703"
   version="1.1"
   inkscape:version="0.48.4 r9939"
   sodipodi:docname="New document 6">
  <defs
     id="defs4705" />
  <sodipodi:namedview
     id="base"
     pagecolor="#ffffff"
     bordercolor="#666666"
     borderopacity="1.0"
     inkscape:pageopacity="0.0"
     inkscape:pageshadow="2"
     inkscape:zoom="0.72460937"
     inkscape:cx="377.92022"
     inkscape:cy="524.03068"
     inkscape:document-units="px"
     inkscape:current-layer="layer1"
     showgrid="false"
     inkscape:window-width="1280"
     inkscape:window-height="697"
     inkscape:window-x="-8"
     inkscape:window-y="-8"
     inkscape:window-maximized="1" />
  <metadata
     id="metadata4708">
    <rdf:RDF>
      <cc:Work
         rdf:about="">
        <dc:format>image/svg+xml</dc:format>
        <dc:type
           rdf:resource="http://purl.org/dc/dcmitype/StillImage" />
        <dc:title></dc:title>
      </cc:Work>
    </rdf:RDF>
  </metadata>
  <g
     inkscape:label="Layer 1"
     inkscape:groupmode="layer"
     id="layer1">
    <g
       id="g5274"
       inkscape:export-filename="C:\Users\spear\Desktop\Teddy\pictures\whale.png"
       inkscape:export-xdpi="90"
       inkscape:export-ydpi="90">
      <path
         id="path5264"
         d="M 402.625 644.1875 C 402.19906 643.84313 401.80548 643.46293 401.375 643.125 C 398.66495 640.99755 395.87436 638.9981 393 637.15625 C 390.12565 635.31441 387.15819 633.61014 384.125 632.125 C 381.09181 630.63986 377.99285 629.36768 374.8125 628.3125 C 371.63215 627.25731 368.38093 626.39615 365.0625 625.8125 C 361.74407 625.22885 358.34316 624.90625 354.90625 624.90625 C 351.46934 624.90625 348.00324 625.22885 344.5 625.8125 C 340.99676 626.39615 337.44961 627.25731 333.90625 628.3125 C 330.36289 629.36768 326.81966 630.63986 323.28125 632.125 C 319.74284 633.61014 316.21541 635.31441 312.71875 637.15625 C 309.22209 638.99809 305.75591 640.99755 302.34375 643.125 C 301.7278 643.50904 301.14385 643.95143 300.53125 644.34375 C 316.43797 649.3065 333.51207 652.15625 351.375 652.15625 C 369.39805 652.15625 386.59803 649.23558 402.625 644.1875 z "
         style="fill:#ffffff;fill-opacity:1;fill-rule:nonzero;stroke:#000000;stroke-opacity:1" />
      <path
         id="path4711"
         d="M 351.375 388.5625 C 267.91599 388.5625 200.25 447.5553 200.25 520.34375 C 200.25 577.55312 242.11874 626.11957 300.53125 644.34375 C 301.14385 643.95143 301.7278 643.50904 302.34375 643.125 C 305.75591 640.99755 309.22209 638.99809 312.71875 637.15625 C 316.21541 635.31441 319.74284 633.61014 323.28125 632.125 C 326.81966 630.63986 330.36289 629.36768 333.90625 628.3125 C 337.44961 627.25731 340.99676 626.39615 344.5 625.8125 C 348.00324 625.22885 351.46934 624.90625 354.90625 624.90625 C 358.34316 624.90625 361.74407 625.22885 365.0625 625.8125 C 368.38093 626.39615 371.63215 627.25731 374.8125 628.3125 C 377.99285 629.36768 381.09181 630.63986 384.125 632.125 C 387.15819 633.61014 390.12565 635.31441 393 637.15625 C 395.87436 638.9981 398.66495 640.99755 401.375 643.125 C 401.80548 643.46293 402.19906 643.84313 402.625 644.1875 C 460.81384 625.85954 502.46875 577.41347 502.46875 520.34375 C 502.46875 447.5553 434.83401 388.5625 351.375 388.5625 z "
         style="fill:#000000;fill-opacity:1;fill-rule:nonzero;stroke:#000000;stroke-opacity:1;stroke-width:1;stroke-miterlimit:4;stroke-dasharray:none;stroke-dashoffset:0" />
      <path
         sodipodi:nodetypes="sssss"
         inkscape:connector-curvature="0"
         id="path4713"
         d="m 319.63342,481.77997 c 0,16.76802 -11.43062,30.36118 -25.531,30.36118 -14.10038,0 -77.97305,1.58743 -77.97305,-15.18059 0,-16.76802 63.87267,-45.54178 77.97305,-45.54178 14.10038,0 25.531,13.59317 25.531,30.36119 z"
         style="fill:#ffffff;fill-opacity:1;fill-rule:nonzero;stroke:none" />
      <path
         sodipodi:nodetypes="sssss"
         inkscape:connector-curvature="0"
         id="path4715"
         d="m 491.59568,501.10072 c 0,16.76802 -69.39288,11.04043 -83.49326,11.04043 -14.10038,0 -25.531,-13.59316 -25.531,-30.36118 0,-16.76802 11.43062,-30.36119 25.531,-30.36119 14.10038,0 83.49326,32.91392 83.49326,49.68194 z"
         style="fill:#ffffff;fill-opacity:1;fill-rule:nonzero;stroke:none" />
      <path
         transform="matrix(0.05022833,0,0,0.13612567,335.98895,417.37265)"
         sodipodi:type="arc"
         style="fill:#000000;fill-opacity:1;fill-rule:nonzero;stroke:none"
         id="path4717"
         sodipodi:cx="355.36389"
         sodipodi:cy="520.35138"
         sodipodi:rx="151.11591"
         sodipodi:ry="131.79515"
         d="m 506.4798,520.35138 a 151.11591,131.79515 0 1 1 -302.23181,0 151.11591,131.79515 0 1 1 302.23181,0 z" />
      <path
         d="m 506.4798,520.35138 a 151.11591,131.79515 0 1 1 -302.23181,0 151.11591,131.79515 0 1 1 302.23181,0 z"
         sodipodi:ry="131.79515"
         sodipodi:rx="151.11591"
         sodipodi:cy="520.35138"
         sodipodi:cx="355.36389"
         id="path4721"
         style="fill:#000000;fill-opacity:1;fill-rule:nonzero;stroke:none"
         sodipodi:type="arc"
         transform="matrix(0.02283107,0,0,0.04188483,361.58479,462.83148)" />
      <path
         id="path4734"
         d="M 363.28125 596.0625 C 359.96801 595.90561 356.64369 595.78125 353.28125 595.78125 C 348.99397 595.78125 344.72491 595.88378 340.53125 596.09375 C 340.30754 596.10495 340.09826 596.11332 339.875 596.125 C 343.7596 596.60162 347.6469 596.9375 351.5625 596.9375 C 355.45394 596.9375 359.37991 596.57381 363.28125 596.0625 z "
         style="fill:#ff0000;fill-opacity:1;fill-rule:nonzero;stroke:none" />
      <path
         id="path4732"
         d="M 400.03125 584.9375 C 398.50124 584.24512 397.10582 583.52188 395.4375 582.875 C 392.29536 581.65664 388.89804 580.54462 385.3125 579.59375 C 381.72696 578.64288 377.936 577.85725 373.96875 577.3125 C 370.0015 576.76775 365.84978 576.4375 361.5625 576.4375 C 357.27522 576.4375 352.88883 576.76775 348.46875 577.3125 C 344.04867 577.85725 339.61182 578.64288 335.25 579.59375 C 330.88818 580.54462 326.6125 581.65664 322.5 582.875 C 318.3875 584.09336 314.42212 585.40278 310.75 586.75 C 309.94115 587.04675 309.31308 587.35735 308.53125 587.65625 C 318.2817 591.65338 328.90487 594.77902 339.875 596.125 C 340.09826 596.11332 340.30754 596.10495 340.53125 596.09375 C 344.72491 595.88378 348.99397 595.78125 353.28125 595.78125 C 356.64369 595.78125 359.96801 595.90561 363.28125 596.0625 C 376.0976 594.38278 388.73904 590.24016 400.03125 584.9375 z "
         style="fill:#ffffff;fill-opacity:1;fill-rule:nonzero;stroke:none" />
      <path
         id="path4723"
         d="M 433.375 546.28125 C 418.32817 545.59028 384.14581 554.15625 351.5625 554.15625 C 308.11808 554.15625 264.625 541.65492 264.625 553.46875 C 264.625 561.2109 283.42594 577.36451 308.53125 587.65625 C 309.31308 587.35735 309.94115 587.04675 310.75 586.75 C 314.42212 585.40278 318.3875 584.09336 322.5 582.875 C 326.6125 581.65664 330.88818 580.54462 335.25 579.59375 C 339.61182 578.64288 344.04867 577.85725 348.46875 577.3125 C 352.88883 576.76775 357.27522 576.4375 361.5625 576.4375 C 365.84978 576.4375 370.0015 576.76775 373.96875 577.3125 C 377.936 577.85725 381.72696 578.64288 385.3125 579.59375 C 388.89804 580.54462 392.29536 581.65664 395.4375 582.875 C 397.10582 583.52188 398.50124 584.24512 400.03125 584.9375 C 423.67696 573.83381 441.28125 557.99808 441.28125 550.71875 C 441.28125 547.76529 438.39061 546.51157 433.375 546.28125 z "
         style="fill:#ff0000;fill-opacity:1;fill-rule:nonzero;stroke:none" />
      <path
         sodipodi:nodetypes="sssss"
         inkscape:connector-curvature="0"
         id="path4726"
         d="m 420.91644,550.02254 c 0,3.81091 -25.04409,23.46092 -59.34231,23.46092 -34.29822,0 -75.90297,-19.65001 -75.90297,-23.46092 0,-3.81091 33.32443,4.14016 67.62265,4.14016 34.29822,0 67.62263,-9.33112 67.62263,-4.14016 z"
         style="fill:#ffffff;fill-opacity:1;fill-rule:nonzero;stroke:none" />
      <path
         sodipodi:nodetypes="sssss"
         inkscape:connector-curvature="0"
         id="path4736"
         d="m 237.36928,610.74493 c 0,20.57894 -42.26536,40.02157 -58.65229,40.02157 -16.38693,0 29.67116,-88.44533 29.67116,-109.02427 0,-20.57893 7.76401,8.28033 24.15094,8.28033 16.38693,0 4.83019,40.14344 4.83019,60.72237 z"
         style="fill:#000000;fill-opacity:1;fill-rule:nonzero;stroke:none" />
      <path
         style="fill:#000000;fill-opacity:1;fill-rule:nonzero;stroke:none"
         d="m 469.14854,610.74493 c 0,20.57894 42.26536,40.02157 58.65229,40.02157 16.38693,0 -29.67116,-88.44533 -29.67116,-109.02427 0,-20.57893 -7.76401,8.28033 -24.15094,8.28033 -16.38693,0 -4.83019,40.14344 -4.83019,60.72237 z"
         id="path4739"
         inkscape:connector-curvature="0"
         sodipodi:nodetypes="sssss" />
      <path
         sodipodi:nodetypes="sssss"
         inkscape:connector-curvature="0"
         id="path4741"
         d="m 335.14854,372.36145 c 0,-20.57894 42.26536,-40.02157 58.65229,-40.02157 16.38693,0 -29.67116,88.44533 -29.67116,109.02427 0,20.57893 -7.76401,-8.28033 -24.15094,-8.28033 -16.38693,0 -4.83019,-40.14344 -4.83019,-60.72237 z"
         style="fill:#000000;fill-opacity:1;fill-rule:nonzero;stroke:none" />
      <path
         transform="matrix(0.02283107,0,0,0.04188483,329.58479,462.83148)"
         sodipodi:type="arc"
         style="fill:#000000;fill-opacity:1;fill-rule:nonzero;stroke:none"
         id="path5268"
         sodipodi:cx="355.36389"
         sodipodi:cy="520.35138"
         sodipodi:rx="151.11591"
         sodipodi:ry="131.79515"
         d="m 506.4798,520.35138 a 151.11591,131.79515 0 1 1 -302.23181,0 151.11591,131.79515 0 1 1 302.23181,0 z" />
    </g>
  </g>
</svg>
